<svg xmlns="http://www.w3.org/2000/svg" width="623.9097" height="186.9127" viewBox="0 0 623.9097 186.9127"><defs><style>.cls-1{fill:#bfbfbf;stroke:#000;stroke-miterlimit:10;}</style></defs><g id="Layer_2" data-name="Layer 2"><g id="Layer_1-2" data-name="Layer 1"><path class="cls-1" d="M87.8618,31.3327q-5.75.0073-11.5.0123a20.6975,20.6975,0,0,1-2.1541-.057c-2.329-.244-2.8165-1.0954-1.6563-3.1428,3.07-5.4181,6.2073-10.7982,9.312-16.1967,1.1146-1.938,2.2033-3.8909,3.3229-5.8259a13.32,13.32,0,0,1,1.3-2.004,1.2889,1.2889,0,0,1,2.2278-.0815A8.7992,8.7992,0,0,1,89.97,5.7759q6.374,10.9793,12.7191,21.9751.12.2074.2312.42c1.1205,2.1262.7428,2.8546-1.6437,3.09-.713.07-1.4359.0534-2.1544.0551Q93.4921,31.33,87.8618,31.3327Z"/><path class="cls-1" d="M569.5115,94.3192a3.3413,3.3413,0,0,1-.5746,1.8322c-4.4607,7.76-8.9011,15.5323-13.3921,23.275-1.2048,2.0771-2.1816,2.0772-3.4312-.0429-3.1652-5.37-6.2411-10.7927-9.3627-16.1886-1.3206-2.2828-2.7155-4.5241-3.9863-6.834-1.1995-2.18-.7141-2.9942,1.7929-3.2158.6355-.0562,1.278-.0449,1.9172-.0459q11.511-.0188,23.0221-.0221a20.1358,20.1358,0,0,1,2.8583.2127A1.2146,1.2146,0,0,1,569.5115,94.3192Z"/><path class="cls-1" d="M463.7481,62.3434q6.35-.0086,12.7008-.0148a16.2889,16.2889,0,0,1,1.915.0459c1.5625.1849,1.8837.7748,1.2525,2.278a13.4719,13.4719,0,0,1-.7906,1.4766q-6.275,10.9011-12.5564,21.7983a14.21,14.21,0,0,1-.8662,1.4339c-.9787,1.31-1.6414,1.3339-2.5454-.0347-.9229-1.3971-1.7149-2.8811-2.557-4.3312q-5.775-9.9451-11.5389-19.8966c-1.4517-2.5187-1.3223-2.7207,1.5664-2.734C454.8015,62.3442,459.2748,62.3493,463.7481,62.3434Z"/><path class="cls-1" d="M482.1786,93.1747q5.3964-.007,10.7926-.0133c.64-.0005,1.28-.0115,1.9185.0162,3.0967.1342,3.5375.9416,1.9689,3.6728q-6.33,11.02-12.685,22.0254c-1.6288,2.8193-2.4149,2.842-4.0213.0833q-6.4553-11.0856-12.8659-22.1973c-.08-.1383-.163-.2755-.2352-.418-1.0858-2.146-.6952-3.0126,1.6984-3.0743,4.4738-.1154,8.9525-.0431,13.429-.0489C482.1787,93.2053,482.1786,93.19,482.1786,93.1747Z"/><path class="cls-1" d="M571.8049,124.2676c4.1565-.0071,8.3133-.0468,12.4694-.0074,3.5307.0335,3.8965.6983,2.1516,3.75q-6.1875,10.8228-12.3995,21.6317c-1.8649,3.2437-2.4819,3.2577-4.3649.0313q-6.3446-10.87-12.6281-21.7761c-1.549-2.6876-1.0661-3.5509,2.0625-3.5975C563.3315,124.237,567.5685,124.2748,571.8049,124.2676Z"/><path class="cls-1" d="M518.1967,31.2162c4.076-.0053,8.1525-.0513,12.2278-.0034,3.4938.0411,3.88.7768,2.1556,3.7633Q526.3459,45.77,520.1215,56.57c-1.8852,3.257-2.4848,3.261-4.3454.0579q-6.261-10.7788-12.5019-21.5694c-.04-.0691-.0847-.1356-.1241-.2051-1.5085-2.6686-1.0531-3.5317,2.1-3.5912,4.3143-.0813,8.6312-.03,12.9469-.0356Z"/><path class="cls-1" d="M410.5865,92.35c-4.1584.007-8.3171.0427-12.4752.0086-3.5719-.0293-4.0342-.8536-2.2581-3.9563q6.1365-10.7205,12.311-21.4194c1.868-3.2318,2.5-3.2176,4.3735.0182q6.309,10.8979,12.6035,21.8045c1.567,2.7149,1.1424,3.4737-2.08,3.515C418.9037,92.3735,414.7449,92.3427,410.5865,92.35Z"/><path class="cls-1" d="M70.0048,62.0749q-5.5067.009-11.0134.0148c-.6384.0005-1.2778.0117-1.9151-.017-2.9874-.1346-3.4934-.9484-2.0463-3.48q6.4731-11.3262,13.01-22.6159a6.46,6.46,0,0,1,.6585-.9963c.8055-.9385,1.3559-.9632,2.14-.0242a12.7639,12.7639,0,0,1,1.1743,1.8012Q78.2,47.42,84.3692,58.0923c1.858,3.2195,1.4312,3.93-2.3934,3.96C77.9857,62.0837,73.9951,62.0684,70.0048,62.0749Z"/><path class="cls-1" d="M338.6836,92.4491q-5.7588.0075-11.5176.0146c-.4,0-.8.0049-1.2-.0078-3.1423-.1-3.5974-.8708-2.0225-3.6222Q330.32,77.6952,336.749,66.587c.12-.2078.2245-.4254.357-.6246,1.16-1.7432,1.85-1.7715,2.9564-.0492.7772,1.21,1.4753,2.4715,2.1976,3.7165q5.5374,9.5452,11.0692,19.0937c1.7513,3.0194,1.3951,3.6631-2.1683,3.6974-4.1588.04-8.3182.0188-12.4773.0242Z"/><path class="cls-1" d="M141.4632,61.9766c-4.0758.0069-8.1518.0441-12.2272.0078-3.5487-.0316-3.996-.8738-2.2079-3.9836q6.0938-10.5979,12.1971-21.19c2.0392-3.5282,2.5082-3.52,4.5663.018q6.0268,10.36,12.0373,20.7289c.16.2764.3082.56.4632.84,1.4916,2.69,1.04,3.5042-2.1222,3.5483C149.935,62.0044,145.6988,61.97,141.4632,61.9766Z"/><path class="cls-1" d="M464.0224,61.0873q-5.6286.0074-11.2574.0143c-.3992,0-.7985.0038-1.1976-.0061-3.3093-.0816-3.7767-.8521-2.1549-3.6881,2.972-5.197,5.9774-10.3749,8.97-15.56,1.3165-2.2814,2.5966-4.5851,3.9643-6.8356,1.3629-2.2425,2.1461-2.2515,3.4913.0419,3.5131,5.99,6.9589,12.02,10.4339,18.0319.9187,1.59,1.877,3.1572,2.762,4.7653,1.1825,2.1486.6678,3.1232-1.8387,3.1741-4.3893.0892-8.7816.0347-13.1727.04Z"/><path class="cls-1" d="M589.767,155.4466c3.9981-.0066,7.9966-.0525,11.9941-.005,3.6664.0436,4.1816.9766,2.3664,4.143q-6.0833,10.6114-12.1931,21.2074c-1.8689,3.2417-2.5027,3.2448-4.3706.009q-6.2351-10.8007-12.4379-21.62c-1.6017-2.798-1.125-3.6455,2.1674-3.7009C581.45,155.41,585.609,155.4535,589.767,155.4466Z"/><path class="cls-1" d="M230.9534,92.5882q-5.8654.0066-11.7309.0142c-.3192,0-.6386.0025-.9575-.0081-3.1653-.1044-3.5654-.798-1.972-3.5858q6.3546-11.1174,12.7507-22.2111a8.5937,8.5937,0,0,1,.4884-.8225c1.01-1.3759,1.8085-1.3957,2.7689-.0247.5023.7172.9245,1.4918,1.3646,2.2511q6.0619,10.4574,12.1168,20.9187c.12.2072.2474.4106.3564.6235.9763,1.9056.6109,2.6867-1.5408,2.7641-3.2681.1176-6.5424.0609-9.8141.0756C233.5071,92.5889,232.23,92.5872,230.9534,92.5882Z"/><path class="cls-1" d="M500.14,62.4319q5.8787-.0063,11.7572-.0126c.56,0,1.1228-.0122,1.6782.0426,2.1334.21,2.5567.919,1.5116,2.7954-2.2179,3.9815-4.5073,7.9234-6.7716,11.8791q-3.0388,5.309-6.0875,10.6125c-.2388.4159-.4641.8432-.7411,1.233-1.101,1.5493-1.8564,1.6089-2.8545-.0184-1.9225-3.1342-3.7106-6.3509-5.5537-9.5338q-3.8469-6.6429-7.6927-13.2867c-.2-.3461-.4157-.6856-.5869-1.0459-.79-1.6612-.45-2.4182,1.4289-2.5382,2.55-.163,5.1149-.0989,7.6735-.1173C495.9806,62.4267,498.06,62.4338,500.14,62.4319Z"/><path class="cls-1" d="M266.8548,92.54q-5.6376.01-11.2753.0149c-.6395,0-1.2812.0142-1.9184-.03-2.4024-.1652-2.9438-.9928-1.7844-3.0327,4.3847-7.7151,8.8306-15.3953,13.2552-23.0876a5.123,5.123,0,0,1,.3888-.6048c.9694-1.2424,1.6376-1.2361,2.63.0637a13.2048,13.2048,0,0,1,.8771,1.4293q6.1827,10.6933,12.3608,21.3893c1.7989,3.1138,1.4,3.8033-2.2989,3.8338C275.0115,92.55,270.933,92.5335,266.8548,92.54Z"/><path class="cls-1" d="M571.6828,123.0025q-6.1141.01-12.2281.0144a12.4887,12.4887,0,0,1-1.9143-.0657c-1.2331-.1924-1.62-.8595-1.2126-2.048a7.6631,7.6631,0,0,1,.6624-1.2718q6.3153-11.0241,12.6384-22.0439c1.795-3.1247,2.4843-3.1543,4.26-.11q6.4017,10.974,12.7466,21.9809c1.6163,2.8012,1.2191,3.4944-2.0055,3.5193C580.3145,123.0111,575.9985,122.9958,571.6828,123.0025Z"/><path class="cls-1" d="M195.2562,92.63c-4.08.0042-8.16.0426-12.24.0051-3.8118-.0351-4.238-.7543-2.3874-3.9739q6.2178-10.8173,12.4783-21.61c.08-.1385.1529-.2815.2377-.417,1.3865-2.2158,2.1535-2.2458,3.5081.07,4.4427,7.5934,8.8295,15.2195,13.23,22.8374a6.0671,6.0671,0,0,1,.5962,1.3024,1.1354,1.1354,0,0,1-.8116,1.5018,6.745,6.745,0,0,1-2.3719.2669Q201.3763,92.63,195.2562,92.63Z"/><path class="cls-1" d="M356.5262,61.2257q-5.76.0075-11.5191.0144c-.4,0-.8.0034-1.2-.0109-3.0015-.1073-3.4988-.9045-2.0272-3.4853,2.9317-5.1411,5.9273-10.2457,8.8888-15.37,1.3607-2.3543,2.6644-4.7423,4.065-7.0722,1.3861-2.3058,2.15-2.3218,3.4947-.0292,3.4393,5.8636,6.82,11.7618,10.2285,17.6434,1.0426,1.799,2.15,3.5624,3.1391,5.39,1.0968,2.0258.6892,2.804-1.6319,2.85-4.4778.0888-8.9586.0358-13.4381.0416Z"/><path class="cls-1" d="M428.021,61.133q-5.7585.0075-11.517.0137c-.48,0-.9612.008-1.439-.0276-2.4036-.1788-2.89-.9386-1.7148-3.0582,2.2105-3.9852,4.5391-7.9048,6.8112-11.8559q2.9895-5.1987,5.9646-10.4058c.2387-.416.4733-.8371.7477-1.2293,1.0587-1.5131,1.6315-1.5385,2.6747-.0827.4647.6484.8637,1.3461,1.264,2.038Q436.76,46.8025,442.695,57.0868c1.7934,3.1109,1.3359,3.9745-2.1975,4.0153-4.1584.0481-8.3176.0208-12.4765.0261Z"/><path class="cls-1" d="M445.85,29.91q-5.6284.0072-11.2569.0135c-.4789,0-.9589.0053-1.4366-.0229-2.7295-.161-3.1819-.8839-1.8516-3.2312,3.3845-5.9718,6.8248-11.9119,10.2442-17.8639,1.1134-1.9379,2.1888-3.8994,3.3605-5.8015.9452-1.5343,1.4138-1.5391,2.3416-.0336,1.1721,1.9019,2.2462,3.864,3.3665,5.7979q4.9813,8.5989,9.9629,17.1975c1.796,3.1112,1.367,3.872-2.2764,3.9134-4.1509.0472-8.3028.02-12.4542.0258Z"/><path class="cls-1" d="M159.1325,30.28q-5.8767.0059-11.7535.0132c-.4,0-.8.0028-1.199-.0191-2.84-.1556-3.2536-.9038-1.8214-3.3939q6.2771-10.9137,12.5862-21.8089c1.7745-3.0609,2.6141-3.0887,4.3482-.1q6.3184,10.89,12.5713,21.8177c.12.2078.2474.4122.3493.6285.8932,1.8954.4911,2.7018-1.65,2.7785-3.3542.12-6.7147.064-10.0726.08C161.3713,30.2819,160.2519,30.28,159.1325,30.28Z"/><path class="cls-1" d="M69.8681,186.389c-4.0743.0053-8.1491.0478-12.2229.0045-3.52-.0374-3.9528-.7607-2.2505-3.7442q6.4719-11.3427,13.0047-22.6505a9.3149,9.3149,0,0,1,.4975-.8188c.7971-1.1058,1.21-1.1513,1.932-.0406.913,1.4048,1.7192,2.8794,2.5611,4.33q5.4728,9.4293,10.9346,18.8649c1.7594,3.0518,1.2688,3.9641-2.2336,4.0206-4.0734.0657-8.1485.0246-12.2229.03Z"/><path class="cls-1" d="M392.99.5152Q399.3448.5061,405.7.5c.5591,0,1.12.0037,1.6771.0436.8158.0583,1.1844.4389.8,1.264-.2023.4343-.414.8662-.6518,1.2817q-6.669,11.6534-13.3478,23.3012a7.5769,7.5769,0,0,1-.6337,1.0157c-.83,1.0274-1.4979,1.0631-2.3546.1069a7.0314,7.0314,0,0,1-.8006-1.1907Q384.03,15.32,377.69,4.3072C375.9321,1.239,376.3258.5609,379.8.5384,384.1964.51,388.5931.5216,392.99.5152Z"/><path class="cls-1" d="M87.7014,155.1722q-5.2769.0084-10.5538.0133c-.7194,0-1.4411.0158-2.1579-.0327-2.7839-.1881-3.2415-1.0065-1.8344-3.4653q6.372-11.1351,12.8044-22.2357a6.5336,6.5336,0,0,1,.7981-1.19c.7761-.84,1.4428-.8358,2.2024.058a12.08,12.08,0,0,1,1.189,1.796q6.1251,10.5858,12.2319,21.182a9.05,9.05,0,0,1,.5592,1.0591c.6308,1.5342.2967,2.2446-1.3437,2.5931a13.0959,13.0959,0,0,1-2.622.1982C95.2169,155.1727,91.4591,155.1664,87.7014,155.1722Z"/><path class="cls-1" d="M177.0546.7928Q183.051.7855,189.0474.779a18.3645,18.3645,0,0,1,1.9174.0365c1.7227.1805,2.1248.8315,1.4723,2.3783a13.646,13.646,0,0,1-.8122,1.467q-6.2288,10.8027-12.46,21.6041c-1.7288,2.999-2.4054,3.0237-4.108.0917Q168.7349,15.4695,162.4345,4.57c-.12-.2075-.2479-.4111-.3586-.6236-1.18-2.2647-.74-3.0823,1.7869-3.1186C167.46.7759,171.0583.8024,174.6561.7957Q175.8553.7935,177.0546.7928Z"/><path class="cls-1" d="M105.4936,1.3661q6.3477-.0083,12.6955-.0115a11.8021,11.8021,0,0,1,2.1464.12,1.1267,1.1267,0,0,1,.9215,1.6142,7.9827,7.9827,0,0,1-.73,1.5017Q114.073,15.7971,107.6062,26.996c-.08.1382-.15.2821-.2346.4176-1.3172,2.1187-2.1617,2.192-3.38.11Q97.2179,15.9483,90.5544,4.3094c-1.199-2.0957-.6991-2.88,1.7648-2.9082,4.391-.05,8.7829-.0237,13.1744-.0294Z"/><path class="cls-1" d="M123.7225,94.4623q6.2272-.0081,12.4546-.0136a12.4622,12.4622,0,0,1,1.9123.0635c1.1448.1787,1.4913.7789,1.1081,1.8652a8.0145,8.0145,0,0,1-.66,1.274q-6.4265,11.22-12.8646,22.4337c-1.5841,2.7492-2.4536,2.7446-4.0569-.0094q-6.385-10.9678-12.732-21.9576c-.16-.2761-.3343-.546-.4706-.8336-.8829-1.8623-.4238-2.7341,1.6575-2.7675,4.55-.0729,9.101-.0324,13.6516-.0383Z"/><path class="cls-1" d="M302.6975,154.8943q-5.9943.0078-11.9885.0146c-.4,0-.8.0071-1.1985-.02-2.3242-.1573-2.6935-.7725-1.5-2.8635q6.6543-11.6586,13.3972-23.2667c1.2657-2.1815,1.9115-2.1624,3.2449.116,3.2288,5.5171,6.4018,11.0668,9.6005,16.6016,1.2394,2.1445,2.5308,4.26,3.719,6.4328,1.0863,1.986.6485,2.8575-1.6088,2.9065-4.5534.099-9.11.04-13.6657.0454Z"/><path class="cls-1" d="M103.8086,124.1367c-2.3478.0932-6.7431-.2644-11.1286.1433a4.2037,4.2037,0,0,1-1.4167-.1336c-1.1151-.29-1.4133-.8523-1.0215-1.96a9.3723,9.3723,0,0,1,.7732-1.4836q6.1922-10.81,12.3957-21.613a11.9967,11.9967,0,0,1,1.1827-1.7985c.8317-.9818,1.5108-.9625,2.3557.0484a11.2542,11.2542,0,0,1,1.0425,1.6042q6.3,10.8858,12.5767,21.785c.4927.8582,1.4188,1.7631.6533,2.8215-.6324.8743-1.7166.5859-2.6739.5805C114.3149,124.1065,110.0819,124.1286,103.8086,124.1367Z"/><path class="cls-1" d="M356.4762.5618q6.23-.007,12.459-.0115a9.8533,9.8533,0,0,1,1.9091.0986c1.13.2256,1.4431.8328,1.0612,1.9272a6.544,6.544,0,0,1-.5418,1.0656c-4.2506,7.4114-8.4847,14.8324-12.767,22.2254-1.8219,3.1453-2.4448,3.1452-4.2284.0981Q348.0152,15.112,341.7042,4.2341c-.1607-.2759-.3145-.5566-.456-.8428C340.3106,1.4958,340.7091.68,342.82.6242c3.6715-.0965,7.3468-.048,11.0205-.06Q355.1585.5605,356.4762.5618Z"/><path class="cls-1" d="M159.3221,155.0717c-3.9984.0051-7.9974.0544-11.995.0021-3.4508-.0452-3.9134-.8632-2.229-3.81q6.19-10.8279,12.4233-21.6308c1.7585-3.0443,2.31-3.0516,4.0473-.0652q6.3329,10.8838,12.6169,21.796c1.4871,2.5761.9371,3.5924-2.1493,3.6589-4.2364.0913-8.476.0325-12.7142.0379Z"/><path class="cls-1" d="M212.9961,61.4093c-4.0728.0056-8.1455.0173-12.2183.01a14.8628,14.8628,0,0,1-2.1462-.1374,1.2239,1.2239,0,0,1-1.0716-1.7479,6.8344,6.8344,0,0,1,.6965-1.516q6.2675-10.902,12.56-21.7894c1.7175-2.9586,2.5131-2.9877,4.1932-.123,4.3217,7.3691,8.595,14.7666,12.8812,22.1565a6.6439,6.6439,0,0,1,.6173,1.2924,1.1354,1.1354,0,0,1-.9169,1.6231,12.586,12.586,0,0,1-2.377.2068C221.1417,61.4087,217.0689,61.4038,212.9961,61.4093Z"/><path class="cls-1" d="M553.8117,91.8268q-6.11.0075-12.22.011a11.4438,11.4438,0,0,1-2.1472-.112c-1.1464-.2218-1.4539-.8042-1.0483-1.9122a11.3812,11.3812,0,0,1,.87-1.7032q6.3142-11.0151,12.64-22.0235a8.9734,8.9734,0,0,1,.5-.8167c1.0982-1.51,1.8647-1.5365,2.8637.1174,2.1054,3.4854,4.1067,7.0336,6.1517,10.5554q3.5487,6.1115,7.0983,12.2224c.2005.3453.4134.6858.5823,1.0465.7828,1.6718.3916,2.4-1.394,2.567-.5549.052-1.1173.03-1.6763.0314Q559.9218,91.821,553.8117,91.8268Z"/><path class="cls-1" d="M320.5825,185.5912q-5.7553.0086-11.5107.0146c-.4795,0-.96.007-1.4384-.0221-2.5634-.1559-2.9665-.8571-1.6585-3.1512q6.65-11.6635,13.3654-23.29c.1987-.3459.4134-.6841.6409-1.0119.5119-.7379,1.0557-.645,1.5146.0268.495.7246.9366,1.4872,1.3777,2.247q6.1394,10.5744,12.2669,21.1557c1.8823,3.2559,1.4662,3.9792-2.3278,4.0086C328.7361,185.6,324.6592,185.5851,320.5825,185.5912Z"/><path class="cls-1" d="M356.3747,185.5466q-5.3918.0069-10.7835.013c-.6389.0005-1.2791.0123-1.9167-.0211-2.7331-.1431-3.1714-.866-1.8223-3.2346,3.36-5.8983,6.7682-11.7687,10.1579-17.65.997-1.73,1.9861-3.464,2.9973-5.1854,1.4994-2.5526,1.75-2.5572,3.1868-.0784q3.4246,5.907,6.8381,11.8207,3.0591,5.2884,6.115,10.5785a12.8285,12.8285,0,0,1,.8618,1.7076,1.2149,1.2149,0,0,1-.8129,1.7127,6.8185,6.8185,0,0,1-2.6.3131q-6.1107.0195-12.2213.0192Z"/><path class="cls-1" d="M67.5986,96.1416c-.1732.3621-.3816.88-.6568,1.3605Q60.3281,109.04,53.6949,120.566a7.1747,7.1747,0,0,1-.8212,1.174,1.0555,1.0555,0,0,1-1.6723.0656,7.38,7.38,0,0,1-1.4109-1.9217q-6.29-10.8944-12.5757-21.7908c-1.6121-2.8034-1.2182-3.5039,1.9892-3.5146q12.7023-.0426,25.4047-.0309a10.48,10.48,0,0,1,2.1368.1825C67.3431,94.8553,67.6716,95.3172,67.5986,96.1416Z"/><path class="cls-1" d="M34.811,124.1452c-4.6251.1891-9.2587-.2022-13.8809.2494a3.7907,3.7907,0,0,1-1.4122-.1769c-1.1345-.3388-1.4014-.8658-1.0129-1.9647a7.971,7.971,0,0,1,.64-1.2821Q25.5236,109.86,31.9166,98.757c1.6252-2.8129,2.4108-2.8232,4.0212-.06Q42.45,109.8689,48.92,121.0652a9.0051,9.0051,0,0,1,.4773.83c.6342,1.4248.296,2.1037-1.1937,2.3982a3.2048,3.2048,0,0,1-.95.0819C43.1122,123.9217,38.9574,124.3149,34.811,124.1452Z"/><path class="cls-1" d="M248.7464.7011Q254.74.6926,260.7341.6869a16.26,16.26,0,0,1,1.9159.046c1.7773.21,2.23.9894,1.367,2.6015-1.13,2.112-2.4043,4.1467-3.5954,6.2267-3.1765,5.5469-6.3294,11.1073-9.5162,16.6483-1.6865,2.9323-2.3948,2.91-4.12-.07Q240.5392,15.3532,234.3,4.5624c-1.8395-3.18-1.4788-3.8195,2.2186-3.8408C240.5947.6981,244.6706.7069,248.7464.7011Z"/><path class="cls-1" d="M284.8852.655q5.997-.0084,11.994-.0132a12.4221,12.4221,0,0,1,1.915.069c1.4249.2233,1.7873.843,1.2908,2.1624a10.42,10.42,0,0,1-.7556,1.4965c-4.1051,7.1379-8.1988,14.2826-12.3466,21.3957-.5707.9788-.8947,2.5045-2.3541,2.4173-1.2573-.0752-1.5751-1.4522-2.1236-2.3975q-6.1386-10.579-12.2524-21.1727C268.415,1.4309,268.808.7013,272.4115.6768,276.5693.6486,280.7273.6607,284.8852.655Z"/><path class="cls-1" d="M302.378,30.0952q-5.5116.008-11.0232.0126c-.7186,0-1.4418.0178-2.1549-.0525-2.1268-.21-2.5556-.9237-1.51-2.8076,2.0533-3.7,4.1982-7.35,6.3088-11.0188q3.2258-5.607,6.459-11.21c.1994-.3459.3887-.7.6123-1.0293,1.1652-1.7187,2.1133-1.7556,3.2073.0652,2.2619,3.7646,4.4171,7.5932,6.6179,11.3945q3.001,5.1834,6.0036,10.3661a14.83,14.83,0,0,1,.9057,1.6872c.5743,1.3811.2048,2.1026-1.3,2.4106a12.27,12.27,0,0,1-2.384.1594C310.2062,30.0924,306.2921,30.09,302.378,30.0952Z"/><path class="cls-1" d="M321.0065,124.9284q5.87-.009,11.74-.0152c.559-.0005,1.12-.02,1.6766.0236,2.0182.1576,2.4445.8408,1.5434,2.6028-.6171,1.2066-1.3609,2.3481-2.0376,3.5247q-5.4942,9.552-10.9883,19.1041c-1.7735,3.0664-2.5122,3.0783-4.2848.0468q-6.3483-10.8566-12.6358-21.7488c-1.5879-2.7515-1.1479-3.49,2.0477-3.5139C312.3808,124.921,316.6937,124.9349,321.0065,124.9284Z"/><path class="cls-1" d="M374.2752,30.0034q-5.5163.007-11.0326.0139c-.4.0005-.8.0041-1.1992-.0053-3.3585-.0791-3.7993-.7882-2.1646-3.6525q5.289-9.2673,10.6338-18.5028c.8768-1.5242,1.7017-3.0818,2.65-4.56.8077-1.2589,1.45-1.2381,2.391-.0546a9.8844,9.8844,0,0,1,.7753,1.2091q6.2564,10.7856,12.5008,21.578c1.7507,3.0363,1.2556,3.8925-2.323,3.9394-4.0767.0534-8.1544.0216-12.2317.0269Z"/><path class="cls-1" d="M124.5733,92.8277c-4.6283.1951-9.2663-.2158-13.89.27a3.77,3.77,0,0,1-1.1867-.1078c-1.4168-.3152-1.7311-.8862-1.21-2.2132a9.8285,9.8285,0,0,1,.6625-1.2733q6.3252-11.0144,12.6619-22.0221c1.6208-2.8061,2.4277-2.82,4.031-.0612q6.4417,11.0858,12.8245,22.2055c.4585.798,1.316,1.6478.6833,2.6167-.6364.9745-1.7894.9187-2.8433.8013C132.4007,92.6083,128.483,93.0045,124.5733,92.8277Z"/><path class="cls-1" d="M338.5933,93.7053q6.2357-.0079,12.4713-.0125a11.02,11.02,0,0,1,1.9125.0877c1.1718.208,1.4631.74,1.0545,1.88a9.5457,9.5457,0,0,1-.7577,1.493q-6.3278,11.0208-12.6652,22.0361c-.08.1386-.1521.2816-.2368.417-1.3624,2.1785-2.2172,2.2019-3.5353-.0578q-6.7052-11.4952-13.3253-23.04c-1.1377-1.9813-.7023-2.7287,1.6517-2.7609,4.4761-.0613,8.9535-.0277,13.43-.0334Z"/><path class="cls-1" d="M105.7046,125.6862q6.227-.0088,12.4539-.0158c.4789-.0005.96-.0174,1.4364.0217,1.9064.1566,2.3056.7674,1.3834,2.4422-1.809,3.2854-3.7172,6.5163-5.5858,9.7689-2.5049,4.36-4.9947,8.7286-7.5225,13.0753-1.7686,3.0412-2.478,3.0379-4.2814-.0571q-6.4492-11.0684-12.84-22.1712a5.71,5.71,0,0,1-.5921-1.2989,1.1583,1.1583,0,0,1,.9491-1.6145,10.0211,10.0211,0,0,1,1.9051-.1286Q99.3579,125.6851,105.7046,125.6862Z"/><path class="cls-1" d="M15.8551,155.2657q-5.3884.007-10.777.0119c-.7182,0-1.4408.0191-2.1538-.0492-2.3937-.2293-2.8612-1.0157-1.696-3.0621q6.4567-11.34,12.9827-22.6405a7.0076,7.0076,0,0,1,.3658-.6177c1.0946-1.5192,1.8744-1.5693,2.868.0347,1.6382,2.645,3.1379,5.3755,4.7065,8.0638,2.7756,4.7567,5.5714,9.5016,8.3346,14.2654,1.68,2.8957,1.1936,3.752-2.1776,3.9517q-.2389.0141-.4787.0148-5.9872.0089-11.9745.016Z"/><path class="cls-1" d="M410.5867,93.6125q6.11-.0084,12.22-.0139a13.7066,13.7066,0,0,1,1.9139.0583c1.1658.1647,1.4986.7165,1.1112,1.8475a8.9022,8.9022,0,0,1-.7681,1.4859q-6.2538,10.9116-12.5227,21.8144c-1.784,3.0867-2.5358,3.1136-4.3242.0674-4.3259-7.3681-8.5885-14.7734-12.8669-22.1693a6.61,6.61,0,0,1-.5687-1.3115,1.1419,1.1419,0,0,1,.964-1.5976,10.543,10.543,0,0,1,2.1417-.1581C402.12,93.6173,406.3535,93.6183,410.5867,93.6125Z"/><path class="cls-1" d="M446.0606,31.6463c4.0731-.0048,8.1462-.0159,12.2193-.01a10.0263,10.0263,0,0,1,2.1435.1353,1.3289,1.3289,0,0,1,1.0644,1.9687,10.7791,10.7791,0,0,1-.8645,1.7054q-6.1239,10.7091-12.2612,21.4107c-1.787,3.1134-2.6376,3.1038-4.4668-.0621q-6.0518-10.4741-12.0776-20.963c-2.0114-3.5-1.6142-4.1555,2.5028-4.1688Q440.19,31.6438,446.0606,31.6463Z"/><path class="cls-1" d="M374.4952,31.7393q5.9862-.0078,11.9723-.0116a10.0921,10.0921,0,0,1,1.9083.0963c1.3272.2583,1.7451.9983,1.2655,2.2554a13.9076,13.9076,0,0,1-1.0075,1.9c-3.9687,6.9225-7.9254,13.8519-11.9327,20.7519-.5752.99-.887,2.5272-2.24,2.5662-1.3817.04-1.7309-1.4812-2.3109-2.477q-6.1449-10.55-12.2319-21.1338c-.16-.2764-.3234-.5508-.4716-.8334-1.1542-2.2-.6834-3.0415,1.8792-3.0763,4.3891-.06,8.7795-.0262,13.1693-.0319Z"/><path class="cls-1" d="M64.7339,92.9468q-11.6235.0152-23.2469.04c-1.0342.0038-2.0725.2516-3.1006.2044-2.0725-.0952-2.5372-.9557-1.62-2.7948.1424-.2857.315-.5563.4743-.8335q6.3306-11.0169,12.6663-22.0309c1.6326-2.8281,2.3476-2.8219,3.99-.0029Q60.2337,78.4043,66.5482,89.292c.12.2072.2347.4181.3465.63C68.1185,92.245,67.43,93.2835,64.7339,92.9468Z"/><path class="cls-1" d="M87.8257,32.5892q6.1167-.0087,12.2334-.014a13.24,13.24,0,0,1,1.9156.0613c1.2642.1855,1.6337.8208,1.215,2.0188a6.4853,6.4853,0,0,1-.5469,1.0644q-6.3484,11.0109-12.707,22.0159c-1.857,3.2034-2.5358,3.1967-4.4058-.02Q79.3235,47.0372,73.1462,36.3424c-.04-.0692-.0821-.1373-.12-.2075-1.5086-2.7658-1.0849-3.5036,2.0869-3.5235C79.35,32.5849,83.588,32.5953,87.8257,32.5892Z"/><path class="cls-1" d="M100.8388,92.8957c-7.5955.01-15.191.0093-22.7865.0407-1.1148.0046-2.23.2384-3.3434.2309-2.4476-.0165-3.0784-1.0069-1.9043-3.1375,1.775-3.2212,3.6736-6.3743,5.5106-9.5614,2.4762-4.296,4.9279-8.6063,7.4207-12.8925,1.6567-2.8485,2.3975-2.8654,4.0018-.1056q6.27,10.7859,12.5058,21.5919c.16.2768.3122.5585.4649.84.4141.7625,1.0936,1.5388.5253,2.4282C102.7007,93.1642,101.7138,93.0719,100.8388,92.8957Z"/><path class="cls-1" d="M535.8968,60.6493q-6.2293.008-12.4588.0122a10.3112,10.3112,0,0,1-1.9094-.0973c-1.1308-.2153-1.4592-.8034-1.0718-1.9111a10.4155,10.4155,0,0,1,.86-1.7081q6.2091-10.7984,12.4344-21.5873c1.795-3.1054,2.4025-3.11,4.2069.0031q6.2469,10.7762,12.4459,21.58c1.8091,3.1516,1.4951,3.6909-2.0482,3.6964q-6.23.01-12.4588.0164Z"/><path class="cls-1" d="M34.0217,125.7784q6.2284-.0084,12.457-.0137a12.0426,12.0426,0,0,1,1.9123.0675c1.1261.182,1.4864.7987,1.1086,1.8852a9.08,9.08,0,0,1-.7764,1.4815Q42.46,140.1019,36.1876,151c-1.7892,3.1048-2.4752,3.103-4.2486.0379q-6.237-10.78-12.4748-21.56c-1.8034-3.1241-1.4971-3.66,2.1-3.6794C25.717,125.7767,29.8693,125.7841,34.0217,125.7784Z"/><path class="cls-1" d="M177.272,123.8516c-4.151.0054-8.3023.0418-12.453.0062-3.282-.0281-3.5769-.5685-1.94-3.4415q6.162-10.8183,12.3594-21.6166c1.8778-3.2682,2.4239-3.2824,4.3093-.0476q6.33,10.86,12.5854,21.7627c1.42,2.4712.9965,3.2366-1.9291,3.29-4.3092.0789-8.6209.03-12.9315.0356Z"/><path class="cls-1" d="M607.8371,184.8766q-6.11.0088-12.22.0152a15.8643,15.8643,0,0,1-1.6761-.032c-1.6245-.1718-2.0334-.8926-1.3941-2.4487a10.9289,10.9289,0,0,1,.6739-1.2681q6.1535-10.6921,12.3139-21.3805c1.8245-3.1618,2.5584-3.1613,4.4232.044q6.264,10.767,12.49,21.5562c1.6407,2.8412,1.2928,3.4737-1.9124,3.4922C616.3031,184.88,612.07,184.8706,607.8371,184.8766Z"/><path class="cls-1" d="M392.5085,123.233q-6.2253.01-12.4506.0143a11.1575,11.1575,0,0,1-1.91-.0861c-1.17-.2048-1.47-.7321-1.0693-1.8685a10.6774,10.6774,0,0,1,.85-1.7108q6.1236-10.7,12.2639-21.39c1.8505-3.2175,2.6068-3.241,4.4175-.123q6.3111,10.8681,12.588,21.7561c.08.1381.1506.2814.227.4216,1.2654,2.3244.9362,2.93-1.7481,2.9573C401.288,123.2482,396.8982,123.2256,392.5085,123.233Z"/><path class="cls-1" d="M141.6971,63.7191q6.111-.0079,12.222-.0137a14.6385,14.6385,0,0,1,1.9145.0543c1.1864.1568,1.5354.678,1.1758,1.8065a9.0908,9.0908,0,0,1-.8406,1.7154q-6.0842,10.597-12.1866,21.1835c-2.0923,3.6237-2.6612,3.6182-4.76.0148q-6.0286-10.3524-12.0381-20.7158c-.5772-1.0009-1.6749-2.0653-.9688-3.271.7606-1.2986,2.24-.8177,3.5-.8081,3.9936.03,7.9877.0028,11.9817-.0024Z"/><path class="cls-1" d="M302.7624,156.1529q6.1176-.01,12.2353-.0149a13.0158,13.0158,0,0,1,1.9158.063c1.3016.1943,1.6784.7714,1.2509,1.99a13.1992,13.1992,0,0,1-1.0581,2.1463q-6.08,10.6139-12.18,21.2165c-1.6164,2.8168-2.4129,2.8413-4.0179.0859q-6.1573-10.57-12.3029-21.1468c-.1608-.2764-.3112-.5588-.4659-.8387-1.4879-2.6927-1.0953-3.446,1.908-3.4743C294.2854,156.14,298.524,156.16,302.7624,156.1529Z"/><path class="cls-1" d="M230.4879,30.1892q-5.3978.0066-10.7956.0125c-.64,0-1.2814.0165-1.9186-.0277-2.4351-.169-2.898-.9064-1.7075-3.0136,3.4214-6.0557,6.9058-12.0758,10.3674-18.1088.8753-1.5256,1.7266-3.0663,2.6446-4.5659,1.3282-2.17,2.2323-2.1832,3.5563.0618,3.574,6.06,7.0846,12.1578,10.62,18.2406.7232,1.2442,1.4788,2.471,2.1636,3.7361,1.4015,2.59.92,3.5171-1.9766,3.6091-2.8762.0915-5.757.0407-8.6357.05C233.3668,30.188,231.9273,30.1875,230.4879,30.1892Z"/><path class="cls-1" d="M266.633,30.1421q-5.76.0065-11.52.0133c-.48,0-.9611.007-1.44-.0222-2.5657-.1559-2.9672-.8571-1.6579-3.1541q6.4169-11.2567,12.8977-22.4768a7.1928,7.1928,0,0,1,.51-.8121c.9105-1.1849,1.5473-1.227,2.471-.11a11.6239,11.6239,0,0,1,1.0495,1.6042q6.07,10.4873,12.1259,20.9825c.24.4155.4945.8256.6967,1.2593.7542,1.6173.3731,2.4417-1.459,2.5784-2.3085.1722-4.6353.1085-6.9543.1263C271.1131,30.1482,268.873,30.14,266.633,30.1421Z"/><path class="cls-1" d="M69.9487,63.8114q5.9857-.0078,11.9717-.0139a17.8122,17.8122,0,0,1,1.9137.0412c1.488.16,1.8284.698,1.3151,2.049a9.2516,9.2516,0,0,1-.6557,1.2746Q78.198,78.1774,71.8891,89.1849c-1.714,2.9767-2.3,2.9619-4.0407-.0336q-6.1326-10.5564-12.2372-21.129c-.24-.4144-.4829-.8275-.7056-1.251-1.1733-2.231-.8364-2.8941,1.6349-2.9228,4.4689-.052,8.9387-.0246,13.4082-.03Z"/><path class="cls-1" d="M320.5294,123.6718q-5.9851.0057-11.97.0135c-.3191,0-.6388.0015-.9574-.0148-2.6151-.1338-2.8963-.6776-1.5252-3.0649q5.0063-8.7176,10.0383-17.42c1.1162-1.9349,2.1939-3.8941,3.3741-5.7894,1.0825-1.7384,1.577-1.7424,2.6416.0373,3.1536,5.272,6.2515,10.5774,9.3648,15.8735,1.4151,2.4073,2.84,4.8091,4.2149,7.2394,1.26,2.2274.8543,2.997-1.7746,3.0615-3.988.0978-7.98.05-11.97.0637Q321.2477,123.6738,320.5294,123.6718Z"/><path class="cls-1" d="M392.5588,124.8355q6.114-.0083,12.228-.0146c.5592,0,1.1222-.02,1.6771.0341,1.6289.16,1.9042.6463,1.2637,2.224a10.4825,10.4825,0,0,1-.658,1.2771q-6.35,11.004-12.7071,22.0037c-.16.2767-.303.5656-.4876.8248-1.03,1.4468-1.7105,1.48-2.74.0978a16.7943,16.7943,0,0,1-1.0034-1.6326q-6.0754-10.47-12.145-20.9443c-1.8962-3.2717-1.5961-3.8319,2.105-3.85C384.247,124.8346,388.403,124.841,392.5588,124.8355Z"/><path class="cls-1" d="M231.0771,156.4359c4.1575-.0054,8.3183-.1155,12.4715.016,3.53.1116,3.7589.6119,2.0463,3.6027q-6.2568,10.9264-12.5638,21.824a7.5375,7.5375,0,0,1-.7864,1.2011c-.7733.89-1.4338.9089-2.1883.0275a10.57,10.57,0,0,1-1.0425-1.6065q-6.1268-10.5861-12.2385-21.1807c-1.64-2.8477-1.0884-3.829,2.3078-3.8947,3.9967-.0773,7.9957-.0272,11.9937-.0324Z"/><path class="cls-1" d="M230.9432,31.9248q6.24-.0083,12.48-.0114a11.1351,11.1351,0,0,1,1.9108.1145,1.1468,1.1468,0,0,1,1.0017,1.5841,10.6418,10.6418,0,0,1-.9727,2.1779q-6.0181,10.5164-12.0734,21.0116c-1.8934,3.2831-2.7261,3.2763-4.6045.0256q-6.1821-10.6989-12.37-21.3946c-1.6567-2.8754-1.3329-3.4639,1.9087-3.4855C222.4634,31.9187,226.7034,31.93,230.9432,31.9248Z"/><path class="cls-1" d="M517.8488,29.9533q-5.6289.0083-11.258.0151c-.479.0006-.9581.0041-1.4372,0-3.1706-.0283-3.3717-.3456-1.8566-3.0245,1.2182-2.1539,2.4638-4.2922,3.698-6.437q4.7178-8.199,9.4395-16.3959c1.3486-2.3339,2.014-2.3805,3.378-.0525,4.4392,7.5761,8.8183,15.1874,13.2122,22.79a6.4761,6.4761,0,0,1,.5863,1.3061,1.1553,1.1553,0,0,1-.9245,1.6285,10.4643,10.4643,0,0,1-2.1426.1476C526.3123,29.9476,522.0805,29.9471,517.8488,29.9533Z"/><path class="cls-1" d="M428.3063,62.8692q5.9937-.0078,11.9876-.0139a13.891,13.891,0,0,1,1.6765.04c1.594.1932,2.0191.9542,1.4009,2.4933a10.3155,10.3155,0,0,1-.67,1.2708q-6.2164,10.8034-12.441,21.602c-1.6468,2.8518-2.3461,2.8664-3.981.052q-6.3208-10.8813-12.6033-21.7852c-.16-.2767-.3278-.55-.4668-.8375-.8874-1.8331-.4129-2.728,1.6716-2.7634,4.4741-.0761,8.95-.0331,13.4255-.0389Z"/><path class="cls-1" d="M357.3144,62.9622c3.8367-.005,7.6734-.0157,11.51-.0092a8.5593,8.5593,0,0,1,1.9051.1385,1.2836,1.2836,0,0,1,1.0683,1.7851,7.5915,7.5915,0,0,1-.6717,1.5289q-6.579,11.4271-13.1869,22.8375c-1.3336,2.2964-1.52,2.3056-2.8588.0122q-6.4044-10.9742-12.7246-21.9971c-1.73-3.0278-1.0188-4.2162,2.4894-4.264,4.1557-.0566,8.3127-.0228,12.4691-.0281Z"/><path class="cls-1" d="M105.9417,63.7655q6.1182-.0075,12.2365-.0119a13.956,13.956,0,0,1,1.9142.0865c.9876.1376,1.4131.7154,1.0435,1.6934a12.0076,12.0076,0,0,1-.8245,1.7274q-6.3342,11.0235-12.6887,22.0355a8.6819,8.6819,0,0,1-.6344,1.0164c-.9873,1.2679-1.6876,1.3083-2.571-.095-1.49-2.3666-2.8364-4.8234-4.2385-7.2451q-4.4472-7.681-8.89-15.3642c-1.8574-3.2043-1.5237-3.8082,2.1769-3.8242C97.624,63.7663,101.7828,63.7707,105.9417,63.7655Z"/><path class="cls-1" d="M589.7806,153.7c-4.0762.0051-8.1523.0164-12.2285.01a11.1967,11.1967,0,0,1-2.1458-.1363,1.1745,1.1745,0,0,1-.9691-1.7755,18.562,18.562,0,0,1,1.0841-2.1326q6.1443-10.708,12.3051-21.4067c.08-.1385.1449-.2854.2276-.422,1.3911-2.2974,2.0257-2.31,3.4006.0467q6.463,11.0775,12.8771,22.1834a7.3822,7.3822,0,0,1,.6487,1.28c.436,1.2789.0171,2.0231-1.2982,2.2519a11.415,11.415,0,0,1-1.9129.0827Q595.775,153.6986,589.7806,153.7Z"/><path class="cls-1" d="M103.438,158.1582a3.2816,3.2816,0,0,1-.6,1.547Q96.0333,171.542,89.211,183.3688a6.76,6.76,0,0,1-.6889.9767c-.3731.4421-.8133.5071-1.1976.0281a11.1824,11.1824,0,0,1-.948-1.3764q-6.6727-11.4981-13.3284-23.006a7.1322,7.1322,0,0,1-.4382-.8516c-.6117-1.4882-.2838-2.0184,1.356-2.1826.396-.04.7978-.029,1.197-.0295q12.698-.0189,25.3959-.03a12.7521,12.7521,0,0,1,1.9087.1092A1.033,1.033,0,0,1,103.438,158.1582Z"/><path class="cls-1" d="M213.23,63.1467q5.9855-.0083,11.9709-.0141a16.0653,16.0653,0,0,1,1.9132.0435c1.4454.1735,1.7391.718,1.1748,2.1225a10.47,10.47,0,0,1-.6528,1.2778q-6.2434,10.906-12.5007,21.8042c-1.5525,2.6935-2.5209,2.7018-4.12-.0335-4.2681-7.3015-8.484-14.6334-12.714-21.9571a6.38,6.38,0,0,1-.6121-1.2956c-.33-1.0808.0345-1.67,1.18-1.8553a12.2187,12.2187,0,0,1,1.911-.0734Q207.0051,63.15,213.23,63.1467Z"/><path class="cls-1" d="M16.1075,157.0013q5.985-.0082,11.97-.0143a18.8884,18.8884,0,0,1,1.9137.0378c1.6351.1658,1.9847.7266,1.3872,2.1927a10.719,10.719,0,0,1-.6617,1.2736Q24.574,171.178,18.422,181.86c-1.8383,3.187-2.6159,3.2236-4.4518.0834C9.7019,174.6422,5.4859,167.311,1.2534,159.99a8.064,8.064,0,0,1-.6421-1.2807,1.0631,1.0631,0,0,1,.9-1.5825,11.3572,11.3572,0,0,1,1.9074-.1043Q9.7633,157.0022,16.1075,157.0013Z"/><path class="cls-1" d="M177.27,185.7741c-3.9969.0066-7.9939.0185-11.9908.0107a14.9116,14.9116,0,0,1-2.1484-.1417,1.0282,1.0282,0,0,1-.9013-1.56,16.1268,16.1268,0,0,1,1.0327-2.1553q5.9658-10.3981,11.9587-20.7808c2.012-3.49,2.5582-3.4916,4.5934.0012Q185.9107,171.61,191.99,182.081c1.71,2.9485,1.3467,3.63-2.01,3.6657C185.7439,185.7915,181.5068,185.7671,177.27,185.7741Z"/><path class="cls-1" d="M248.9826,63.1012q5.9867-.0076,11.9732-.0118a10.3088,10.3088,0,0,1,1.9093.0912,1.4265,1.4265,0,0,1,1.2391,2.0964,9.2538,9.2538,0,0,1-.8554,1.705q-6.0625,10.5984-12.1374,21.19c-.04.0693-.0767.14-.118.2084-1.627,2.6913-2.5022,2.6972-4.1081-.0692q-6.25-10.7667-12.4487-21.5634c-.12-.2073-.2432-.413-.35-.627-1.0824-2.1682-.6671-2.9523,1.7258-2.9817,4.39-.0539,8.78-.025,13.17-.0307Z"/><path class="cls-1" d="M248.6925,185.6838q-5.8671.0078-11.7343.0138c-.4788,0-.9606.0106-1.4358-.036-1.8806-.1846-2.2652-.7882-1.3353-2.4936,1.7187-3.1522,3.5512-6.2424,5.343-9.3547,2.5882-4.4957,5.1554-9.0039,7.7842-13.4758,1.5093-2.5675,2.2674-2.58,3.7434-.049q6.3326,10.8579,12.5848,21.7627a6.2078,6.2078,0,0,1,.6047,1.2987c.356,1.1955.0072,1.8651-1.2019,2.129a11.5164,11.5164,0,0,1-2.3789.1818C256.6752,185.6822,252.6838,185.6785,248.6925,185.6838Z"/><path class="cls-1" d="M284.9991,185.6341c-4.16.0051-8.32.0389-12.48.0068-3.3429-.0259-3.6037-.491-1.9462-3.3839q6.3816-11.1379,12.7974-22.2563c.1595-.2772.3266-.5509.5056-.8158,1.0654-1.5759,1.4654-1.5893,2.4675.1291q6.708,11.5037,13.3554,23.0427a5.6325,5.6325,0,0,1,.5831,1.3086,1.2713,1.2713,0,0,1-.91,1.6909,7.1514,7.1514,0,0,1-2.3739.26Q290.999,185.6322,284.9991,185.6341Z"/><path class="cls-1" d="M482.0147,91.9194q-5.8788.0084-11.7575.015c-.56.0005-1.1217.02-1.6792-.0182-1.9353-.133-2.1983-.6118-1.3613-2.4418.1327-.29.2848-.5732.4448-.85q6.6073-11.4206,13.2191-22.8387c.08-.1384.16-.2774.2483-.4106.948-1.4272,1.4017-1.445,2.3658.0683.9874,1.55,1.88,3.1609,2.8047,4.7506q5.1864,8.917,10.3634,17.84c1.8718,3.2346,1.5275,3.8454-2.1707,3.8651C490.333,91.921,486.1739,91.9135,482.0147,91.9194Z"/><path class="cls-1" d="M177.58,125.5928q5.997-.0082,11.994-.0149c.56-.0005,1.1216-.0192,1.6785.0225,1.7171.1287,2.0494.5841,1.2912,2.0982-.8576,1.7127-1.8811,3.3424-2.8345,5.0071q-5.0657,8.8446-10.1331,17.6883-.1192.2082-.2418.4143c-1.6674,2.7914-2.39,2.8051-4.0269-.0156q-6.3787-10.9944-12.7123-22.0149a8.0109,8.0109,0,0,1-.6476-1.2808,1.1911,1.1911,0,0,1,1.009-1.7633,12.4241,12.4241,0,0,1,2.15-.12Q171.3431,125.5915,177.58,125.5928Z"/><path class="cls-1" d="M213.2267,185.7306q-5.7561.0076-11.5121.0117a16.4883,16.4883,0,0,1-2.1547-.0773c-1.6246-.2155-1.9-.7446-1.2288-2.2534a11.7118,11.7118,0,0,1,.58-1.0484q6.2088-10.8134,12.425-21.6222c1.748-3.0254,2.2959-3.0252,4.0457-.02q6.2745,10.7751,12.5056,21.5755a9.7644,9.7644,0,0,1,.5709,1.0535c.6134,1.4436.2765,2.0477-1.3254,2.2748a15.7391,15.7391,0,0,1-2.1541.0875Q219.1027,185.73,213.2267,185.7306Z"/><path class="cls-1" d="M195.6512,94.37q6.2258-.0087,12.4516-.0145c.5582,0,1.1175.0113,1.6745.0457.978.06,1.26.6425.9281,1.4737a16.7971,16.7971,0,0,1-1.1076,2.1181q-6.159,10.68-12.33,21.3533c-1.7271,2.9914-2.3972,3.014-4.0936.1008q-6.2645-10.758-12.513-21.5253c-1.7136-2.9575-1.3892-3.5109,2.06-3.53C187.0308,94.3674,191.341,94.376,195.6512,94.37Z"/><path class="cls-1" d="M159.4756,156.8163q6.1131-.0079,12.2261-.0132a11.9873,11.9873,0,0,1,1.9136.0692c1.2817.2086,1.6451.8531,1.0262,2.03-.9289,1.7661-1.9894,3.4628-2.9827,5.1955q-5.0664,8.8366-10.1286,17.6758c-1.7719,3.0779-2.4179,3.0623-4.2361-.0649q-6.0832-10.4635-12.1487-20.9376c-1.8962-3.2806-1.5088-3.92,2.3439-3.9366C151.4847,156.8173,155.48,156.8214,159.4756,156.8163Z"/><path class="cls-1" d="M195.4073,156.7707q6.1081-.008,12.2165-.0117a10.106,10.106,0,0,1,1.9087.1c1.153.2238,1.504.8231.9835,1.901-.6926,1.4344-1.5346,2.7976-2.329,4.1819q-5.3642,9.3469-10.74,18.6875c-1.84,3.1932-2.52,3.1853-4.387-.0481q-6.167-10.681-12.32-21.37c-.12-.2075-.2572-.4058-.3625-.62-.916-1.8632-.47-2.7346,1.6162-2.7689,4.47-.0736,8.9424-.0323,13.4138-.0381Z"/><path class="cls-1" d="M374.2812,153.9785q-5.8718.0084-11.7433.015c-.5592,0-1.12.0208-1.6771-.0186-1.9121-.1355-2.2842-.7491-1.3348-2.431,2.0022-3.5471,4.076-7.0537,6.11-10.5831q3.23-5.6052,6.441-11.2213c.1591-.2771.328-.5485.4939-.8215,1.6028-2.6381,2.4161-2.6621,3.9282-.068,2.4537,4.2091,4.88,8.434,7.3228,12.6494,1.6418,2.8334,3.296,5.6595,4.9355,8.4943a17.4882,17.4882,0,0,1,1.1259,2.1119,1.1572,1.1572,0,0,1-.99,1.7512,11.343,11.343,0,0,1-1.91.101Q380.6322,153.9773,374.2812,153.9785Z"/><path class="cls-1" d="M159.1792,32.0161q6.2316-.0073,12.463-.013a11.97,11.97,0,0,1,1.9132.0687c1.1214.1827,1.4724.7869,1.1058,1.8916a8.4042,8.4042,0,0,1-.757,1.4912q-6.3342,11.0073-12.6783,22.009c-.12.2076-.24.4154-.3718.6153-1.1634,1.7629-1.73,1.7758-2.8306-.1071q-6.83-11.6892-13.6-23.4139a4.9513,4.9513,0,0,1-.4243-.8576c-.3508-1.0231-.0855-1.5292,1.042-1.6,1.6718-.1048,3.3532-.0651,5.0306-.071C153.1076,32.0186,156.1434,32.02,159.1792,32.0161Z"/><path class="cls-1" d="M500.1116,60.6962q-6.2331.0077-12.4662.013a18.9733,18.9733,0,0,1-1.9145-.0673c-.9292-.0944-1.2546-.6362-.9227-1.5033a9.1879,9.1879,0,0,1,.6672-1.2712q6.5828-11.4214,13.1715-22.8394c.08-.1384.16-.277.2472-.4107,1.1276-1.7266,1.62-1.7747,2.6733-.0467,1.5379,2.5236,2.966,5.1138,4.4509,7.67q4.214,7.2537,8.4381,14.5014c.2811.4834.5776.9608.8191,1.4639.7869,1.6386.3784,2.3062-1.5,2.45-.5565.0425-1.1181.024-1.6775.0249Q506.1051,60.69,500.1116,60.6962Z"/><path class="cls-1" d="M374.8554,156.538q5.9864-.0081,11.9726-.0143a17.6889,17.6889,0,0,1,1.914.0378c1.2589.1365,1.4913.5444,1.0239,1.7619a9.18,9.18,0,0,1-.66,1.2731q-6.2867,10.8829-12.5832,21.76c-1.5808,2.7266-2.38,2.714-4.013-.0942-2.2865-3.9319-4.5262-7.8911-6.8008-11.83-1.7558-3.0406-3.539-6.0654-5.2992-9.1035a14.4718,14.4718,0,0,1-.9919-1.909c-.44-1.1158-.1335-1.6208,1.0744-1.7957a13.617,13.617,0,0,1,1.912-.0675Q368.63,156.5414,374.8554,156.538Z"/></g></g></svg>