<svg xmlns="http://www.w3.org/2000/svg" width="554.5256" height="311.0582" viewBox="0 0 554.5256 311.0582"><defs><style>.cls-1{fill:#bfbfbf;stroke:#000;stroke-miterlimit:10;}</style></defs><g id="Layer_2" data-name="Layer 2"><g id="Layer_1-2" data-name="Layer 1"><path class="cls-1" d="M475.4856,110.3535c2.1451,3.7493,4.32,7.4819,6.4256,11.2532,1.5728,2.8168,1.1565,3.5509-2.0088,3.5457-8.9569-.0147-17.9138-.0723-26.8707-.1134-.16-.0007-.32,0-.48-.0084-1.9252-.1-2.1459-.4142-1.1407-2.15q7.0327-12.1464,14.1533-24.2418c1.1687-1.9847,1.9832-1.9739,3.2181.0682,1.8208,3.011,3.5254,6.0922,5.2787,9.144q.7173,1.2484,1.43,2.4993Z"/><path class="cls-1" d="M439.964,48.2623Q442.94,53.46,445.9122,58.66a16.118,16.118,0,0,1,.7855,1.4806c.868,1.9739.4882,2.6858-1.6595,2.7084-5.0291.0528-10.0593.0107-15.089-.0084-3.992-.0153-7.984-.0525-11.976-.0832a12.2111,12.2111,0,0,1-1.4355-.0493c-1.2086-.1534-1.4292-.4865-.9725-1.5563a17.8159,17.8159,0,0,1,1.02-1.8978q6.3622-10.9851,12.7363-21.9634c1.7637-3.0311,2.5712-3.0469,4.327-.0438C435.7851,40.9,437.8607,44.5893,439.964,48.2623Z"/><path class="cls-1" d="M8.2815,170.5107c-2.1281-3.6573-4.2873-7.2969-6.3755-10.9768-1.5862-2.795-1.16-3.4777,2.0229-3.4853,8.7-.0209,17.4005-.0611,26.1007-.06,3.2516,0,3.4242.3433,1.7941,3.1953q-6.2979,11.0186-12.612,22.0279c-1.8771,3.2617-2.7383,3.2753-4.6566.0577C12.4292,177.704,10.37,174.099,8.2815,170.5107Z"/><path class="cls-1" d="M1.8619,93.9047c.3816-.0327.9357-.1224,1.49-.1214q13.4258.02,26.8515.063a8.2247,8.2247,0,0,1,.9578.0456c1.8365.2208,2.1543.8247,1.3485,2.5677-.1674.3621-.364.712-.5649,1.0573q-6.3311,10.8789-12.67,21.7532c-1.7152,2.9354-2.64,2.9462-4.3881-.0746-4.324-7.4719-8.5914-14.9765-12.8674-22.4761a9.8028,9.8028,0,0,1-.7522-1.7537C1.1331,94.5652,1.2584,94.18,1.8619,93.9047Z"/><path class="cls-1" d="M528.9777,203.8378q2.9748,5.1977,5.9481,10.3963c.1982.3465.4.6914.5813,1.0471,1.2831,2.525.836,3.2632-2.0637,3.2606q-12.9329-.0114-25.8656-.0679c-.16,0-.32.0115-.479.0027-2.4355-.1349-2.913-.8693-1.7144-2.9715,2.926-5.1318,5.9329-10.2176,8.903-15.3243,1.4048-2.4155,2.7936-4.84,4.2041-7.2522a14.7249,14.7249,0,0,1,1.0642-1.5908,1.155,1.155,0,0,1,2.0079-.0756,13.1867,13.1867,0,0,1,1.34,1.9756C524.94,196.7641,526.9548,200.3034,528.9777,203.8378Z"/><path class="cls-1" d="M546.8518,235.086c2.0658,3.6094,4.1563,7.2051,6.1886,10.8332,1.7131,3.0583,1.3185,3.7424-2.1859,3.7435-8.5555.0027-17.111-.0382-25.6666-.0614-.08,0-.16.0064-.24.0032-2.458-.0976-2.9283-.82-1.7666-2.9425,1.2278-2.2437,2.57-4.4245,3.858-6.6356q4.6476-7.9806,9.2941-15.962c1.6979-2.9018,2.4966-2.9137,4.1942-.0106C542.6674,227.7127,544.7461,231.4072,546.8518,235.086Z"/><path class="cls-1" d="M26.2159,139.0412q-3.0326-5.2994-6.0623-10.6a15.03,15.03,0,0,1-.894-1.6919c-.5464-1.3279-.3024-1.7392,1.1565-1.7954,1.6734-.0644,3.3509-.0274,5.0266-.0245q11.1316.0195,22.2632.0487c3.45.0133,3.81.5978,2.0986,3.5424q-6.4356,11.0728-12.9321,22.11c-.1612.2755-.3162.5568-.5027.8147-1.0778,1.49-1.8008,1.5074-2.9451.0188a16.153,16.153,0,0,1-1.1412-1.8251Q29.242,144.3443,26.2159,139.0412Z"/><path class="cls-1" d="M385.1949,265.6962q2.9184,5.1008,5.8359,10.2019c.238.4164.4846.83.6945,1.26,1.0793,2.2134.7006,2.9644-1.746,2.9925-4.7152.0541-9.4318-.02-14.1478-.0369-3.9967-.0144-7.994.009-11.99-.0452-3.234-.0438-3.647-.762-2.0578-3.4985q6.3228-10.8873,12.6813-21.7537.1814-.3106.37-.6173c1.5-2.457,2.2734-2.4841,3.7817.0624,2.2409,3.783,4.3824,7.6249,6.5662,11.4417Z"/><path class="cls-1" d="M439.526,110.319q2.978,5.2052,5.9551,10.4108c.2379.4164.4812.8316.6884,1.2635,1.0416,2.1712.6055,2.98-1.7992,2.9909-5.995.0279-11.99-.0337-17.9858-.0487-2.638-.0066-5.2761.02-7.9141.0153a9.94,9.94,0,0,1-1.91-.12c-1.1507-.2291-1.4471-.7647-1.0566-1.9132a9.6656,9.6656,0,0,1,.8533-1.7115q6.4624-11.0839,12.9431-22.1572c1.4557-2.4848,2.2752-2.5,3.7731.0392,2.1935,3.7186,4.3011,7.4879,6.4453,11.2356Z"/><path class="cls-1" d="M151.5107,295.2081q-2.86-4.9984-5.7192-9.9971c-.1986-.3471-.4-.6927-.5858-1.0469-1.4481-2.7662-.9881-3.5676,2.1465-3.5626,8.5561.0134,17.1121.0612,25.6682.1a8.1822,8.1822,0,0,1,1.4342.0781c1.1906.2185,1.5144.7132,1.1275,1.8517a10.9358,10.9358,0,0,1-.9649,1.9234q-6.3307,10.8874-12.68,21.7644c-1.5766,2.7017-2.4393,2.7108-4.09-.0852-2.1546-3.65-4.2224-7.3516-6.3275-11.031Z"/><path class="cls-1" d="M259.9756,233.4739c-1.9464-3.4-3.8427-6.8294-5.8514-10.1919-1.9352-3.24-1.4588-4.4273,2.4312-4.3359,8.149.1917,16.3045.1046,24.4572.1529,3.7381.0221,4.0369.5375,2.1574,3.7962q-6.29,10.9053-12.6337,21.7789a6.9183,6.9183,0,0,1-.9824,1.3463,1.3234,1.3234,0,0,1-2.0947.0007,9.1951,9.1951,0,0,1-1.5245-2.14Q262.9482,238.6814,259.9756,233.4739Z"/><path class="cls-1" d="M8.9691,46.0726Q6.2313,41.2875,3.494,36.5017c-.3172-.5548-.6459-1.1044-.9362-1.6733-1.2924-2.5329-.8474-3.3023,2.0215-3.3011q12.9413.0053,25.8823.082c2.929.0169,3.3493.7435,1.9672,3.2469-.6563,1.1886-1.3511,2.356-2.0343,3.53q-5.4257,9.32-10.8578,18.636c-1.6794,2.8719-2.5577,2.905-4.2361.0646-2.1541-3.6454-4.2184-7.3439-6.3213-11.0195Z"/><path class="cls-1" d="M25.6423,77.7421Q28.6218,82.9483,31.6,88.155c.2383.4166.4844.8292.7063,1.2545,1.2147,2.3287.8274,3.0577-1.738,3.0911-3.0379.0393-6.0768.0053-9.1152-.0062q-8.8755-.0337-17.7509-.0779c-.4-.0018-.8023.0173-1.199-.02C1.0717,92.26.7866,91.8269,1.4789,90.55c1.1048-2.0378,2.31-4.0209,3.4756-6.0258q5.2432-9.0219,10.4909-18.0412a7.8535,7.8535,0,0,1,.7938-1.1983c.76-.8809,1.4169-.8882,2.1743.0151a10.9611,10.9611,0,0,1,1.0294,1.615Q22.55,72.3242,25.6423,77.7421Z"/><path class="cls-1" d="M422.3764,140.6389q-3.0387-5.31-6.076-10.6209c-.2381-.4165-.4919-.827-.6929-1.2613-.7741-1.6718-.387-2.3558,1.5162-2.4246,2.2361-.081,4.4768-.0445,6.7155-.0388q10.5543.0268,21.1087.0708c2.7156.011,2.8354.2267,1.4385,2.6245q-6.5805,11.2959-13.1753,22.5835c-1.879,3.2136-2.7241,3.1965-4.6347-.1067C426.4941,147.8656,424.442,144.2484,422.3764,140.6389Z"/><path class="cls-1" d="M421.3778,17.431q3.0972,5.4142,6.1926,10.83a12.7378,12.7378,0,0,1,.8884,1.698c.433,1.127.1444,1.6685-1.0269,1.8777a12.1671,12.1671,0,0,1-2.15.12q-12.9522-.0234-25.9044-.065c-.24-.0006-.48.0069-.7193-.0043-2.2194-.1035-2.419-.4191-1.27-2.4011q6.9164-11.9318,13.8854-23.8328A7.2726,7.2726,0,0,1,411.78,4.84c.8311-1.0691,1.478-1.1059,2.28-.0783a13.6185,13.6185,0,0,1,1.0023,1.6342Q418.2243,11.9107,421.3778,17.431Z"/><path class="cls-1" d="M510.7957,234.8829q2.8539,4.9881,5.7073,9.9765c.2377.4157.48.8294.7022,1.2533,1.414,2.6925.9919,3.4259-2.0024,3.4208q-10.4139-.0181-20.8279-.06c-1.8354-.0054-3.6719.0311-5.5058-.0222-2.3633-.0686-2.7751-.7091-1.66-2.754,1.3367-2.4509,2.8018-4.8316,4.208-7.2447q4.52-7.7565,9.0393-15.5131c1.65-2.8189,2.3927-2.8438,4.0221-.0636,2.1387,3.65,4.2108,7.3382,6.3116,11.01Z"/><path class="cls-1" d="M422.7677,78.4971q-2.9154-5.0938-5.8288-10.1888c-.3168-.5545-.6582-1.0994-.9233-1.6784-.79-1.7255-.4354-2.3787,1.3876-2.5705a15.6361,15.6361,0,0,1,1.6752-.0393q12.2143.0324,24.4288.0743c4.1838.0186,4.4545.5155,2.3539,4.1186q-6.1518,10.5522-12.3,21.107c-1.9292,3.2943-2.6959,3.2852-4.6033-.0132C426.88,85.7123,424.83,82.1008,422.7677,78.4971Z"/><path class="cls-1" d="M61.3376,140.1325q3.1546,5.5139,6.3058,11.03a9.6609,9.6609,0,0,1,.8572,1.7092c.3588,1.0923-.0167,1.6636-1.1689,1.8617a8.3411,8.3411,0,0,1-1.4342.0524q-12.9417-.047-25.8835-.1006c-.16-.0006-.32.0071-.4793-.0014-2.4185-.1289-2.9213-.9056-1.7741-2.9929,1.4234-2.5895,2.9593-5.1171,4.4451-7.6723Q46.5428,136.56,50.878,129.1c.1606-.2762.3027-.5645.48-.8295,1.1751-1.7569,2.1-1.7976,3.1694.0168,2.3125,3.9234,4.5392,7.8973,6.801,11.8505Z"/><path class="cls-1" d="M79.8325,232.7553q-2.7349-4.78-5.4692-9.5605c-.3168-.5542-.6457-1.1031-.9342-1.6719-1.247-2.4583-.8333-3.2293,1.849-3.2285q12.927.0039,25.8537.09c3.2794.025,3.6254.6559,2.0043,3.4617q-6.3476,10.9856-12.7449,21.9422c-1.666,2.85-2.5412,2.8494-4.2369-.0292-2.1468-3.6445-4.2126-7.3367-6.3133-11.0083Z"/><path class="cls-1" d="M27.2151,15.1344q-2.6823-4.6842-5.3618-9.37c-.3175-.5554-.6446-1.106-.9407-1.6727C19.4906,1.3714,20.009.4933,23.1149.5,31.59.5185,40.0642.57,48.5389.609c.32.0015.6411-.0085.9592.0175,1.8866.1545,2.3136.777,1.4583,2.4629-.9028,1.7793-1.9811,3.47-2.9862,5.197q-5.0068,8.603-10.0211,17.2016c-2.0051,3.4194-2.8136,3.4258-4.7712.0544C31.17,22.0847,29.2019,18.6043,27.2151,15.1344Z"/><path class="cls-1" d="M493.5175,17.1757c2.101,3.6755,4.2255,7.3377,6.2991,11.0286,1.747,3.11,1.3693,3.7782-2.1044,3.7739q-12.698-.0156-25.3959-.07c-.24-.0006-.48.013-.7187-.003-2.2035-.1483-2.6062-.7849-1.5175-2.6962,2.7272-4.788,5.5151-9.5413,8.2848-14.305q2.6493-4.5566,5.3183-9.1017a11.5245,11.5245,0,0,1,.9056-1.4052.8235.8235,0,0,1,1.4175-.0248,13.8,13.8,0,0,1,1.2,1.7822Q490.3771,11.6564,493.5175,17.1757Z"/><path class="cls-1" d="M205.6992,78.5882q2.6756,4.6764,5.35,9.3531c.3169.5544.6439,1.104.934,1.6724,1.4065,2.7556.9362,3.57-2.1606,3.5655q-12.9276-.0165-25.8549-.0983a7.84,7.84,0,0,1-1.4268-.118,1.0567,1.0567,0,0,1-.8871-1.5858,11.52,11.52,0,0,1,.8371-1.7174q6.3681-10.9745,12.758-21.9363c1.631-2.793,2.5557-2.7943,4.2456.0692,2.1094,3.5741,4.134,7.1983,6.1951,10.8008Z"/><path class="cls-1" d="M433.7465,95.38c.3251-.0251.7992-.0941,1.2733-.0934,9.195.0143,18.39.0161,27.585.0716,2.4008.0145,2.87.8637,1.6386,2.9989q-6.6507,11.5322-13.4,23.0074c-1.2671,2.1529-2.2938,2.1226-3.5914-.1215-4.5637-7.8925-9.071-15.8176-13.5936-23.7337a6.8067,6.8067,0,0,1-.4929-1.0885C433.0087,95.98,433.1854,95.6526,433.7465,95.38Z"/><path class="cls-1" d="M187.4284,295.158q-2.9128-5.0912-5.8247-10.1829c-.2374-.4156-.4819-.8294-.6867-1.2612-1.0247-2.16-.5794-2.9762,1.8165-2.985,6.0636-.0225,12.1274.0437,18.1912.0662,2.5531.0094,5.1062-.0084,7.6592.001a15.1451,15.1451,0,0,1,1.9091.1055c.99.13,1.4185.6911,1.0585,1.6758a9.5718,9.5718,0,0,1-.7143,1.51q-6.4331,11.0724-12.8919,22.13c-1.6791,2.86-2.5052,2.8452-4.2025-.0538-2.137-3.65-4.21-7.3371-6.31-11.0083Z"/><path class="cls-1" d="M98.2456,16.1607q3.1548,5.5143,6.307,11.03a10.74,10.74,0,0,1,.8744,1.7022c.3816,1.086.0069,1.65-1.172,1.8192a11.7365,11.7365,0,0,1-1.6759.0528q-13.1824-.0168-26.3651-.04c-.08,0-.16-.0025-.24-.0048-2.5232-.0739-2.7268-.3681-1.4415-2.5925q6.8351-11.829,13.742-23.6163a6.0408,6.0408,0,0,1,.6546-1c.6982-.7832,1.3319-.7959,1.983.0034a11.8737,11.8737,0,0,1,1.0207,1.6194Q95.0959,10.6435,98.2456,16.1607Z"/><path class="cls-1" d="M475.9,234.19q-2.9793-5.2062-5.9573-10.4132c-.2778-.486-.5759-.9635-.8122-1.47-.8594-1.8389-.4791-2.5469,1.4985-2.6266,1.6764-.0675,3.3577-.0126,5.0368-.0067q10.5547.0375,21.11.08c3.733.0165,4.103.63,2.264,3.7939q-6.328,10.8883-12.6775,21.7644a12.2573,12.2573,0,0,1-.7447,1.23c-.8637,1.146-1.5841,1.1848-2.4932.0941a11.1588,11.1588,0,0,1-1.025-1.6183Q478.9928,239.6076,475.9,234.19Z"/><path class="cls-1" d="M223.0594,234.3117q3.0367,5.3077,6.0732,10.6157c.1983.347.4054.69.5852,1.0463.9874,1.9583.6266,2.6606-1.5215,2.722-2.2358.0638-4.475.0087-6.7126.0059-6.4734-.0084-12.9469.0079-19.42-.0344-3.6594-.0239-4.0283-.7135-2.1851-3.8748q6.2193-10.6667,12.4581-21.322c1.9712-3.3557,2.5943-3.3416,4.528.0189Q219.9744,228.8934,223.0594,234.3117Z"/><path class="cls-1" d="M270.6,254.85c3.8741,6.7712,7.716,13.4767,11.5445,20.19a16.8061,16.8061,0,0,1,1.29,2.5591c.5756,1.5947.1462,2.2136-1.5108,2.3929a10.7481,10.7481,0,0,1-1.1951.0429q-12.3267-.0452-24.6535-.1008a13.1679,13.1679,0,0,1-2.1475-.1233c-1.2476-.2133-1.6375-.8629-1.2289-2.042a9.9039,9.9039,0,0,1,.8669-1.7033q6.156-10.5416,12.3257-21.0749c.04-.0688.0839-.1358.1284-.2019.6068-.9014.9589-2.2391,2.3164-2.1255C269.5746,252.7666,270.0005,254.0138,270.6,254.85Z"/><path class="cls-1" d="M349.4144,79.4589c1.9817,3.4635,3.9782,6.9188,5.9409,10.3931,1.9379,3.43.6441,3.9523-2.358,3.9095-8.5364-.1218-17.0751-.0711-25.6127-.1208-3-.0175-3.1255-.2594-1.5892-2.9069q6.488-11.18,13.0149-22.3374a10.9989,10.9989,0,0,1,.7869-1.1989,1.3921,1.3921,0,0,1,2.2628-.1963,8.0589,8.0589,0,0,1,1.7321,2.2724q2.9164,5.09,5.8271,10.1825Z"/><path class="cls-1" d="M25.3736,140.0992q3.0339,5.303,6.0659,10.6071a13.1068,13.1068,0,0,1,.8928,1.6933c.5,1.2838.0982,1.9725-1.2616,2.2054a8.4148,8.4148,0,0,1-1.4326.0519q-12.4562-.0287-24.9122-.0643c-.3193-.0008-.6388-.001-.9579-.0108-2.83-.0868-3.2334-.829-1.7518-3.3689,3.3392-5.7246,6.7079-11.4319,10.0576-17.15,1.0895-1.86,2.1115-3.7612,3.2465-5.5927,1.3168-2.1248,2.1159-2.1367,3.37-.0045,2.2672,3.8547,4.4551,7.7561,6.6761,11.638Z"/><path class="cls-1" d="M133.6139,263.9281q-2.9146-5.0962-5.8289-10.1926c-.2772-.4853-.567-.9674-.7953-1.476-.8737-1.9462-.4656-2.6835,1.68-2.7022,4.072-.0354,8.1448.0486,12.2173.0658,4.5518.0191,9.1037.0192,13.6555.0273.3993.0008.8-.02,1.1977.0015,2.1515.1146,2.616.8229,1.5558,2.705-1.9984,3.5481-4.1127,7.0307-6.1627,10.55-2.2509,3.8644-4.4825,7.74-6.7255,11.609-.28.4835-.5494.9776-.8743,1.43-1.0641,1.4835-1.9045,1.5553-2.926-.0124-1.4806-2.2721-2.7742-4.6664-4.1367-7.0148C135.5092,267.2609,134.5653,265.5924,133.6139,263.9281Z"/><path class="cls-1" d="M277.0833,203.3711c2.0224,3.5382,4.0836,7.0548,6.0586,10.6191,1.6681,3.01,1.1769,3.8012-2.2838,3.7933q-12.2232-.0275-24.4464-.1036c-3.8463-.0255-4.2011-.651-2.2918-3.948q6.1251-10.5777,12.2773-21.14c1.8345-3.15,2.6539-3.1676,4.4885-.0365C272.9864,196.14,275.0214,199.7636,277.0833,203.3711Z"/><path class="cls-1" d="M212.6,275.6387q-5.6481-9.8719-11.3049-19.7392c-.5555-.9654-1.2669-1.84-1.8329-2.8007-1.2314-2.089-.7042-3.1369,1.7245-3.1845,3.4311-.0675,6.8653.0253,10.2982.0343,5.27.0139,10.5394-.0153,15.8086.0321,3.2394.0292,3.6848.7634,2.104,3.5-4.2734,7.3977-8.5951,14.7675-12.8979,22.1482-.04.0689-.0828.1366-.126.2037C214.9076,278.1087,213.6521,278.0849,212.6,275.6387Z"/><path class="cls-1" d="M74.7188,32.0829a14.2542,14.2542,0,0,1,1.49-.1325q13.887.0416,27.774.1073c.3187.0014.6377.0316.9559.0568.96.0762,1.3029.5539.8593,1.44-.3928.784-.8361,1.5436-1.2777,2.302q-6.206,10.6556-12.4259,21.303a10.6857,10.6857,0,0,1-1.36,1.9537,1.1729,1.1729,0,0,1-2.0161-.1387,13.9168,13.9168,0,0,1-.7672-1.2133Q81.4051,46.331,74.87,34.8949a11.4792,11.4792,0,0,1-.74-1.5C73.9352,32.8966,74.0744,32.456,74.7188,32.0829Z"/><path class="cls-1" d="M295.7084,47.8619q3.2681,5.7119,6.5316,11.4262a5.5819,5.5819,0,0,1,.4852,1.0884c.3948,1.266.0943,1.82-1.1677,2.0627a8.6914,8.6914,0,0,1-1.6672.0867q-12.8051-.0516-25.61-.1174c-3.0178-.0166-3.4415-.723-1.9006-3.4058,4.2917-7.4718,8.6314-14.9159,12.9526-22.3707.04-.069.0866-.1341.1291-.2015,1.43-2.2682,2.3872-2.2581,3.6852.02q3.2586,5.7183,6.5351,11.4264Z"/><path class="cls-1" d="M428.7214,27.6543a24.4143,24.4143,0,0,0-1.0845-2.4352,62.3942,62.3942,0,0,0-4.0966-6.7637,22.6907,22.6907,0,0,1-2.53-4.3455,39.28,39.28,0,0,0-4.27-7.4743c-.7908-1.07-1.82-2.3784-1.09-3.71.7053-1.2864,2.3015-.803,3.5376-.8036q11.9943-.0059,23.9884.0745c1.153.0082,2.6245-.4324,3.3255.7683.7065,1.21-.4262,2.2653-.9991,3.256-4.1636,7.1988-8.38,14.3672-12.5794,21.5453-.04.069-.0754.1414-.1177.2091C431.3917,30.2377,430.2228,30.1959,428.7214,27.6543Z"/><path class="cls-1" d="M438.917,234.8612q3.098,5.4147,6.1989,10.8275a5.7284,5.7284,0,0,1,.7938,1.7325,1.3306,1.3306,0,0,1-1.13,1.7687,9.358,9.358,0,0,1-1.9052.1576q-12.5935-.0619-25.1869-.1528c-3.2482-.0252-3.61-.6624-1.9745-3.48q6.3823-10.9958,12.8028-21.9692c.4716-.8061.82-1.9195,1.9413-1.9235,1.1986-.0043,1.6576,1.0719,2.1759,1.985q3.1383,5.5293,6.3094,11.04Z"/><path class="cls-1" d="M368.3573,233.7369q-2.92-5.1015-5.8375-10.2043a18.4918,18.4918,0,0,1-.919-1.6838c-.7387-1.6789-.3493-2.4146,1.5179-2.5,2.3134-.1059,4.6355-.0239,6.9539-.0231,6.4764.0021,12.9529-.01,19.4292.012,3.4187.0115,3.8065.6732,2.1155,3.5894q-6.2569,10.79-12.55,21.5591c-1.8931,3.2413-2.6914,3.2185-4.6289-.1311C372.3959,240.8243,370.3833,237.2767,368.3573,233.7369Z"/><path class="cls-1" d="M511.2,110.9146c2.0633,3.6049,4.152,7.1956,6.1806,10.82,1.65,2.9479,1.2985,3.5217-2.1308,3.5179q-12.6978-.0143-25.3955-.075c-.24-.0008-.4792.0011-.7188-.0044-2.766-.0631-2.9132-.2926-1.5756-2.6222q2.9824-5.1943,6.002-10.3672,3.495-6.0049,7.0093-11.9986c1.734-2.958,2.7166-2.9953,4.43-.08C507.1052,103.686,509.1362,107.31,511.2,110.9146Z"/><path class="cls-1" d="M409.5466,56.9212c-3.534-7.3465-7.9254-14.2183-11.8982-21.3224-.9416-1.6838-.612-2.38,1.3188-2.4243,3.2712-.0745,6.5458.005,9.819.0081q8.1433.0078,16.2869.0018c3.947.0011,4.2809.6041,2.2557,4.0955Q421.14,47.95,414.9432,58.6153c-.08.1381-.1547.28-.2378.4159-1.3621,2.2333-2.3086,2.29-3.8391.1673A25.2489,25.2489,0,0,1,409.5466,56.9212Z"/><path class="cls-1" d="M313.5381,79.1742q3.2769,5.7273,6.5512,11.4563a8.3936,8.3936,0,0,1,.5289,1.0713c.3851.9756-.0395,1.5644-.9865,1.7608a9.3531,9.3531,0,0,1-1.9066.1434q-12.4758-.027-24.9514-.0819a13.94,13.94,0,0,1-2.385-.1723c-.993-.1778-1.3285-.8315-.9292-1.7718a15.468,15.468,0,0,1,.869-1.7071q6.3835-10.9971,12.7957-21.9777c.5-.853.8646-2.1095,2.1379-1.9839,1.1888.1172,1.4458,1.3342,1.9512,2.2293,2.0847,3.6912,4.202,7.364,6.3072,11.0436Z"/><path class="cls-1" d="M457.8,17.5707q2.7367,4.78,5.4708,9.5615c.3168.5544.6477,1.1026.9308,1.6742,1.1429,2.3076.7374,3.0318-1.902,3.0324-9.0184.0022-18.0368-.0579-27.0552-.0985a8.8185,8.8185,0,0,1-1.1931-.0751c-.755-.1071-.9043-.5731-.6162-1.2068.2306-.5075.4993-1,.7795-1.4825q6.3725-10.9734,12.7573-21.94a13.2417,13.2417,0,0,1,1.18-1.7981c.8167-.9875,1.5021-1.0114,2.3656-.0389a11.9051,11.9051,0,0,1,1.3291,1.9824C453.8418,10.6382,455.8166,14.1068,457.8,17.5707Z"/><path class="cls-1" d="M350.5506,78.6215q-2.6761-4.6774-5.35-9.356c-.3558-.6238-.7253-1.2446-1.02-1.8977-1.0717-2.3753-.5454-3.3406,2.0016-3.3445,8.62-.0132,17.24.0477,25.8606.0842a5.2236,5.2236,0,0,1,.9533.0734c1.3629.2605,1.7221.8844,1.2181,2.2251a11.5159,11.5159,0,0,1-.8788,1.6988Q367.1936,78.66,361.0389,89.2081c-1.7061,2.9231-2.6525,2.95-4.3994.0022-2.0757-3.5022-4.0566-7.0606-6.0785-10.5947Z"/><path class="cls-1" d="M169.9506,78.9536c1.9443,3.3984,3.9267,6.7759,5.822,10.2015,1.7288,3.1247,1.2387,3.9028-2.3194,3.89Q160.8706,93,148.2883,92.9414c-3.0368-.017-3.3318-.5083-1.8225-3.1288q6.34-11.0069,12.7382-21.98c1.5341-2.6266,2.484-2.6182,4.2776-.09.1385.1953.27.3971.3889.6048q3.0384,5.304,6.0725,10.6105Z"/><path class="cls-1" d="M96.6,264.5906q3.0934,5.4065,6.184,10.8148a11.184,11.184,0,0,1,.8768,1.7c.3764,1.046.0212,1.765-1.0547,1.9725a13.6837,13.6837,0,0,1-2.623.1341q-12.2154-.0419-24.4308-.1061c-3.4566-.0155-3.8036-.5786-2.0918-3.5157q6.3924-10.968,12.8139-21.9191c1.6925-2.8881,2.4164-2.87,4.1355.1079C92.4859,257.3756,94.5375,260.9862,96.6,264.5906Z"/><path class="cls-1" d="M511.9117,234.3045Q508.8769,229,505.8433,223.695a15.0224,15.0224,0,0,1-.7977-1.4745c-.6869-1.5944-.3211-2.288,1.3828-2.39,1.5918-.0952,3.1934-.0324,4.7907-.0268q10.9017.0382,21.8033.0836c3.453.0137,3.7677.5092,2.0282,3.5246q-6.4653,11.2071-13.0082,22.3695c-1.274,2.1775-2.2656,2.1729-3.568-.046-2.2238-3.789-4.3754-7.62-6.5573-11.434Z"/><path class="cls-1" d="M114.4153,295.73q3.0965,5.409,6.189,10.82a12.1208,12.1208,0,0,1,.889,1.696c.4377,1.1671.0388,1.82-1.2133,2.0364a8.2256,8.2256,0,0,1-1.4345.0535q-12.702-.0641-25.4039-.1409c-3.4962-.0264-3.8177-.5524-2.1193-3.4987q6.3437-11.0049,12.7453-21.9761c1.6391-2.81,2.411-2.8072,4.0319-.0143C110.2253,288.3691,112.3113,292.0549,114.4153,295.73Z"/><path class="cls-1" d="M93.0857,1.0512c.3669-.0282.9213-.11,1.4752-.1078q13.435.06,26.87.1431a6.4085,6.4085,0,0,1,1.1926.0849c.9664.19,1.4056.7475,1.0132,1.7263a11.6107,11.6107,0,0,1-.7674,1.4892Q116.6633,15.0713,110.4467,25.75a10.3366,10.3366,0,0,1-.62,1.0266c-.5535.7376-.8749,1.8973-2.07,1.7039-1.0384-.1682-1.413-1.1614-1.89-2.0063Q100.15,16.3385,94.38,6.2328c-.6668-1.17-1.7765-2.0729-2.0516-3.4839C92.1969,2.0722,92.145,1.4685,93.0857,1.0512Z"/><path class="cls-1" d="M260.5292,171.6115q-2.8578-4.9947-5.7145-9.99a7.8049,7.8049,0,0,1-1.0971-2.6426c-.189-1.2225.2084-1.8375,1.43-2.0146a18.1428,18.1428,0,0,1,2.6311-.1c7.6708.0164,15.3417.0284,23.0123.0816,1.1644.0082,2.6509-.4091,3.3639.7125.8118,1.2769-.3914,2.4-1.0069,3.4609q-6.1347,10.5748-12.3385,21.11c-1.529,2.6084-2.5915,2.64-4.1808-.0194-2.0905-3.4982-4.0647-7.0661-6.0888-10.604Z"/><path class="cls-1" d="M24.9863,202.249q3.0318,5.2988,6.0614,10.5987a13.5342,13.5342,0,0,1,.8951,1.69c.5106,1.2927.1165,2.0129-1.2436,2.1892a19.9,19.9,0,0,1-2.629.0677q-12.0871-.0466-24.1744-.1043c-3.3764-.0142-3.7026-.5693-1.9639-3.5771q6.4086-11.0862,12.864-22.1455a6.8887,6.8887,0,0,1,.7864-1.1968,1.2638,1.2638,0,0,1,2.2033.054,11.5981,11.5981,0,0,1,1.0158,1.62Q21.9,196.8436,24.9863,202.249Z"/><path class="cls-1" d="M80.5978,108.4367q-2.6786-4.6764-5.3538-9.3548c-.2775-.4851-.5619-.9667-.8234-1.46-1.47-2.7752-1.0243-3.5794,2.1382-3.5775,8.86.0055,17.72.0629,26.5805.1053a6.4822,6.4822,0,0,1,1.1884.0964.6961.6961,0,0,1,.5538,1.067,12.0591,12.0591,0,0,1-.7515,1.4941q-6.5155,11.17-13.0464,22.3307c-1.84,3.14-2.5357,3.1278-4.4126-.102C84.6252,115.515,82.6215,111.97,80.5978,108.4367Z"/><path class="cls-1" d="M97.3524,78.392q2.9172,5.0976,5.8324,10.1964a18.0908,18.0908,0,0,1,.9143,1.6844c.6739,1.54.2709,2.2666-1.3678,2.4486a19.0152,19.0152,0,0,1-2.1553.0567q-12.2232-.0405-24.4465-.0942c-3.2752-.0175-3.6737-.6473-2.0566-3.4331Q80.57,78.0578,87.1486,66.9117a8.1974,8.1974,0,0,1,.82-1.1758,1.1778,1.1778,0,0,1,2.0216.0308,12.6919,12.6919,0,0,1,1.1674,1.8077Q94.2651,72.9776,97.3524,78.392Z"/><path class="cls-1" d="M459.18,16.4862q-2.8588-4.9951-5.7163-9.9909c-.2381-.4164-.4859-.828-.7034-1.255-1.1806-2.3193-.6487-3.2078,2.0189-3.2292,3.1163-.0249,6.2333.0321,9.35.0422,5.5142.0178,11.0286.0106,16.5427.0469,2.9819.02,3.3588.6453,1.8613,3.2313q-6.4881,11.2032-13.0509,22.3632a7.243,7.243,0,0,1-.6665.9936c-.9018,1.0812-1.6469,1.1062-2.539.0322a11.2622,11.2622,0,0,1-1.02-1.6208Q462.212,21.7966,459.18,16.4862Z"/><path class="cls-1" d="M476.771,110.0571q-2.9735-5.1948-5.9432-10.3915a12.5571,12.5571,0,0,1-.8887-1.6937c-.63-1.6493-.1572-2.47,1.6158-2.5342,2.47-.09,4.946-.0189,7.4194-.0134q9.4548.0214,18.91.0479c3.2762.012,3.65.6347,2.0231,3.4317q-6.3189,10.8627-12.6717,21.7057c-1.7494,2.9862-2.6771,2.9971-4.3943.0422C480.796,117.1328,478.7929,113.59,476.771,110.0571Z"/><path class="cls-1" d="M62.3277,138.627c-2.2237-3.8856-4.4712-7.7578-6.659-11.6636-.9607-1.715-.7741-2.0511,1.2364-2.0548,8.1526-.015,16.3052.0272,24.4578.05,1.2786.0035,2.5627-.0574,3.8345.0391,1.77.1344,2.1376.7613,1.27,2.3428-1.5367,2.8023-3.1824,5.5449-4.79,8.308q-4.2811,7.3572-8.5767,14.706c-1.5827,2.6913-2.4651,2.69-4.0914-.0766C66.7406,146.4185,64.5513,142.5127,62.3277,138.627Z"/><path class="cls-1" d="M223.3863,172.3339q2.7368,4.7833,5.4727,9.5674c.1981.3466.3958.6943.5732,1.0518,1.3851,2.7922.9559,3.5195-2.19,3.5178-8.4641-.0046-16.9282-.0442-25.3923-.0739a7.7191,7.7191,0,0,1-1.4328-.07c-1.1455-.222-1.4729-.7913-1.0719-1.89a9.4909,9.4909,0,0,1,.7745-1.4827q6.2756-10.7609,12.5627-21.5147c1.6269-2.778,2.6312-2.86,4.3357-.09,2.2175,3.6029,4.2323,7.3306,6.3344,11.0046Z"/><path class="cls-1" d="M277.3314,78.82q3.2112,5.6127,6.4184,11.2277a9.6723,9.6723,0,0,1,.8433,1.7124,1.1439,1.1439,0,0,1-.9409,1.6105,6.3219,6.3219,0,0,1-1.4264.108c-8.54-.0312-17.08-.0473-25.62-.1187-3.5414-.03-3.8835-.635-2.0971-3.7258,4.2735-7.3939,8.5975-14.7588,12.9013-22.1352.0805-.1378.1593-.2771.2481-.4095,1.2319-1.839,1.9643-1.8391,3.0635.0622,2.2372,3.87,4.4449,7.7569,6.6647,11.6368Z"/><path class="cls-1" d="M276.5567,140.3646c2.4559,3.9272,4.4154,8.1471,7.1021,11.94a4.9649,4.9649,0,0,1,.6054,1.5507c.2726.9867-.198,1.5455-1.1554,1.68a13.563,13.563,0,0,1-1.91.0952q-12.34-.0222-24.681-.0612c-3.8723-.0137-4.1861-.5534-2.2386-3.8978q6.2708-10.768,12.58-21.514c.5054-.86.8448-2.1221,2.1068-2.0073,1.1314.103,1.6439,1.1719,2.0683,2.1321C272.5888,133.8018,274.7987,136.958,276.5567,140.3646Z"/><path class="cls-1" d="M79.8924,294.72q-2.9738-5.1986-5.9478-10.3969c-.1586-.2773-.32-.5533-.4713-.8343-1.3945-2.5831-1.1589-3.0387,1.72-3.0385,6.4666.0006,12.9332.0431,19.4.07,2.1556.009,4.3113.0064,6.4664.0427a8.5839,8.5839,0,0,1,1.89.2266,1.0214,1.0214,0,0,1,.7764,1.472,10.6575,10.6575,0,0,1-.8325,1.7156q-6.4366,11.08-12.8908,22.15c-.1206.207-.2276.4231-.3628.62-1.0939,1.5945-1.7755,1.6505-2.7987.0038-1.5164-2.44-2.897-4.965-4.3313-7.4561Q81.1953,297.0105,79.8924,294.72Z"/><path class="cls-1" d="M25.7143,16.0085q3.0981,5.4162,6.1932,10.8341a10.79,10.79,0,0,1,.8568,1.7121,1.1855,1.1855,0,0,1-1.0609,1.7319,13.6736,13.6736,0,0,1-2.154.0751Q16.8333,30.3169,4.1172,30.26c-.24-.001-.48-.0021-.72-.0115-2.2189-.0869-2.45-.441-1.3249-2.3929Q8.7841,16.2166,15.5538,4.6106a5.857,5.857,0,0,1,.5169-.8075c.8968-1.0841,1.6845-1.1175,2.5468-.0417a14.0886,14.0886,0,0,1,1.1359,1.8331Q22.7405,10.7979,25.7143,16.0085Z"/><path class="cls-1" d="M206.5109,202.1652q-3.0325-5.3-6.064-10.6012c-.2771-.485-.5742-.9629-.8023-1.4709-.6843-1.5238-.404-2.0636,1.1872-2.2923a9.94,9.94,0,0,1,1.4335-.0637q12.4494.03,24.899.0718c3.8478.0165,4.1368.5446,2.1673,3.9325q-6.1962,10.66-12.4149,21.3069-.1809.31-.3711.615c-1.3791,2.2238-2.1356,2.2328-3.4817-.0733-2.2132-3.7914-4.3694-7.6161-6.55-11.4267Z"/><path class="cls-1" d="M278.6679,77.9427q-3.0943-5.4083-6.1856-10.8182a15.9769,15.9769,0,0,1-.8785-1.7009c-.3653-.8693.0284-1.4051.8913-1.5632a10.4566,10.4566,0,0,1,1.9063-.1409q12.6985.0372,25.3969.1c3.25.0185,3.638.675,2.0284,3.4618q-6.3508,10.9959-12.7514,21.9633c-1.6342,2.7977-2.4047,2.7571-4.0005-.0586-2.127-3.7528-4.2806-7.49-6.4228-11.2346Z"/><path class="cls-1" d="M186.0017,296.16q2.8588,4.9973,5.7179,9.9943c.1589.2776.319.5545.4751.8337,1.6888,3.0208,1.375,3.58-2.0211,3.57q-10.5525-.03-21.1049-.0689c-1.6787-.0059-3.3614.05-5.035-.0464-1.9761-.1139-2.4526-.9033-1.4818-2.6483,2.1373-3.8415,4.3869-7.62,6.5925-11.4238q3.2484-5.6018,6.5-11.2011c.08-.1382.1581-.2781.2427-.4137,1.388-2.2246,2.2274-2.2593,3.5452-.0377,1.7131,2.8881,3.3506,5.821,5.02,8.7349Q185.2283,294.8058,186.0017,296.16Z"/><path class="cls-1" d="M171.3115,77.8153q-3.0338-5.3026-6.0648-10.6069a10.8792,10.8792,0,0,1-.873-1.702c-.4281-1.2085-.07-1.83,1.1653-2.0691a8.6779,8.6779,0,0,1,1.6682-.1034q12.3354.0393,24.67.0955c3.8459.0184,4.1684.5724,2.2147,3.9332q-6.26,10.7682-12.5634,21.5111c-.1208.2068-.2278.4232-.3631.62-1.203,1.7484-2.0826,1.7821-3.1639-.05-2.2732-3.8507-4.4576-7.7539-6.6784-11.6355Z"/><path class="cls-1" d="M384.7889,79.132q3.0337,5.3025,6.067,10.6051c.2775.4853.5685.9642.8184,1.4635.9709,1.94.621,2.5666-1.6088,2.664-1.6731.0732-3.3524.0065-5.029,0-7.0255-.0271-14.0511-.042-21.0765-.0878-3.2913-.0214-3.6418-.6075-2.0067-3.41q6.5775-11.2752,13.2047-22.5215c.0807-.1377.1562-.2789.2416-.4137,1.189-1.8764,1.57-1.8949,2.7129.0646,2.2529,3.8627,4.4511,7.7574,6.6718,11.6389Z"/><path class="cls-1" d="M8.3368,232.4623c-1.9823-3.4647-4-6.91-5.9365-10.4-1.786-3.2177-1.248-4.0665,2.4171-4.0445q11.972.0722,23.9438.1341c3.8376.0226,4.09.4181,2.2224,3.6905q-6.1719,10.8144-12.3953,21.6c-1.5139,2.6225-2.3725,2.6451-3.9277.026-2.16-3.6377-4.2172-7.3364-6.3184-11.0089Z"/><path class="cls-1" d="M367.1583,48.3173q3.0969,5.4144,6.1931,10.829a13.1338,13.1338,0,0,1,.7928,1.4786c.543,1.3191.1819,1.9124-1.2807,2.089a15.5587,15.5587,0,0,1-1.917.0576q-12.3519-.0459-24.7037-.103c-3.2976-.0167-3.7015-.6421-2.1-3.4071q6.4912-11.2075,13.0426-22.38a7.3944,7.3944,0,0,1,.5144-.8083c.9385-1.2128,1.5432-1.245,2.386-.0138.6757.9873,1.2327,2.0566,1.83,3.0968Q364.5424,43.7335,367.1583,48.3173Z"/><path class="cls-1" d="M150.51,234.13q2.9728,5.1943,5.9426,10.3905a12.7558,12.7558,0,0,1,.8918,1.6919c.4521,1.1755.0749,1.8549-1.1535,2.0631a11.2378,11.2378,0,0,1-1.91.0689q-11.9673-.0474-23.9343-.1117a16.1206,16.1206,0,0,1-2.62-.173,1.2317,1.2317,0,0,1-1.028-1.781,9.0249,9.0249,0,0,1,.8191-1.7231c4.1354-7.1012,8.2613-14.208,12.4361-21.286,1.769-2.9991,2.615-2.9693,4.3689.058C146.403,226.9177,148.4488,230.5281,150.51,234.13Z"/><path class="cls-1" d="M78.461,295.7122q2.9187,5.1006,5.8363,10.2016c.2777.4858.5692.9653.8185,1.4656.9707,1.9481.6284,2.5089-1.6185,2.6638-.3981.0274-.7991.02-1.1987.0195q-12.23-.0267-24.46-.0592c-3.7028-.0133-4.0158-.5641-2.1266-3.8249q6.3713-10.9974,12.7832-21.9713a7.3459,7.3459,0,0,1,.6284-1.0189c.7379-.8908,1.3935-.8821,2.1376.0665a13.3812,13.3812,0,0,1,1.004,1.6326Q75.3677,290.2973,78.461,295.7122Z"/><path class="cls-1" d="M331.3209,110.3593q3.0969,5.4073,6.1906,10.8165c.1984.3467.419.6826.5912,1.0418.8283,1.7279.5091,2.3962-1.398,2.4653-2.712.0984-5.43.04-8.1453.0338q-8.9857-.02-17.9712-.0552c-3.3929-.013-3.7487-.6392-2.04-3.5767q6.0846-10.4595,12.1886-20.9076c.6284-1.07,1.0374-2.6922,2.4206-2.7453,1.5091-.0579,1.6874,1.7115,2.3066,2.7488C327.47,103.5414,329.3754,106.9624,331.3209,110.3593Z"/><path class="cls-1" d="M8.1464,294.28q-2.9181-5.1-5.835-10.2013c-.3171-.5552-.66-1.1008-.92-1.6825-.6572-1.47-.3325-2.07,1.3121-2.1941,1.3511-.1018,2.7157-.0263,4.0743-.0237q11.03.021,22.06.0431c3.72.0048,4.055.5429,2.1874,3.7515Q24.933,294.439,18.7953,304.8781c-.2019.3448-.4157.6829-.63,1.02-1.3706,2.1529-2.06,2.1919-3.33.0292-2.2666-3.8606-4.4588-7.7647-6.6821-11.6507Z"/><path class="cls-1" d="M24.7152,264.6031q3.0372,5.3069,6.0709,10.6158a17.9893,17.9893,0,0,1,.8883,1.6977c.4085.9366.1,1.5624-.9219,1.747a7.9659,7.9659,0,0,1-1.43.1024q-13.425-.0386-26.85-.0939a10.8748,10.8748,0,0,1-1.1945-.0783c-.76-.0872-.9343-.5373-.6472-1.1826a15.5881,15.5881,0,0,1,.78-1.4843q6.4453-11.0883,12.9054-22.168c1.6958-2.8966,2.5154-2.8837,4.2015.0247C20.6022,257.3793,22.6506,260.9958,24.7152,264.6031Z"/><path class="cls-1" d="M361.9847,95.4321a3.2141,3.2141,0,0,1,1.6345-.2958q13.0727.0342,26.1453.0844a6.9483,6.9483,0,0,1,1.4269.1411,1.2064,1.2064,0,0,1,1.0065,1.7766,12.5249,12.5249,0,0,1-.9521,1.9293q-6.0906,10.47-12.2022,20.9289c-1.8892,3.2341-2.5558,3.2478-4.3839.0625q-6.0909-10.6123-12.152-21.2417a17.385,17.385,0,0,1-.9711-1.9231A1.1081,1.1081,0,0,1,361.9847,95.4321Z"/><path class="cls-1" d="M97.1485,202.7208q2.9127,5.0917,5.8252,10.1838c.2772.4849.5722.9625.81,1.4666.8352,1.7708.4059,2.59-1.5275,2.6432-2.4713.0679-4.9466-.0157-7.42-.02-6.0643-.01-12.1286.0072-18.1927-.0251-3.5054-.0187-3.9484-.7631-2.2324-3.7136q6.3786-10.9665,12.7971-21.91c.04-.0689.078-.1394.1205-.2068,1.2973-2.0548,1.9276-2.0877,3.1448-.0465,1.4713,2.4673,2.8687,4.9788,4.2972,7.4716Q95.9609,200.6418,97.1485,202.7208Z"/><path class="cls-1" d="M384.883,141.4332q2.74,4.7833,5.4755,9.5691c.317.5548.6459,1.105.9257,1.6787,1.2028,2.4658.779,3.2164-1.8964,3.2115q-12.58-.0232-25.1593-.1094c-3.27-.0259-3.588-.636-1.94-3.4642q6.2113-10.6631,12.4443-21.3135c1.8292-3.1183,2.3642-3.1128,4.1926.03C380.9332,134.4886,382.898,137.9668,384.883,141.4332Z"/><path class="cls-1" d="M384.9479,203.8852q3.1535,5.5116,6.3116,11.02c.4441.7709,1.0209,1.5763.5447,2.4425-.5041.9173-1.5477.6758-2.3983.6748q-11.8624-.0145-23.7251-.0714a29.7343,29.7343,0,0,1-3.35-.066c-1.3011-.1531-1.6457-.8179-1.0491-2.0124.677-1.3557,1.4775-2.65,2.2391-3.9631q5.3523-9.2241,10.7141-18.4426c.2809-.4832.5523-.9759.8777-1.4285,1.2024-1.6715,2.1718-1.6016,3.1921.1887q3.3219,5.8284,6.6611,11.6469Z"/><path class="cls-1" d="M151.2508,109.77q3.0307,5.2994,6.0579,10.6007a11.2185,11.2185,0,0,1,.9446,1.9278,1.1229,1.1229,0,0,1-.9171,1.6157,11.5739,11.5739,0,0,1-2.1385.1707q-12.3264-.0115-24.6529-.0549c-3.2882-.0137-3.6829-.6429-2.0778-3.421q6.4062-11.0875,12.8783-22.1368a8.5967,8.5967,0,0,1,.5046-.8131c1.0043-1.3518,1.5858-1.384,2.4689.0806,1.73,2.87,3.36,5.8,5.03,8.7054Q150.3032,108.1052,151.2508,109.77Z"/><path class="cls-1" d="M261.0747,109.0543q-3.033-5.3028-6.0665-10.6052c-.1982-.3466-.4053-.6892-.5835-1.046-.9953-1.9929-.6625-2.6457,1.5415-2.6665,3.9114-.037,7.8237.0347,11.7357.0494q6.826.0258,13.6522.0327a16.5542,16.5542,0,0,1,1.6755.0282c1.6816.1756,2.0329.8279,1.3232,2.4246a10.9882,10.9882,0,0,1-.58,1.0464q-6.3893,10.9688-12.7813,21.9359a10.7627,10.7627,0,0,1-.6186,1.024c-.8163,1.0976-1.4511,1.1554-2.2163.0054-1.0155-1.526-1.8812-3.1527-2.7973-4.744Q263.2075,112.8021,261.0747,109.0543Z"/><path class="cls-1" d="M368.7113,171.5293q-2.7966-4.8865-5.5919-9.7739c-.2379-.4159-.4864-.827-.7007-1.2549-1.2165-2.4292-.6534-3.3528,2.1279-3.3486q12.4556.019,24.9108.1019c3.2252.0232,3.55.6134,1.8878,3.489-4.2764,7.3959-8.5956,14.767-12.8988,22.1472a7.2772,7.2772,0,0,1-.505.8135c-.716.9211-1.3386.9547-2.1256.0386a10.2707,10.2707,0,0,1-1.033-1.6093Q371.7392,176.8356,368.7113,171.5293Z"/><path class="cls-1" d="M134.7241,139.5222q-2.9751-5.2013-5.9506-10.4023c-.1982-.3467-.4043-.69-.584-1.0463-.9753-1.934-.6022-2.6636,1.5579-2.6951,3.3536-.0489,6.7089.0386,10.0635.0452,5.1119.01,10.224-.006,15.3358.0053a13.3253,13.3253,0,0,1,2.3855.1569c1.1138.2061,1.3036.6186.7946,1.6917-.4095.8635-.9267,1.6767-1.4084,2.5051-3.8139,6.56-7.6074,13.1323-11.4552,19.6725-2.39,4.0615-2.7412,4.0427-5.026.0529Q137.5786,144.5163,134.7241,139.5222Z"/><path class="cls-1" d="M150.7967,171.8019q2.9744,5.2,5.9482,10.4a16.19,16.19,0,0,1,.8021,1.4721c.7223,1.6386.278,2.45-1.5414,2.48-3.672.06-7.3459-.0087-11.0191-.0165q-7.1868-.0155-14.3736-.0188c-.32,0-.6392.0094-.9583,0-2.6395-.0767-3.0172-.7041-1.6691-3.0244q6.5588-11.2888,13.1771-22.5431c.1211-.2067.2335-.42.3708-.6154.9771-1.392,1.5617-1.4359,2.4456.033,1.77,2.942,3.4411,5.9442,5.1519,8.9221Q149.9664,170.3446,150.7967,171.8019Z"/><path class="cls-1" d="M296.8909,108.8272q-2.8564-4.991-5.7115-9.9826c-.2775-.4853-.5718-.9628-.8191-1.4633-.9294-1.8809-.61-2.4789,1.4728-2.4943,4.1519-.0307,8.3044.0167,12.4566.0261q6.3481.0144,12.6963.0186c.24,0,.479.013.7186.0185,3.2135.0732,3.5443.6469,1.9077,3.5157-1.9782,3.4679-4.0071,6.9069-6.0156,10.3576q-3.3139,5.6933-6.6313,11.3848a11.8045,11.8045,0,0,1-.7479,1.2251,1.1156,1.1156,0,0,1-1.98.0211,11.5964,11.5964,0,0,1-1.0359-1.6071Q300.0381,114.342,296.8909,108.8272Z"/><path class="cls-1" d="M314.8444,140.2069q-3.0316-5.299-6.0615-10.599a13.3481,13.3481,0,0,1-.8967-1.69c-.44-1.1207-.1332-1.6572,1.0433-1.85a10.17,10.17,0,0,1,1.6717-.0648q12.3264.0446,24.6527.0989c3.6217.0158,3.9306.53,2.1374,3.6177q-6.2513,10.7626-12.52,21.5151a13.9838,13.9838,0,0,1-.7476,1.2256c-.8043,1.102-1.3572,1.1057-2.2174-.0233a14.7608,14.7608,0,0,1-.9964-1.6333Q317.8727,145.5078,314.8444,140.2069Z"/><path class="cls-1" d="M153.0057,108.6476q-3.0328-5.3-6.0646-10.6011c-.2377-.4157-.49-.8254-.6936-1.2578-.8048-1.7092-.4534-2.3749,1.472-2.3979,4.3088-.0516,8.6188.0025,12.9282.0108,4.15.008,8.3.008,12.45.0225a12.4237,12.4237,0,0,1,2.1477.1082c1.1475.2069,1.4512.7744,1.0439,1.9043a10.5207,10.5207,0,0,1-.8682,1.7028q-6.2854,10.7466-12.5888,21.4826c-1.61,2.735-1.9659,2.7325-3.52.04C157.1976,115.9976,155.1069,112.32,153.0057,108.6476Z"/><path class="cls-1" d="M140.2669,211.6205c-3.0665-5.581-6.4012-11.0137-9.2629-16.7085a20.7339,20.7339,0,0,0-2.4169-3.8458,4.6257,4.6257,0,0,1-.7556-1.4791c-.4565-1.4006-.1046-1.9568,1.3156-2.1286a13.7039,13.7039,0,0,1,1.6749-.0432q11.7324.0294,23.4647.0667c.4788.0016.9588.0111,1.4359.0471,2.3661.1782,2.8313.9471,1.6192,3.0728-2.8066,4.9222-5.71,9.7894-8.5624,14.6854-1.3661,2.3445-2.7014,4.7072-4.0628,7.0545a13.6645,13.6645,0,0,1-1.0447,1.6012c-.5578.71-1.1724.6925-1.8211.0548A8.8249,8.8249,0,0,1,140.2669,211.6205Z"/><path class="cls-1" d="M416.2628,188.7365a3.5353,3.5353,0,0,1,1.8653-.3068q12.5779.0393,25.156.08a7.24,7.24,0,0,1,1.4307.108c1.1723.2422,1.4995.777,1.1013,1.8782a10.74,10.74,0,0,1-.8825,1.6968q-6.1422,10.5624-12.2992,21.116c-1.4441,2.47-2.5468,2.53-4.0205.0061-4.2295-7.2423-8.37-14.5366-12.5067-21.8327C415.2862,190.034,415.4117,189.2524,416.2628,188.7365Z"/><path class="cls-1" d="M222.7509,110.0544q3.0381,5.31,6.0725,10.6214a10.2093,10.2093,0,0,1,.8611,1.71c.3792,1.1138.0526,1.6527-1.1254,1.8751a10.1711,10.1711,0,0,1-1.911.1175q-12.2318-.0431-24.4636-.1046c-.16-.0008-.32-.0074-.48-.0146-2.6314-.12-3.0071-.7249-1.6577-3.0658,4.3523-7.55,8.7588-15.0682,13.15-22.5951a5.8567,5.8567,0,0,1,.6971-.9718c.5213-.5771,1.1075-.6527,1.6151-.0037a13.5211,13.5211,0,0,1,1.042,1.6063Q219.6607,104.6365,222.7509,110.0544Z"/><path class="cls-1" d="M438.4725,172.9081q3.2125,5.6148,6.4257,11.2292c.119.2078.2687.4.3716.6147.76,1.5867.4189,2.2722-1.3119,2.3667-1.592.087-3.1925.02-4.7893.0174q-10.3-.0154-20.6006-.0347a16.6817,16.6817,0,0,1-1.9146-.0565c-1.4485-.1709-1.8213-.7492-1.3464-2.0994a8.971,8.971,0,0,1,.753-1.4927q6.2582-10.77,12.5318-21.53c1.5823-2.7079,1.9928-2.7072,3.5462-.02,2.1186,3.6645,4.2082,7.3456,6.31,11.02Z"/><path class="cls-1" d="M96.9865,140.5787q3.0963,5.4139,6.19,10.8293a10.9642,10.9642,0,0,1,.8581,1.7107c.3386.9524-.0877,1.5516-1.0488,1.7448a5.993,5.993,0,0,1-1.1942.0544q-12.7107-.0519-25.4214-.11c-.16-.0008-.32.0029-.48-.0044-2.544-.1166-2.9218-.7073-1.6708-2.8871,2.2679-3.9517,4.613-7.8591,6.91-11.7941,1.8945-3.2446,3.7645-6.5033,5.65-9.753a17.8516,17.8516,0,0,1,1.0073-1.6322c.8936-1.2172,1.5457-1.2424,2.3681-.0008.7933,1.1978,1.4677,2.4749,2.1842,3.7229Q94.6688,136.5156,96.9865,140.5787Z"/><path class="cls-1" d="M206.7618,139.7777q-3.0383-5.3112-6.0754-10.6232a12.96,12.96,0,0,1-.79-1.4806c-.5372-1.3127-.2851-1.7906,1.0726-1.9924a12.7323,12.7323,0,0,1,1.9145-.0752q12.2352.0465,24.47.1045c.32.0014.6416-.0209.9594.0051,1.8808.1536,2.2523.7611,1.4589,2.4935-.3651.7972-.8291,1.5508-1.2722,2.31q-5.804,9.9459-11.6284,19.88c-.5461.9276-.8562,2.3868-2.1508,2.3082-1.0933-.0663-1.3616-1.4436-1.87-2.315C210.7961,146.8692,208.7874,143.3185,206.7618,139.7777Z"/><path class="cls-1" d="M326.6744,95.2561a5.4587,5.4587,0,0,1,2.3153-.2213q10.1844,0,20.3687.04c1.6774.0042,3.3562-.0309,5.0318.0257,2.3245.0787,2.72.761,1.5334,2.8105-3.8025,6.5666-7.6529,13.1056-11.4843,19.6555-.6452,1.103-1.2516,2.2306-1.9393,3.3063-1.152,1.8019-1.6339,1.7731-2.8136-.0908-.1281-.2024-.2446-.4123-.3636-.62q-6.13-10.7139-12.2528-21.432a10.6259,10.6259,0,0,1-.8943-1.9485A1.2761,1.2761,0,0,1,326.6744,95.2561Z"/><path class="cls-1" d="M188.9517,108.6481q-3.0352-5.305-6.068-10.6115c-.3162-.5545-.6316-1.1136-.8912-1.6956-.429-.9618-.018-1.5591.94-1.7612a8.0093,8.0093,0,0,1,1.6679-.0885q12.5805.0453,25.1612.1019c.24.0011.48-.0177.7185,0,1.9171.14,2.2961.7222,1.4847,2.4289-.4791,1.0078-1.0662,1.9659-1.63,2.9313q-5.6824,9.7244-11.3784,19.44c-1.7553,2.9912-2.1268,2.9971-3.8124.0713Q192.0329,114.0648,188.9517,108.6481Z"/><path class="cls-1" d="M80.8928,170.1212q-2.9727-5.1975-5.9437-10.3959a16.7566,16.7566,0,0,1-.8831-1.6976c-.3975-.9309-.0913-1.5708.9233-1.7563a9.1209,9.1209,0,0,1,1.6675-.1182q12.6907.0472,25.3816.1178c3.0185.02,3.1752.3262,1.6689,2.9179Q97.8716,169.23,92.031,179.2675a20.9259,20.9259,0,0,1-1.69,2.6091c-1.0856,1.35-1.8256,1.3026-2.7606-.13-.6535-1.0014-1.2152-2.0631-1.8107-3.1019Q83.3278,174.3846,80.8928,170.1212Z"/><path class="cls-1" d="M474.3029,234.62q2.9154,5.0967,5.8294,10.1942a13.5787,13.5787,0,0,1,.8957,1.6927c.5147,1.3013.1352,1.99-1.2169,2.2243a9.649,9.649,0,0,1-1.6721.0744q-12.22-.0438-24.44-.0987a13.5865,13.5865,0,0,1-1.4366-.0284c-1.4174-.1573-1.7078-.5985-1.0574-1.89.7172-1.4241,1.5774-2.7764,2.38-4.1574,3.491-6.0079,6.9694-12.0232,10.49-18.0137.5845-.9946.9382-2.52,2.2772-2.5317,1.3836-.0123,1.6361,1.5785,2.2184,2.5608C470.5261,227.9449,472.3989,231.2918,474.3029,234.62Z"/><path class="cls-1" d="M440.25,233.74q-2.8524-4.9866-5.7042-9.9737a15.0507,15.0507,0,0,1-.7967-1.4728c-.7539-1.7475-.2947-2.6007,1.5969-2.7118,1.8286-.1073,3.6679-.0473,5.5023-.0385q9.6924.0463,19.3846.1105c2.9744.02,3.1507.3018,1.6467,2.9391q-6.2241,10.914-12.5016,21.7975a8.863,8.863,0,0,1-.5011.8143c-.8743,1.2007-1.2933,1.2354-2.06-.0544-1.8347-3.0859-3.5908-6.2184-5.3782-9.3324Q440.8426,234.78,440.25,233.74Z"/></g></g></svg>