<svg xmlns="http://www.w3.org/2000/svg" width="319.1688" height="370.1906" viewBox="0 0 319.1688 370.1906"><defs><style>.cls-1{fill:#bfbfbf;stroke:#000;stroke-miterlimit:10;}</style></defs><g id="Layer_2" data-name="Layer 2"><g id="Layer_1-2" data-name="Layer 1"><path class="cls-1" d="M239.2511,267.14c1.674-2.6867,3.3133-6.1708,5.6761-9.2184a12.8311,12.8311,0,0,0,1.0794-2.1275,28.5958,28.5958,0,0,1,1.3235-2.545c1.6424-2.5647,2.6545-2.52,4.1991.1605q6.3394,11,12.6566,22.0138c1.7563,3.07,1.39,3.6937-2.1716,3.6989q-12.8166.0184-25.6331-.0163a9.0923,9.0923,0,0,1-1.1959-.044c-1.397-.1876-1.7845-.7424-1.3551-2.1326a11.1458,11.1458,0,0,1,1.0169-2.1589C236.1871,272.4086,237.5591,270.0648,239.2511,267.14Z"/><path class="cls-1" d="M168.0657,263.7407c-2.0823,3.5995-4.1356,7.2163-6.2557,10.7934-1.8171,3.0658-2.5891,3.0654-4.3208.0664q-6.6567-11.5284-13.2887-23.071c-.08-.1386-.1651-.2743-.24-.4157-.9046-1.7171-.744-2.051,1.2457-2.0572,9.1945-.029,18.389-.018,27.5837-.0175a6.4494,6.4494,0,0,1,.9562.0664c1.4665.2213,1.8183.7074,1.3638,2.0979a11.8159,11.8159,0,0,1-1.0406,2.1524c-1.9881,3.4692-3.998,6.9259-6,10.387Z"/><path class="cls-1" d="M275.7649,77.576q-2.9384,5.0832-5.88,10.1646c-.24.4146-.4752.8342-.7447,1.23-1.3683,2.0076-2.2541,2.0594-3.4787-.0084-2.5229-4.26-4.9265-8.59-7.4009-12.8794-1.7959-3.1129-3.627-6.2055-5.4414-9.3077-.2016-.3446-.4158-.6836-.5918-1.0412-1.0634-2.16-.64-2.9861,1.7606-3.013,5.1106-.0574,10.2226.0022,15.3341.0072,3.4341.0033,6.8682-.0086,10.3022-.0047a11.5144,11.5144,0,0,1,1.9111.0831c1.2608.2149,1.6828.8162,1.338,2.0191a10.0631,10.0631,0,0,1-.9979,2.1661C279.8532,70.5278,277.8038,74.0489,275.7649,77.576Z"/><path class="cls-1" d="M257.1972,298.4266c1.6035-2.5414,3.1462-5.8951,5.4259-8.8054a13.6015,13.6015,0,0,0,1.22-2.3227c.395-.7826.7273-1.6017,1.1768-2.3509,1.8736-3.1222,2.8733-3.1053,4.7011.0511q6.12,10.5687,12.2317,21.1422c2.0966,3.63,1.8245,4.0905-2.3815,4.0841q-12.4521-.0194-24.9043-.0436a10.77,10.77,0,0,1-1.435-.0222c-1.3772-.1886-1.7889-.806-1.3483-2.1595a11.9647,11.9647,0,0,1,1.03-2.1536C254.2151,303.555,255.546,301.281,257.1972,298.4266Z"/><path class="cls-1" d="M114.3437,108.335c-2.079,3.5939-4.1312,7.2038-6.2454,10.777-1.7776,3.0043-2.6435,3.0116-4.3556.0558Q97.3209,108.081,90.95,96.9647c-1.4269-2.49-.9908-3.253,1.9164-3.2621q12.9318-.04,25.8641.0134c3.1222.0154,3.5385.795,1.9538,3.6205-2.07,3.6906-4.226,7.3329-6.3451,10.9959Z"/><path class="cls-1" d="M150.2969,46.1958q-2.8221,4.8791-5.646,9.7569c-.3608.6223-.71,1.2546-1.1192,1.8449-1.4078,2.032-2.2459,2.0627-3.4518-.0133q-6.7449-11.6112-13.3993-23.275c-1.1855-2.0781-.6911-2.9161,1.7706-2.9227q13.4281-.036,26.8564.0576c2.1731.0147,2.5876.7236,1.7583,2.6779a19.8727,19.8727,0,0,1-1.1274,2.1143Q153.1262,41.321,150.2969,46.1958Z"/><path class="cls-1" d="M114.0661,294.7923q-2.7585,4.7685-5.5176,9.5366c-.32.5528-.63,1.1123-.9724,1.6509-1.5609,2.4549-2.3306,2.436-3.8054-.1213q-6.28-10.89-12.5389-21.7935c-2.06-3.592-1.7608-4.0808,2.446-4.0806q12.2126.0007,24.4252.0174c3.4174.0061,3.954.8581,2.3025,3.7926-2.0751,3.6873-4.2272,7.3313-6.346,10.9941Z"/><path class="cls-1" d="M131.9474,263.8818q-2.6994,4.6665-5.3995,9.3326c-.32.5529-.63,1.1125-.9745,1.65-1.5478,2.42-2.3509,2.4339-3.8223-.0873q-6.5805-11.2755-13.0817-22.5973a7.1365,7.1365,0,0,1-.6319-1.2873c-.3707-1.1167-.0627-1.6388,1.1262-1.8485a10.9107,10.9107,0,0,1,1.91-.1036q12.4564.0272,24.9128.0715c3.6105.0135,4.0633.74,2.3022,3.8674-2.0766,3.6883-4.2291,7.3337-6.3487,10.9978Z"/><path class="cls-1" d="M150.1639,356.9945c-1.92,3.3183-3.8076,6.6553-5.7672,9.95-2.17,3.6484-3.2167,3.659-5.31.0473-4.1246-7.1152-8.209-14.2537-12.31-21.3826-.04-.0692-.0817-.1374-.1193-.2077-1.2492-2.3382-.8888-3.03,1.7108-3.06,3.3531-.0385,6.707.0049,10.0606.0079q7.5456.0069,15.0914.0089a15.8564,15.8564,0,0,1,1.9145.0537c1.6122.1988,2.0574.892,1.5276,2.4769a12.2137,12.2137,0,0,1-1.0422,2.1488c-1.9054,3.3265-3.8328,6.64-5.7524,9.9586Z"/><path class="cls-1" d="M257.83,46.2616c-2.0788,3.5936-4.126,7.206-6.2463,10.7749-1.786,3.0063-2.6672,3.0073-4.3785.0421q-6.3437-10.9918-12.639-22.0117c-1.6172-2.8266-1.2647-3.4251,2.0166-3.4288q12.8112-.0144,25.6224.0021c.16,0,.32-.0093.479-.0044,2.3681.0736,2.9472.9022,1.8144,2.99-1.9415,3.5775-4.0334,7.0734-6.0624,10.6034q-.2983.5192-.5995,1.0367Z"/><path class="cls-1" d="M168.0888,325.9978c-1.96,3.3879-3.8766,6.8016-5.8916,10.1564-2.0355,3.389-3.1183,3.3515-5.05-.012-3.9778-6.9245-7.98-13.835-11.9484-20.765-.5814-1.0152-1.6572-2.0835-1.064-3.2707.6392-1.2791,2.1325-.7594,3.2733-.7642,7.9859-.034,15.972-.023,23.9581-.0264.4791,0,.9592-.02,1.4374.0007,2.3693.1023,2.8353.8144,1.9222,3.023a18.5225,18.5225,0,0,1-1.1114,2.12q-2.7476,4.7778-5.516,9.5435Z"/><path class="cls-1" d="M138.8756,3.5091c-2.1572,3.9215-4.4545,7.7629-6.6918,11.6346a.0346.0346,0,0,0,.02.01q-2.9365,5.0865-5.883,10.174c-.16.27-.32.55-.4894.82-1.6781,2.6413-2.5581,2.6116-4.13-.127Q115.6791,15.5254,109.6367,5.03a22.4859,22.4859,0,0,1-1.2416-2.319c-.6411-1.48-.2915-2.01,1.3584-2.1811a13.7573,13.7573,0,0,1,1.44-.021q12.5848.0059,25.16.0122c.24,0,.48-.02.72-.0005C139.4736.6186,140.0242,1.4185,138.8756,3.5091Z"/><path class="cls-1" d="M241.04,77.8083q3.059-5.2877,6.122-10.5729a10.9319,10.9319,0,0,1,1.181-1.7953c.7782-.8762,1.4151-.8438,2.1832.05a9.1466,9.1466,0,0,1,.9309,1.3893Q257.824,77.86,264.1789,88.8487c.08.1381.1659.2731.2409.4139,1.3284,2.4906.8753,3.2933-2.0073,3.2995-8.7018.0187-17.4038-.0084-26.1057-.0246a6.5835,6.5835,0,0,1-1.4269-.11c-1.1458-.2585-1.4619-.7957-1.06-1.9228a12.0694,12.0694,0,0,1,.9855-1.9115Q237.9135,83.1955,241.04,77.8083Z"/><path class="cls-1" d="M185.6929,295.57c-1.8806,3.251-3.7229,6.525-5.6526,9.7467-1.9963,3.3327-2.8913,3.3026-4.8069-.0266q-6.3949-11.1143-12.7926-22.227c-1.4546-2.533-1.32-2.7843,1.51-2.7818q12.2234.0106,24.4467.06a18.4925,18.4925,0,0,1,2.8673.1776c1.3718.2218,1.8021.8891,1.3584,2.2045a20.826,20.826,0,0,1-1.7553,3.9315c-1.7434,2.9609-3.4486,5.9443-5.1692,8.9187Z"/><path class="cls-1" d="M114.2932,46.1162c-2.0808,3.597-4.1362,7.2092-6.25,10.7865-1.7861,3.0223-2.5886,3.0138-4.3353-.0008Q97.3391,45.91,91.0024,34.8991c-1.552-2.6968-1.1953-3.3515,1.9049-3.3561q12.8237-.0191,25.6473.04c3.1806.014,3.63.7536,2.0811,3.5229-2.0668,3.6964-4.2283,7.34-6.3492,11.0061Z"/><path class="cls-1" d="M258.9688,46.8151q3.0579-5.2872,6.1182-10.5731a14.7968,14.7968,0,0,1,1.0053-1.629c.8478-1.1021,1.59-1.1127,2.5141-.0236a10.7734,10.7734,0,0,1,1.0484,1.5991q6.1746,10.6755,12.3379,21.3576c1.9208,3.3219,1.5744,3.9471-2.2691,3.9463q-12.4525-.0029-24.905-.0344c-3.5951-.01-3.95-.6011-2.2025-3.652C254.7192,54.1341,256.85,50.4782,258.9688,46.8151Z"/><path class="cls-1" d="M114.0709,232.4615c-1.9983,3.4543-3.9641,6.9279-6.0043,10.3572-1.8742,3.15-2.9678,3.1565-4.78.0319q-6.2459-10.7677-12.43-21.5708c-.04-.0692-.0808-.1378-.1182-.2083-1.2841-2.4236-.8832-3.2024,1.8091-3.2269,3.9892-.0364,7.9794.031,11.9692.0372,4.3889.0068,8.7778-.0073,13.1667-.008a13.6723,13.6723,0,0,1,1.6731.0475c1.6137.2,2.079.9092,1.5378,2.4554a13.0983,13.0983,0,0,1-1.0687,2.136q-2.86,4.9842-5.75,9.9514Z"/><path class="cls-1" d="M132.017,201.4366c-2,3.4559-3.962,6.9341-6.0091,10.3616-1.8786,3.1453-2.9413,3.1171-4.756-.024q-6.11-10.5772-12.2119-21.1594c-1.8518-3.2143-1.4978-3.8366,2.1514-3.83q12.3346.0224,24.6695.05c3.4591.008,4.0016.9229,2.2636,4.02C136.1317,194.4063,134.0567,197.9116,132.017,201.4366Z"/><path class="cls-1" d="M221.8144,46.2253q-2.8826,4.9828-5.7656,9.9654c-.24.4151-.4749.8344-.7338,1.2378-1.5528,2.4193-2.36,2.4074-3.8279-.131q-6.4236-11.1054-12.8021-22.2366c-1.5938-2.7857-1.1885-3.4665,2.0472-3.4762q12.7093-.0381,25.4188-.0188c3.0581.0038,3.5555.8659,2.0043,3.6418-2.0668,3.6986-4.23,7.3434-6.3519,11.0112Z"/><path class="cls-1" d="M79.4385,46.5769Q82.562,41.18,85.6872,35.7846a10.1357,10.1357,0,0,1,1.0435-1.604,1.2642,1.2642,0,0,1,2.2072.0136,10.806,10.806,0,0,1,1.04,1.608q6.3009,10.8972,12.59,21.8017c1.6843,2.92,1.2982,3.612-2.068,3.6125q-12.4683.0021-24.9364-.0334c-.5594-.001-1.1213.0105-1.6777-.036-1.8418-.1538-2.279-.845-1.3731-2.5085,1.6053-2.9478,3.329-5.831,5.0047-8.74Q78.4743,48.2355,79.4385,46.5769Z"/><path class="cls-1" d="M78.2675,46.0928q-2.8788,4.9763-5.7581,9.9521c-.24.4145-.4757.8326-.7367,1.2339-1.4784,2.2731-2.3547,2.2852-3.7186-.0511Q62.5,47.7141,57.01,38.1633c-.8389-1.4511-1.7244-2.8806-2.4676-4.38-.7242-1.4612-.3646-2.0439,1.2291-2.259a10.6446,10.6446,0,0,1,1.4346-.0367q12.6925.0237,25.385.0515c.08,0,.16-.0023.24-.0007,2.8247.0559,3.2994.8178,1.8881,3.3436-2.103,3.7635-4.3035,7.4724-6.4626,11.2046Z"/><path class="cls-1" d="M275.6978,326.239q-3.1783,5.4914-6.3593,10.9813a10.9467,10.9467,0,0,1-1.058,1.59.9673.9673,0,0,1-1.6335-.0037,12.5487,12.5487,0,0,1-1.2264-1.7639q-6.5881-11.3988-13.1473-22.8143c-1.4447-2.518-1.3-2.7827,1.547-2.7857q13.1655-.0139,26.3311.023c.3988,0,.8-.0091,1.1962.0249,1.84.1579,2.28.8447,1.3849,2.5-1.48,2.7366-3.0831,5.4072-4.6365,8.1044Q276.9011,324.1691,275.6978,326.239Z"/><path class="cls-1" d="M151.0932,233.2927q2.9983-5.1841,5.9977-10.3679c.2-.3456.3948-.6946.6075-1.0322,1.4509-2.3044,2.355-2.3237,3.712.0077,3.2129,5.52,6.3852,11.0629,9.58,16.5932,1.1979,2.074,2.4458,4.12,3.6092,6.2128,1.2524,2.253.8365,3.0254-1.7985,3.0552-5.7472.065-11.4956.0179-17.2436.0209-2.9538.0016-5.9075.0163-8.8613.0151a7.8755,7.8755,0,0,1-1.6672-.0884c-1.1116-.2434-1.457-.8739-1.06-1.9386a11.5885,11.5885,0,0,1,.89-1.6935Q147.97,238.6814,151.0932,233.2927Z"/><path class="cls-1" d="M186.0062,232.7391q-2.7589,4.772-5.52,9.5425c-.32.5529-.6323,1.1122-.9821,1.6462-1.5361,2.3451-2.297,2.3736-3.6585.02q-6.7793-11.7178-13.4974-23.471a6.892,6.892,0,0,1-.43-.8559c-.366-.913.0287-1.3735.9364-1.4643a14.1979,14.1979,0,0,1,1.436-.039q13.1783.0225,26.3565.0507c.3194.0007.641-.0082.9579.024,1.492.1519,1.8813.6439,1.4238,2.0146a13.4314,13.4314,0,0,1-1.15,2.3626C189.9344,225.9671,187.9654,229.35,186.0062,232.7391Z"/><path class="cls-1" d="M25.5284,325.6916c2.15-3.6414,4.4217-7.2082,6.4014-10.9536,1.5735-2.9769,2.6993-2.9437,4.3895-.026q6.42,11.0835,12.7934,22.1945a8.5182,8.5182,0,0,1,.4609.8388c.6371,1.4673.3094,2.0339-1.3091,2.232a11.6965,11.6965,0,0,1-1.4343.046c-8.38-.01-16.76-.0078-25.1393-.0521-1.0615-.0056-2.4315.4163-3.028-.8256-.5436-1.1318.31-2.1575.9135-3.0706C21.7823,332.7394,23.5849,329.1757,25.5284,325.6916Z"/><path class="cls-1" d="M185.839,108.4137q-2.8828,4.9813-5.7649,9.9633c-.16.2767-.3191.5545-.49.8248-1.6732,2.6527-2.5463,2.6458-4.1393-.0932q-6.3279-10.8809-12.6175-21.784c-1.735-3.0136-1.4064-3.586,1.9782-3.5831q12.7072.0111,25.4145.0495c.16,0,.32-.0081.48-.002,2.4226.0931,2.9394.8138,1.7959,2.9632-1.7261,3.2445-3.6276,6.3956-5.4558,9.5857C186.6425,107.0315,186.24,107.7221,185.839,108.4137Z"/><path class="cls-1" d="M221.9818,170.55q-2.7608,4.7769-5.5247,9.552c-.3205.5536-.6309,1.1141-.9758,1.6523-1.5538,2.4257-2.3443,2.4159-3.8-.1017q-6.3633-11.0033-12.689-22.0282c-1.7-2.968-1.3491-3.5788,2.0684-3.5878,8.5539-.0225,17.1079-.01,25.6619-.0067.3986,0,.7988.0253,1.1957.065,1.0382.1038,1.3429.7195,1.1444,1.6758a8.21,8.21,0,0,1-1.0784,2.3951Q224.9889,165.3608,221.9818,170.55Z"/><path class="cls-1" d="M203.8816,201.823c-2.0378,3.5226-4.0423,7.0651-6.1235,10.562-1.8253,3.0668-2.4989,3.0448-4.2337.0137q-6.3606-11.1132-12.7147-22.23c-1.5158-2.6664-1.2761-3.0789,1.8006-3.085,8.2969-.0164,16.5942-.02,24.8909.036,3.9989.0268,4.397.8035,2.3757,4.3435-1.9783,3.4648-3.9915,6.91-5.9894,10.3633Z"/><path class="cls-1" d="M60.18,324.9458q-2.7,4.6677-5.4007,9.3354c-.28.484-.5534.9724-.8464,1.4485-1.6466,2.6763-2.5461,2.678-4.1223-.0506q-6.3525-10.9966-12.6656-22.0161c-1.6273-2.8419-1.2591-3.5086,1.9537-3.5115q12.6994-.0119,25.3989.038c3.2262.0124,3.68.8478,2.0285,3.76-2.0872,3.6813-4.2305,7.3309-6.35,10.9941Z"/><path class="cls-1" d="M133.3965,15.6141q3.1185-5.3928,6.2418-10.7826a9.5,9.5,0,0,1,1.0509-1.5958c.7571-.846,1.4556-.8155,2.202.0817a11.2351,11.2351,0,0,1,1.0336,1.61q6.27,10.9014,12.5267,21.81c1.6619,2.8985,1.37,3.4578-1.8836,3.4656-8.3839.02-16.7678.0085-25.1517.0095-.16,0-.32.0028-.4792-.0014-3.0569-.0806-3.4958-.7911-2.0122-3.3941C129.06,23.07,131.2377,19.3475,133.3965,15.6141Z"/><path class="cls-1" d="M115.3453,46.815q3.0012-5.1886,6.0039-10.3764a17.9029,17.9029,0,0,1,.9944-1.6389c1.0775-1.4685,1.94-1.4984,2.9283.07,1.4044,2.2293,2.6617,4.5513,3.9827,6.8332q4.2637,7.3644,8.5262,14.73c.4.6916.7957,1.3874,1.152,2.102.9745,1.9545.6179,2.6571-1.55,2.7024-3.1145.0648-6.232-.0182-9.3482-.0229q-8.51-.0129-17.02-.0095a10.6835,10.6835,0,0,1-1.6746-.0415c-1.1482-.1844-1.5178-.787-1.1228-1.8583a11.3922,11.3922,0,0,1,.8879-1.6961Q112.2189,52.2082,115.3453,46.815Z"/><path class="cls-1" d="M257.6145,295.1891c-2.24,3.8709-4.4643,7.75-6.7239,11.61-1.2972,2.2154-1.5753,2.221-2.902-.0558q-6.15-10.5546-12.2435-21.1421c-.56-.9675-1.1748-1.9088-1.6576-2.9134-.7483-1.557-.3622-2.2556,1.403-2.3041,3.1113-.0853,6.2264-.04,9.34-.0328,5.7485.0126,11.4971.02,17.2454.0626,3.4167.0252,3.7268.5891,2.0138,3.5759C261.944,287.73,259.7741,291.4565,257.6145,295.1891Z"/><path class="cls-1" d="M97.48,140.0055q3-5.1854,6-10.37c.28-.4838.5452-.9793.863-1.4377,1.1109-1.6022,1.9295-1.59,3.0842.04.23.3247.4107.6845.61,1.0306q6.1546,10.6926,12.3063,21.3873c1.9383,3.3757,1.6372,3.8787-2.2261,3.8744q-12.0981-.0133-24.1963-.0125c-.4791,0-.9586-.0013-1.4373-.0191-2.5386-.0944-2.9318-.6968-1.706-2.8677,2.1991-3.8947,4.4681-7.75,6.7078-11.6216Z"/><path class="cls-1" d="M42.2852,45.9718c-2.0388,3.5243-4.0448,7.0683-6.1267,10.567-1.7179,2.887-2.7476,2.86-4.4578-.0856Q25.5087,45.7885,19.362,35.0976c-.04-.0691-.0775-.14-.115-.21-1.3346-2.5053-.8858-3.3364,1.89-3.4257,1.1959-.0385,2.3943.0037,3.5915.0038q10.5359.0009,21.0718-.0029c4.16-.0046,4.5235.5789,2.4828,4.1445-1.9828,3.4645-3.9942,6.9125-5.993,10.3678Z"/><path class="cls-1" d="M51.6751,276.2192c-.1923-.2959-.5166-.75-.7948-1.23q-6.73-11.6168-13.4413-23.2441c-1.3668-2.3773-1.0661-2.86,1.7016-2.86q13.3057,0,26.6114.0355c.4783.0009.9586.0128,1.4344.0579.9885.0936,1.1917.6728.8473,1.5069a12.7227,12.7227,0,0,1-.7478,1.5q-6.5361,11.3168-13.09,22.623a10.8168,10.8168,0,0,1-1.0979,1.5634C52.7678,276.5605,52.3236,276.7488,51.6751,276.2192Z"/><path class="cls-1" d="M158.7621,214.1188c-.2129-.3084-.5617-.7448-.8375-1.2233q-6.4074-11.1153-12.7971-22.2409c-.1194-.2078-.2277-.4224-.3335-.6375-1.0744-2.1857-.6746-2.9735,1.7445-3,4.5553-.05,9.1119.03,13.668.039,3.8369.0072,7.6739-.014,11.5109-.0141a13.5847,13.5847,0,0,1,1.9157.0787c1.4461.2069,1.8143.7812,1.3309,2.1324a12.0584,12.0584,0,0,1-.9667,1.9249q-5.995,10.3872-12.0092,20.7633a7.5992,7.5992,0,0,1-1.5356,2.128A1.2384,1.2384,0,0,1,158.7621,214.1188Z"/><path class="cls-1" d="M24.4914,76.7317c-2.04,3.5266-4.0488,7.072-6.13,10.5744-1.8668,3.1416-2.9411,3.1245-4.7633-.0267Q7.5409,76.8043,1.5215,66.3073C-.2356,63.2354.1545,62.5419,3.63,62.5329c8.4659-.0222,16.9318-.0083,25.3978-.0077a7.9532,7.9532,0,0,1,.9575.025c1.4541.1767,1.833.7239,1.3513,2.0928a11.8527,11.8527,0,0,1-.9646,1.9235q-2.9256,5.091-5.8758,10.1678Z"/><path class="cls-1" d="M185.7774,46.1981c-2.078,3.592-4.1257,7.202-6.2437,10.77-1.6352,2.7549-2.4716,2.7484-4.0686-.0015q-6.25-10.7632-12.4465-21.558c-1.7029-2.9723-1.2146-3.7842,2.2071-3.7872q12.4464-.0113,24.8929.012c.08,0,.16-.0023.2393-.0005,2.82.067,3.29.8339,1.8746,3.3639-2.1036,3.76-4.3017,7.4682-6.4595,11.1984Z"/><path class="cls-1" d="M149.9255,108.1687c-2.0013,3.4609-3.9683,6.9423-6.0153,10.376-1.8892,3.1689-2.8769,3.1236-4.71-.0574-3.9918-6.9261-8.0113-13.8363-11.9945-20.7673-.5791-1.0075-1.6151-2.0656-.8806-3.2819.6686-1.1072,2.0258-.7205,3.1056-.7215q12.3507-.0112,24.7013.0441c3.0956.0094,3.5844.83,2.0274,3.6042C154.1245,100.9905,152.0068,104.5694,149.9255,108.1687Z"/><path class="cls-1" d="M239.8148,264.6105q-3.0574,5.2864-6.1175,10.5714c-.32.552-.6513,1.0987-1.0023,1.6315-.52.7895-1.1155.8591-1.7019.0833a13.5047,13.5047,0,0,1-.901-1.411q-6.5152-11.3063-13.0221-22.6174c-.1194-.2075-.2534-.4073-.3618-.62-1.0593-2.0793-.713-2.7,1.6945-2.7067,8.779-.0265,17.5581-.0056,26.3373.0008a7.1705,7.1705,0,0,1,.9552.0587c1.45.1968,1.8209.6961,1.3836,2.0782a11.2753,11.2753,0,0,1-1.035,2.148C243.9792,257.4283,241.8931,261.0171,239.8148,264.6105Z"/><path class="cls-1" d="M151.411,46.7788q3.0645-5.2972,6.1318-10.5929a11.2673,11.2673,0,0,1,1.0341-1.6131,1.34,1.34,0,0,1,2.378.01,11.723,11.723,0,0,1,1.0191,1.6233q6.2283,10.8113,12.4464,21.6283c1.6054,2.7948,1.225,3.46-2.0232,3.4637q-12.8368.0132-25.6738-.015a7.2712,7.2712,0,0,1-1.432-.0975c-1.1369-.2313-1.4429-.7849-1.0171-1.9058a12.0819,12.0819,0,0,1,.89-1.6972Q148.2813,52.1771,151.411,46.7788Z"/><path class="cls-1" d="M61.3583,325.4167q3.06-5.2866,6.1215-10.5724a12.6109,12.6109,0,0,1,1.0351-1.6094c.8933-1.107,1.4329-1.1184,2.1744.1064,1.6532,2.7312,3.2229,5.5132,4.8174,8.28q4.4847,7.7813,8.9554,15.57c1.3247,2.3144.9959,2.893-1.727,2.8952-8.6214.0071-17.2428-.023-25.8642-.04-.2392,0-.4791-.012-.7175-.0322-2.16-.1831-2.6133-.8448-1.578-2.7487,1.8685-3.4362,3.8738-6.798,5.8225-10.19Q60.8752,326.2443,61.3583,325.4167Z"/><path class="cls-1" d="M97.483,202.308q3.0619-5.2926,6.1257-10.5841a13.3732,13.3732,0,0,1,1.0141-1.6255c.8572-1.0826,1.6563-1.0872,2.5424-.0341a8.216,8.216,0,0,1,.7673,1.212q6.2866,10.9037,12.564,21.8125c1.6972,2.9556,1.3327,3.5982-2.0458,3.5972q-12.466-.0035-24.932-.0471c-3.7917-.0154-4.0418-.4705-2.1576-3.7445Q94.4111,207.5948,97.483,202.308Z"/><path class="cls-1" d="M7.9039,46.5778Q10.8461,41.49,13.79,36.4038c.3206-.5534.6188-1.125.9913-1.6421.9992-1.387,1.791-1.4029,2.7854-.0742a12.1649,12.1649,0,0,1,.7653,1.218Q24.69,46.9124,31.038,57.9246a7.9979,7.9979,0,0,1,.6326,1.2888c.3292.925.0585,1.5922-.971,1.76a11.9648,11.9648,0,0,1-1.9088.14q-12.8307.01-25.6617-.003a7.45,7.45,0,0,1-1.4329-.0629A1.1946,1.1946,0,0,1,.6724,59.29a11.2279,11.2279,0,0,1,.8692-1.7054Q4.7144,52.0766,7.9039,46.5778Z"/><path class="cls-1" d="M115.4455,108.95q3.0635-5.2956,6.1291-10.59a12.5356,12.5356,0,0,1,1.0195-1.6229c.7868-.9734,1.5691-.9915,2.3818-.0457A10.4213,10.4213,0,0,1,126.0152,98.3q6.181,10.6951,12.3516,21.3965c1.7767,3.0775,1.4333,3.7082-2.0983,3.71q-12.4726.0084-24.9451-.0159c-.24,0-.48.0109-.7192-.0009-2.3872-.1171-2.9064-.9311-1.7429-3.0056,2.1513-3.8359,4.39-7.6227,6.5927-11.43Z"/><path class="cls-1" d="M79.7,295.3559q2.9406-5.0835,5.8819-10.1666c.24-.4149.47-.8373.7341-1.2365,1.2585-1.901,2.1543-1.9523,3.3486-.0679,1.1537,1.82,2.1788,3.7222,3.2585,5.5894q4.7985,8.2984,9.596,16.5976c.16.2767.33.5478.4821.8286,1.255,2.3149.895,2.9639-1.7818,2.967-8.6274.01-17.2548-.0192-25.8821-.0353a7.208,7.208,0,0,1-1.1955-.0416c-1.456-.2491-1.9111-1.0317-1.3539-2.3749a14.809,14.809,0,0,1,.9124-1.6845Q76.6959,300.5411,79.7,295.3559Z"/><path class="cls-1" d="M149.8759,170.5793q-2.82,4.875-5.6416,9.7491c-.28.4837-.5545.9735-.8717,1.4328-1.4247,2.0626-2.1182,2.0684-3.38-.0886-3.1055-5.3081-6.1651-10.643-9.2461-15.9654-1.2005-2.0736-2.4212-4.1357-3.6059-6.2182a12.2132,12.2132,0,0,1-.9058-1.9473.9846.9846,0,0,1,.8217-1.4274,11.715,11.715,0,0,1,2.1394-.1874q12.8188.0181,25.6376.0722c2.3975.0113,2.9016.7606,1.7144,2.9312-2.1459,3.9235-4.4533,7.7587-6.6933,11.6309Z"/><path class="cls-1" d="M79.6283,233.173q3.0017-5.189,6.0042-10.3776c.24-.4149.47-.8384.7407-1.2329,1.1267-1.6412,1.9821-1.6723,3.0706-.0718.4928.7246.8807,1.52,1.32,2.2817q5.8734,10.173,11.7443,20.3476c1.8139,3.1549,1.5522,3.5959-2.1084,3.5972q-12.1068.0041-24.2136-.0215c-.5593-.0007-1.1214.0177-1.6776-.0287-2.0178-.1682-2.5717-1.0719-1.5747-2.854,2.1853-3.9057,4.4653-7.7585,6.7066-11.6329Z"/><path class="cls-1" d="M97.7981,264.0725q2.9982-5.1827,6.0012-10.3625a11.1667,11.1667,0,0,1,1.1925-1.7863,1.16,1.16,0,0,1,2.0115.0563,20.408,20.408,0,0,1,1.2905,2.0133q6.3541,10.9851,12.69,21.9807c1.4909,2.59,1.3781,2.803-1.6823,2.8082-8.7.0148-17.4-.0078-26.0993-.0191a7.9468,7.9468,0,0,1-1.1942-.058c-1.3856-.2129-1.7993-.8537-1.3286-2.1556a10.9833,10.9833,0,0,1,.8852-1.6954Q94.6747,269.4594,97.7981,264.0725Z"/><path class="cls-1" d="M223.4318,46.8965q3.0646-5.2964,6.1333-10.59a10.9372,10.9372,0,0,1,1.1961-1.7893,1.1213,1.1213,0,0,1,1.8592-.0158,12.0572,12.0572,0,0,1,1.2177,1.7737q6.24,10.8029,12.4572,21.6188c.12.2079.244.4132.3585.6238,1.2721,2.34.9446,2.9537-1.7493,2.9579-8.7165.0137-17.4331-.0188-26.15-.0372a7.5515,7.5515,0,0,1-1.1967-.0639c-1.376-.2246-1.7252-.8619-1.166-2.197a15.21,15.21,0,0,1,.913-1.6867Q220.3639,52.1909,223.4318,46.8965Z"/><path class="cls-1" d="M169.5909,264.5823q2.8813-4.9817,5.7634-9.9629c.28-.4842.5518-.9741.8479-1.4485,1.3308-2.133,2.0949-2.1641,3.3733-.0737,1,1.6356,1.9241,3.318,2.8844,4.9781q4.8618,8.4042,9.7232,16.8085a17.62,17.62,0,0,1,1.0245,1.8973c.5725,1.3506.2555,1.9476-1.1683,2.1956a11.108,11.108,0,0,1-1.911.0931q-12.5861-.0183-25.1721-.0512a8.3661,8.3661,0,0,1-1.1967-.04c-1.4466-.2134-1.7866-.797-1.2091-2.1272a16.8985,16.8985,0,0,1,.9186-1.6824Q166.5264,269.8735,169.5909,264.5823Z"/><path class="cls-1" d="M151.5823,295.7124q3.0622-5.2925,6.1256-10.5843a16.0214,16.0214,0,0,1,1.0035-1.633c.7706-1.0232,1.4666-1.06,2.34-.111a7.7321,7.7321,0,0,1,.9394,1.3841q6.3652,10.9965,12.7131,22.0031c1.4614,2.5379,1.0773,3.2909-1.8066,3.3009q-13.0653.0456-26.1308-.0213c-2.8277-.0131-3.1021-.5773-1.6618-3.1269,1.1792-2.0876,2.3955-4.1545,3.5957-6.23Q150.1407,298.2027,151.5823,295.7124Z"/><path class="cls-1" d="M223.3037,233.3774c2.0383-3.5263,4.04-7.0747,6.129-10.57,1.7768-2.9724,2.5886-2.9388,4.33.0814q6.1026,10.5831,12.1731,21.1846c.5406.9447,1.5059,1.9449.8637,3.0581-.6432,1.1151-1.9882.7744-3.0784.7733q-12.2163-.0127-24.4325-.0637c-3.2682-.0153-3.7849-.8338-2.2075-3.67C219.0993,240.5415,221.2253,236.9727,223.3037,233.3774Z"/><path class="cls-1" d="M277.5562,326.4945q2.8218-4.878,5.6445-9.7555c.24-.415.4764-.8337.74-1.2336,1.385-2.098,2.1207-2.1266,3.3842.0092,2.0751,3.5075,4.0691,7.0629,6.1063,10.593q3.1755,5.5029,6.3649,10.9978a16.3972,16.3972,0,0,1,1.0144,1.9022c.6019,1.4587.2415,2.0376-1.38,2.2263a18.6,18.6,0,0,1-2.1553.0588q-11.6283-.007-23.2566-.0222c-.24,0-.48.0158-.7191.0112-3.2264-.0611-3.7117-.8768-2.0871-3.7741,2.0719-3.6949,4.2308-7.341,6.3522-11.0082Z"/><path class="cls-1" d="M68.0785,60.7528a3.1385,3.1385,0,0,1-2.12.4145c-8.5417-.0022-17.0835.0054-25.6251-.0252-4.0951-.0148-4.4318-.6449-2.3578-4.2368q6.0487-10.476,12.1185-20.94c1.7071-2.9372,2.415-2.9339,4.1209.0161q6.5937,11.4024,13.154,22.8243A3.1643,3.1643,0,0,1,68.0785,60.7528Z"/><path class="cls-1" d="M187.3247,47.0044q3.0642-5.2975,6.13-10.5938a15.0836,15.0836,0,0,1,1.0059-1.6332c.8529-1.1141,1.5941-1.1023,2.5034.0005a5.769,5.769,0,0,1,.5167.8074c4.2288,7.3479,8.4792,14.6835,12.6706,22.0525,1.7157,3.0164,1.2755,3.6686-2.2986,3.6725q-12.357.0135-24.7141.0068c-3.4725-.0021-3.7762-.5178-2.06-3.5084C183.1492,54.2006,185.2419,50.6053,187.3247,47.0044Z"/><path class="cls-1" d="M151.5468,108.8517q3.0612-5.2911,6.1249-10.5809a15.0389,15.0389,0,0,1,1.03-1.6147,1.1336,1.1336,0,0,1,1.9919-.08,9.3086,9.3086,0,0,1,.94,1.3831q6.7251,11.6149,13.4338,23.2393a8.8417,8.8417,0,0,1,.5414,1.0662c.2193.537.09.9545-.538,1.0509a9.432,9.432,0,0,1-1.43.1046c-8.6282-.002-17.2565.0071-25.8845-.0283-3.8592-.0157-4.2217-.6657-2.33-3.9566Q148.4735,114.136,151.5468,108.8517Z"/><path class="cls-1" d="M25.6033,263.5676q3.0041-5.1917,6.0078-10.3835c.16-.2768.3184-.5555.4917-.8241,1.3142-2.0376,2.1672-2.13,3.471-.0649,1.8767,2.9723,3.5677,6.0623,5.3211,9.1118q3.8261,6.6545,7.6272,13.3232a14.1293,14.1293,0,0,1,.7979,1.4758c.4473,1.0579.2441,1.4889-.9461,1.572-1.6713.1167-3.3545.0733-5.0327.0768-7.0363.0146-14.0727.038-21.1089.0244-4.2687-.0083-4.5627-.559-2.3934-4.3415C21.7486,270.2075,23.6807,266.89,25.6033,263.5676Z"/><path class="cls-1" d="M151.6457,170.9889q2.7007-4.6722,5.4036-9.3431c.2-.3461.3991-.6928.6019-1.0373,1.8839-3.2,2.434-3.1907,4.3784.09.53.8938,1.0309,1.8045,1.5493,2.705q5.3234,9.2482,10.6453,18.4973c1.7205,3,1.2674,3.8077-2.1751,3.8046q-12.23-.0108-24.459-.0822c-3.41-.0189-3.8831-.8546-2.1835-3.8348C147.4662,178.1771,149.5649,174.5881,151.6457,170.9889Z"/><path class="cls-1" d="M132.0188,139.1425q-2.64,4.5637-5.281,9.1273c-.32.553-.6318,1.112-.9755,1.65-1.6665,2.61-2.5849,2.6007-4.1628-.1163q-6.1968-10.6705-12.3409-21.372c-1.7346-3.0232-1.4076-3.5958,1.968-3.5981q12.3394-.0085,24.679.0119c3.5276.0071,3.9366.676,2.221,3.71-2.0055,3.5462-4.0722,7.0578-6.1123,10.5845Z"/><path class="cls-1" d="M169.0711,203.1568c2.67-4.616,4.7917-8.2864,6.9177-11.9542a11.5036,11.5036,0,0,1,.886-1.4213,1.0226,1.0226,0,0,1,1.7992.03,15.3006,15.3006,0,0,1,1.1588,1.8176q6.1808,10.6981,12.3473,21.4046c1.7807,3.0952,1.4223,3.7133-2.1025,3.7113q-12.2352-.0068-24.4706-.0147c-.48,0-.9606.0153-1.4394-.0089-2.09-.1057-2.64-.9937-1.4972-2.7347C165.1754,210.1692,167.2484,206.103,169.0711,203.1568Z"/><path class="cls-1" d="M96.1418,325.7745q-2.8829,4.9845-5.7668,9.9686c-.2.346-.3969.6948-.6109,1.0323-1.4222,2.2434-1.9277,2.2822-3.2253.05q-6.7507-11.6133-13.4246-23.2713c-1.086-1.8951-.8039-2.4315,1.3512-2.467,3.5968-.0593,7.1956.0086,10.7937.007q7.3159-.0032,14.632-.0294a13.2344,13.2344,0,0,1,1.4384.0166c1.7279.1863,2.2735,1.008,1.6787,2.5968a13.2422,13.2422,0,0,1-.9837,1.9178Q99.0932,320.6909,96.1418,325.7745Z"/><path class="cls-1" d="M187.3987,171.4921q3.1827-5.5018,6.3676-11.0023a13.11,13.11,0,0,1,1.0181-1.623c.6744-.8459,1.2441-.8407,1.9507-.0223a6.3874,6.3874,0,0,1,.643,1.0083c4.1885,7.2729,8.3984,14.5336,12.55,21.8276,2.0094,3.53,1.6847,4.0433-2.33,4.0415-8.2332-.0038-16.4664-.0053-24.6995-.0468-.9137-.0046-2.1177.3775-2.6545-.6023-.5763-1.052.3556-1.9219.8723-2.8069,2.0959-3.59,4.1693-7.1936,6.251-10.7921Z"/><path class="cls-1" d="M221.4833,232.7631q-2.82,4.874-5.64,9.748c-.2.3457-.3969.6937-.612,1.03-1.5128,2.3655-2.3114,2.4224-3.679.0656-4.4488-7.6665-8.8382-15.3673-13.2468-23.0571a7.466,7.466,0,0,1-.5319-1.07c-.2617-.6961.0737-1.0851.7471-1.1715a13.0156,13.0156,0,0,1,1.6722-.0677q12.9368.015,25.8735.04c2.8686.0057,3.2859.6645,1.8625,3.2635-1.7261,3.1517-3.5711,6.2383-5.3651,9.3528Q222.0252,231.8309,221.4833,232.7631Z"/><path class="cls-1" d="M311.6437,325.45c-2.3594,4.0786-4.3572,7.538-6.3628,10.9929a12.0986,12.0986,0,0,1-1.0262,1.6157,1.112,1.112,0,0,1-1.9767.0118,11.28,11.28,0,0,1-1.015-1.6212q-6.3031-10.888-12.5995-21.78c-.04-.0691-.0835-.1363-.1221-.2062-1.2584-2.2784-.886-2.958,1.7945-2.9666,8.6268-.0276,17.2537-.0066,25.8806-.0009a11.2888,11.2888,0,0,1,1.1949.0554,1.2248,1.2248,0,0,1,1.2093,1.6515,4.9651,4.9651,0,0,1-.7994,1.9876C315.3076,318.6166,313.5319,322.4853,311.6437,325.45Z"/><path class="cls-1" d="M78.469,169.672q-3.0018,5.1891-6.0046,10.3777c-.24.4149-.4681.84-.7436,1.231-1.1912,1.6913-2.1412,1.7106-3.2264-.0993-1.931-3.2207-3.75-6.5083-5.6249-9.7628-2.473-4.2932-4.9685-8.5736-7.427-12.8749-1.4081-2.4635-1.2131-2.83,1.62-2.839,8.5506-.0272,17.1013-.01,25.652-.0076a8.4213,8.4213,0,0,1,.9573.0444c1.8854.2169,2.2926.8555,1.3716,2.4978-2.15,3.834-4.3862,7.62-6.5875,11.4251Z"/><path class="cls-1" d="M43.62,170.8022q2.9375-5.0775,5.8761-10.1543a17.2656,17.2656,0,0,1,.9951-1.6352c1.0768-1.4575,1.965-1.481,2.94.0508,1.1125,1.7482,2.0713,3.5936,3.1114,5.3883q5.0412,8.6985,10.0889,17.3934c1.3963,2.4191,1.1844,2.8241-1.64,2.83-8.6972.0194-17.3946-.0148-26.0918-.0314a5.9853,5.9853,0,0,1-.9548-.0581c-1.3747-.2262-1.6589-.7006-1.1168-1.9492a16.8614,16.8614,0,0,1,.9193-1.6788Q40.68,175.8781,43.62,170.8022Z"/><path class="cls-1" d="M79.6177,108.5755q3.001-5.1885,6.0035-10.376a15.6217,15.6217,0,0,1,.87-1.4342c.968-1.3192,1.82-1.2985,2.8117.0493a8.6773,8.6773,0,0,1,.4881.8245q6.2281,10.7965,12.4528,21.5953c1.4728,2.5606,1.2763,2.9042-1.7011,2.9271q-12.8238.0985-25.6478.1579c-2.899.0122-3.0554-.2631-1.6355-2.7423C75.3642,115.9015,77.497,112.242,79.6177,108.5755Z"/></g></g></svg>