<svg xmlns="http://www.w3.org/2000/svg" width="699.7167" height="1267.0428" viewBox="0 0 699.7167 1267.0428"><defs><style>.cls-1,.cls-2,.cls-4,.cls-5{fill:#fff;stroke:#000;}.cls-1,.cls-2,.cls-5{stroke-miterlimit:10;}.cls-2,.cls-4,.cls-5{font-size:120px;font-family:ConcertOne-Regular, Concert One;}.cls-2{letter-spacing:-0.071em;}.cls-3{stroke-miterlimit:4;}.cls-4,.cls-5{letter-spacing:-0.044em;}</style></defs><g id="Layer_2" data-name="Layer 2"><g id="Layer_1-2" data-name="Layer 1"><path class="cls-1" d="M347.4963,673.7586,333.5718,659.834a4.5542,4.5542,0,0,1,0-6.4407l13.8728-13.8728a4.5545,4.5545,0,0,0,0-6.4408l-14.6363-14.6362a4.5542,4.5542,0,0,0-6.4407,0l-13.8729,13.8728a4.5542,4.5542,0,0,1-6.4407,0l-13.9882-13.9882a4.5543,4.5543,0,0,0-6.4408,0l-14.6362,14.6362a4.5543,4.5543,0,0,0,0,6.4408l13.9882,13.9882a4.5544,4.5544,0,0,1,0,6.4407l-14.04,14.04a4.5543,4.5543,0,0,0,0,6.4408l14.6362,14.6363a4.5545,4.5545,0,0,0,6.4408,0l14.04-14.04a4.5542,4.5542,0,0,1,6.4407,0l13.9245,13.9245a4.5543,4.5543,0,0,0,6.4408,0l14.6363-14.6363A4.5542,4.5542,0,0,0,347.4963,673.7586Z"/><text class="cls-2" transform="translate(112.9896 329.1678)"><tspan xml:space="preserve">   Wo</tspan><tspan class="cls-3" x="253.2983" y="0">rld</tspan><tspan x="0" y="75" xml:space="preserve">  F</tspan><tspan class="cls-3" x="122.9165" y="75">usi</tspan><tspan x="250.4033" y="75">o</tspan><tspan class="cls-3" x="299.8911" y="75">n</tspan><tspan x="0" y="150" xml:space="preserve"> Food</tspan><tspan x="0" y="225">Fo</tspan><tspan class="cls-3" x="95.9287" y="225">undr</tspan></text><text class="cls-4" transform="translate(408.3485 555.6521)">y</text><circle class="cls-1" cx="342.0973" cy="297.9646" r="33"/><path class="cls-1" d="M357.53,290.8256a17,17,0,0,1-27.0891,19.5136"/><path class="cls-1" d="M325.0973,297.9646a17.0148,17.0148,0,0,1,20.1758-16.7038"/><circle class="cls-1" cx="391.2167" cy="374.6521" r="33"/><path class="cls-1" d="M406.65,367.5131A17,17,0,0,1,379.56,387.0267"/><path class="cls-1" d="M374.2167,374.6521a17,17,0,0,1,17-17,17.0942,17.0942,0,0,1,3.1758.2961"/><circle class="cls-1" cx="222.2167" cy="450.6521" r="33"/><path class="cls-1" d="M237.65,443.5131A17,17,0,0,1,210.56,463.0267"/><path class="cls-1" d="M205.2167,450.6521a17,17,0,0,1,17-17,17.0942,17.0942,0,0,1,3.1758.2961"/><circle class="cls-1" cx="276.2167" cy="450.6521" r="33"/><path class="cls-1" d="M291.65,443.5131A17,17,0,0,1,264.56,463.0267"/><path class="cls-1" d="M259.2167,450.6521a17,17,0,0,1,17-17,17.0942,17.0942,0,0,1,3.1758.2961"/><circle class="cls-1" cx="187.2167" cy="524.6521" r="33"/><path class="cls-1" d="M202.65,517.5131A17,17,0,0,1,175.56,537.0267"/><path class="cls-1" d="M170.2167,524.6521a17,17,0,0,1,17-17,17.0942,17.0942,0,0,1,3.1758.2961"/><path class="cls-1" d="M362.8,331.3045q0,4.5117-2.3437,6.709a10.8985,10.8985,0,0,1-13.125,0q-2.3453-2.1972-2.3438-6.709,0-4.6875,2.3438-6.7969a9.4642,9.4642,0,0,1,6.5625-2.1093q4.51,0,6.7089,2.1093T362.8,331.3045Z"/><text class="cls-5" transform="translate(49.9896 857.1678)"><tspan xml:space="preserve">   Total</tspan><tspan x="0" y="75" xml:space="preserve">  Guide to </tspan><tspan x="0" y="150" xml:space="preserve"> Geography</tspan><tspan x="0" y="225">Game</tspan></text><path class="cls-1" d="M262.6739,792.0781H240.6325a14.1984,14.1984,0,0,0-12.2963,7.0993l-11.0207,19.0884a14.1983,14.1983,0,0,0,0,14.1986l11.0207,19.0884a14.1984,14.1984,0,0,0,12.2963,7.0993h22.0414a14.1986,14.1986,0,0,0,12.2964-7.0993l11.0207-19.0884a14.1988,14.1988,0,0,0,0-14.1986L274.97,799.1774A14.1986,14.1986,0,0,0,262.6739,792.0781Z"/><path class="cls-1" d="M280.2888,858.9966q0,4.5117-2.3438,6.709a10.8989,10.8989,0,0,1-13.125,0q-2.3451-2.1974-2.3437-6.709,0-4.6875,2.3437-6.7969a9.4639,9.4639,0,0,1,6.5625-2.1094q4.51,0,6.709,2.1094T280.2888,858.9966Z"/><path class="cls-1" d="M523.6064,866.5143H501.5651a14.1985,14.1985,0,0,0-12.2964,7.0993L478.248,892.702a14.1988,14.1988,0,0,0,0,14.1986l11.0207,19.0884a14.1985,14.1985,0,0,0,12.2964,7.0993h22.0413a14.1985,14.1985,0,0,0,12.2964-7.0993l11.0207-19.0884a14.1988,14.1988,0,0,0,0-14.1986l-11.0207-19.0884A14.1985,14.1985,0,0,0,523.6064,866.5143Z"/><path class="cls-1" d="M248.7582,940.8106H226.7168A14.1989,14.1989,0,0,0,214.42,947.91L203.4,966.9983a14.199,14.199,0,0,0,0,14.1987l11.0207,19.0884a14.1989,14.1989,0,0,0,12.2964,7.0993h22.0414a14.1986,14.1986,0,0,0,12.2963-7.0993l11.0207-19.0884a14.1985,14.1985,0,0,0,0-14.1987L261.0545,947.91A14.1986,14.1986,0,0,0,248.7582,940.8106Z"/><circle class="cls-1" cx="153.4847" cy="162.5079" r="33"/><path class="cls-1" d="M168.9176,155.3688a17,17,0,0,1-27.0892,19.5137"/><path class="cls-1" d="M136.4847,162.5079a17,17,0,0,1,17-17,17.0926,17.0926,0,0,1,3.1758.2961"/><circle class="cls-1" cx="366.4847" cy="33.5079" r="33"/><path class="cls-1" d="M383.194,30.355A17,17,0,0,1,352.1587,42.66"/><path class="cls-1" d="M350,29.3551a17.0152,17.0152,0,0,1,23.6449-11.2693"/><circle class="cls-1" cx="548.7918" cy="524.6003" r="33"/><path class="cls-1" d="M554.3689,540.6638a17,17,0,0,1-16.7378-28.887"/><path class="cls-1" d="M550.4738,507.6837a17,17,0,0,1,15.2345,18.5986,17.09,17.09,0,0,1-.6088,3.1309"/><circle class="cls-1" cx="449.5505" cy="84.5276" r="33"/><path class="cls-1" d="M454.2562,68.1876a17,17,0,0,1-2.9814,33.2524"/><path class="cls-1" d="M438.422,97.379a17.015,17.015,0,0,1,.58-26.1867"/><path class="cls-1" d="M24.7329,758.6462,6.6138,771.1969A14.1986,14.1986,0,0,0,.5481,784.0346l1.81,21.967a14.1986,14.1986,0,0,0,8.0849,11.672L30.3715,827.09a14.1985,14.1985,0,0,0,14.1507-1.1658l18.1191-12.5507a14.1986,14.1986,0,0,0,6.0657-12.8378l-1.81-21.9669a14.1986,14.1986,0,0,0-8.0849-11.672L38.8836,757.48A14.1985,14.1985,0,0,0,24.7329,758.6462Z"/><path class="cls-1" d="M515.9812,1148.3931l-20.4828-8.1411a14.1984,14.1984,0,0,0-14.049,2.0556l-17.2918,13.668a14.1985,14.1985,0,0,0-5.2444,13.1946l3.191,21.8092a14.1986,14.1986,0,0,0,8.8047,11.139l20.4827,8.1412a14.1988,14.1988,0,0,0,14.0491-2.0556l17.2918-13.668a14.1988,14.1988,0,0,0,5.2444-13.1946l-3.191-21.8092A14.1989,14.1989,0,0,0,515.9812,1148.3931Z"/><path class="cls-1" d="M419.4657,1199.9688H397.4244a14.1985,14.1985,0,0,0-12.2964,7.0993l-11.0207,19.0884a14.1988,14.1988,0,0,0,0,14.1986l11.0207,19.0884a14.1985,14.1985,0,0,0,12.2964,7.0993h22.0413a14.1985,14.1985,0,0,0,12.2964-7.0993l11.0207-19.0884a14.1988,14.1988,0,0,0,0-14.1986l-11.0207-19.0884A14.1985,14.1985,0,0,0,419.4657,1199.9688Z"/></g></g></svg>