<svg xmlns="http://www.w3.org/2000/svg" width="582.2942" height="1267.0428" viewBox="0 0 582.2942 1267.0428"><defs><style>.cls-1,.cls-2{fill:#fff;stroke:#000;}.cls-1{stroke-miterlimit:10;}</style></defs><g id="Layer_2" data-name="Layer 2"><g id="Layer_1-2" data-name="Layer 1"><path class="cls-1" d="M347.4963,673.7586,333.5718,659.834a4.5542,4.5542,0,0,1,0-6.4407l13.8728-13.8728a4.5545,4.5545,0,0,0,0-6.4408l-14.6363-14.6362a4.5542,4.5542,0,0,0-6.4407,0l-13.8729,13.8728a4.5542,4.5542,0,0,1-6.4407,0l-13.9882-13.9882a4.5543,4.5543,0,0,0-6.4408,0l-14.6362,14.6362a4.5543,4.5543,0,0,0,0,6.4408l13.9882,13.9882a4.5544,4.5544,0,0,1,0,6.4407l-14.04,14.04a4.5543,4.5543,0,0,0,0,6.4408l14.6362,14.6363a4.5545,4.5545,0,0,0,6.4408,0l14.04-14.04a4.5542,4.5542,0,0,1,6.4407,0l13.9245,13.9245a4.5543,4.5543,0,0,0,6.4408,0l14.6363-14.6363A4.5542,4.5542,0,0,0,347.4963,673.7586Z"/><path class="cls-1" d="M277.039,247.4877a8.08,8.08,0,0,1,3.0761.5859,8.86,8.86,0,0,1,2.5782,1.6114,9.8528,9.8528,0,0,1,1.9629,2.4609,10.6868,10.6868,0,0,1,1.1718,3.0762L295.9062,301.98h1.9921q2.461-11.4258,5.0391-23.35t5.1563-23.4082a14.8093,14.8093,0,0,1,1.582-4.043,10.2755,10.2755,0,0,1,2.6074-2.7832,7.0662,7.0662,0,0,1,4.3652-1.26,8.3738,8.3738,0,0,1,3.6036.7325,8.0027,8.0027,0,0,1,2.5781,1.875,7.7281,7.7281,0,0,1,1.5234,2.49,7.5865,7.5865,0,0,1,.4981,2.6367c0,.4688-.02.919-.0586,1.3477a7.3844,7.3844,0,0,1-.1758,1.1132q-.1171.5874-.2344,1.0547l-16.0547,63.75a12.0093,12.0093,0,0,1-2.3437,3.5157,12.3317,12.3317,0,0,1-3.1934,2.4316,10.0064,10.0064,0,0,1-4.8926,1.084h-1.9921a9.4994,9.4994,0,0,1-4.8047-1.084,10.8486,10.8486,0,0,1-2.9883-2.4316,10.26,10.26,0,0,1-1.9336-3.5157L277.9765,287.8h-1.9922q-1.875,8.3217-4.0137,17.168-2.1387,8.8491-4.0723,17.1679a10.96,10.96,0,0,1-5.0683,5.9473,9.3345,9.3345,0,0,1-4.7754,1.084h-1.9922a10.3543,10.3543,0,0,1-4.9512-1.084,13.0573,13.0573,0,0,1-3.31-2.4316,11.4587,11.4587,0,0,1-2.4024-3.5157l-15.82-63.75q-.1172-.4673-.2343-1.0547a7.3591,7.3591,0,0,1-.1758-1.1132c-.0391-.4287-.0586-.8789-.0586-1.3477a7.5863,7.5863,0,0,1,.498-2.6367,7.73,7.73,0,0,1,1.5235-2.49,8.0017,8.0017,0,0,1,2.5781-1.875,8.3731,8.3731,0,0,1,3.6035-.7325,7.0658,7.0658,0,0,1,4.3652,1.26,10.276,10.276,0,0,1,2.6075,2.7832,14.8125,14.8125,0,0,1,1.582,4.043L256.0624,301.98h1.9922q1.1133-5.3892,2.4023-11.3379,1.2891-5.9459,2.6075-12.0117t2.6367-12.0117q1.3184-5.9459,2.5488-11.3965a10.9944,10.9944,0,0,1,3.1641-5.5371A7.9345,7.9345,0,0,1,277.039,247.4877Z"/><path class="cls-1" d="M321.371,292.6049a25.1775,25.1775,0,0,1,1.4648-9.1406,19.7842,19.7842,0,0,1,3.7793-6.27,17.56,17.56,0,0,1,5.1563-3.9258,28.5268,28.5268,0,0,1,5.5957-2.1093,29.677,29.677,0,0,1,5.1269-.8789q2.3731-.1758,3.7207-.1758t3.6915.1758a27.9241,27.9241,0,0,1,5.01.8789,26.5278,26.5278,0,0,1,5.3906,2.1093,16.6841,16.6841,0,0,1,4.9219,3.9258,20.2694,20.2694,0,0,1,3.6035,6.27,26.149,26.149,0,0,1,1.4063,9.1406v14.5312a26.1348,26.1348,0,0,1-1.4063,9.1407,20.2247,20.2247,0,0,1-3.6035,6.2695,16.6519,16.6519,0,0,1-4.9219,3.9258,26.5278,26.5278,0,0,1-5.3906,2.1093,27.9241,27.9241,0,0,1-5.01.8789q-2.3453.1758-3.6915.1758-1.3491,0-3.7207-.1758a29.677,29.677,0,0,1-5.1269-.8789,28.5268,28.5268,0,0,1-5.5957-2.1093,17.5256,17.5256,0,0,1-5.1563-3.9258,19.7412,19.7412,0,0,1-3.7793-6.2695,25.1639,25.1639,0,0,1-1.4648-9.1407Zm18.0469,18.6328a6.168,6.168,0,0,0,.82,2.9883,5.97,5.97,0,0,0,2.0215,2.08,7.1692,7.1692,0,0,0,3.955.9082,6.6207,6.6207,0,0,0,3.7793-.9082,6.1571,6.1571,0,0,0,1.9629-2.08,7.2072,7.2072,0,0,0,.82-2.9883V290.0268a8.7371,8.7371,0,0,0-.82-3.2227,7.32,7.32,0,0,0-1.9629-2.1973,6.0525,6.0525,0,0,0-3.7793-1.0254,6.54,6.54,0,0,0-3.955,1.0254,7.032,7.032,0,0,0-2.0215,2.1973,7.405,7.405,0,0,0-.82,3.2227Z"/><path class="cls-2" d="M411.4052,279.3627q0,4.57-2.2559,6.68a9.0459,9.0459,0,0,1-6.416,2.1094q-.5874,0-1.67.0878a10.8673,10.8673,0,0,0-2.3145.4688,12.1508,12.1508,0,0,0-2.49,1.1133,8.82,8.82,0,0,0-2.3145,1.9922,9.6886,9.6886,0,0,0-1.6992,3.1933,14.6877,14.6877,0,0,0-.6445,4.6289v16.7578a40.8542,40.8542,0,0,1-.2637,4.6875,11.5476,11.5476,0,0,1-1.2012,4.0723,7.5223,7.5223,0,0,1-2.6953,2.9,8.7889,8.7889,0,0,1-4.7461,1.1133,8.3531,8.3531,0,0,1-4.6289-1.1133,7.4228,7.4228,0,0,1-2.6074-2.9,11.9112,11.9112,0,0,1-1.1719-4.0723,40.8771,40.8771,0,0,1-.2636-4.6875V283.5814a42.2047,42.2047,0,0,1,.2636-4.7753,12.2658,12.2658,0,0,1,1.1719-4.1309,7.1885,7.1885,0,0,1,2.6074-2.9,8.5486,8.5486,0,0,1,4.6289-1.084,7.0931,7.0931,0,0,1,4.6,1.3184,7.7448,7.7448,0,0,1,2.3731,3.3984,15.5407,15.5407,0,0,1,.8789,4.6289q.1157,2.5488.1172,4.9512h.9375a28.3586,28.3586,0,0,1,2.168-5.9473,20.9927,20.9927,0,0,1,2.9882-4.5117,12.717,12.717,0,0,1,3.5157-2.8418,7.9362,7.9362,0,0,1,3.75-.9961,11.6032,11.6032,0,0,1,3.7207.4981,4.7564,4.7564,0,0,1,2.2558,1.5527,6.0757,6.0757,0,0,1,1.1133,2.6953A22.7927,22.7927,0,0,1,411.4052,279.3627Z"/><path class="cls-2" d="M412.3769,260.1439a42.9621,42.9621,0,0,1,.2636-4.8046,11.9078,11.9078,0,0,1,1.2012-4.16,7.4865,7.4865,0,0,1,2.6953-2.93,8.8071,8.8071,0,0,1,4.7461-1.1133,8.9346,8.9346,0,0,1,4.8047,1.1133,7.2717,7.2717,0,0,1,2.666,2.93,12.3252,12.3252,0,0,1,1.1719,4.16,42.9619,42.9619,0,0,1,.2637,4.8046v55.8985a43.7425,43.7425,0,0,1-.2637,4.834,12.6538,12.6538,0,0,1-1.1719,4.2187,7.2064,7.2064,0,0,1-2.666,2.959,8.9165,8.9165,0,0,1-4.8047,1.1133,8.7891,8.7891,0,0,1-4.7461-1.1133,7.4149,7.4149,0,0,1-2.6953-2.959,12.223,12.223,0,0,1-1.2012-4.2187,43.7427,43.7427,0,0,1-.2636-4.834Z"/><path class="cls-2" d="M483.31,315.9252q0,2.4609-.1757,4.834a12.0186,12.0186,0,0,1-1.0547,4.248,7.1576,7.1576,0,0,1-2.6367,3.0176,8.9961,8.9961,0,0,1-4.9219,1.1426,9.8427,9.8427,0,0,1-5.0391-1.084,7.2707,7.2707,0,0,1-2.6953-2.6367,8.6436,8.6436,0,0,1-1.084-3.252,24.5857,24.5857,0,0,1-.2051-2.8711,18.6564,18.6564,0,0,1-1.4941,3.4571,12.3381,12.3381,0,0,1-6.1523,5.4785,12.7281,12.7281,0,0,1-5.01.9082,20.6176,20.6176,0,0,1-6.4453-1.0547,15.16,15.16,0,0,1-5.8008-3.5156,18.2163,18.2163,0,0,1-4.1894-6.416,25.9357,25.9357,0,0,1-1.6114-9.7559V291.433a26.1207,26.1207,0,0,1,1.6114-9.8144,17.9173,17.9173,0,0,1,4.1894-6.3868,15.3438,15.3438,0,0,1,5.8008-3.4863,20.6176,20.6176,0,0,1,6.4453-1.0547,13.121,13.121,0,0,1,5.01.8789,12.1415,12.1415,0,0,1,3.6621,2.2852,12.4607,12.4607,0,0,1,2.49,3.164,18.08,18.08,0,0,1,1.4941,3.5157V260.4955a45.9237,45.9237,0,0,1,.2637-4.9512,12.7445,12.7445,0,0,1,1.1719-4.2773,7.3466,7.3466,0,0,1,2.6953-2.9883,9.0234,9.0234,0,0,1,4.8926-1.1426,8.4966,8.4966,0,0,1,4.6875,1.1426,7.4134,7.4134,0,0,1,2.666,2.9883,12.7445,12.7445,0,0,1,1.1719,4.2773,45.9238,45.9238,0,0,1,.2636,4.9512Zm-30.4687-9.0234q0,1.5819.1172,3.1054a8.6239,8.6239,0,0,0,.6445,2.7539,4.5578,4.5578,0,0,0,1.5528,1.9629,4.81,4.81,0,0,0,2.8417.7324,6.25,6.25,0,0,0,3.7208-1.0253,6.6844,6.6844,0,0,0,2.2558-3.1641,21.0576,21.0576,0,0,0,1.1426-5.3906q.3222-3.252.3808-7.7637a31.5868,31.5868,0,0,0-.3222-4.19,19.6,19.6,0,0,0-1.1426-4.4824,10.2231,10.2231,0,0,0-2.2852-3.5742,5.0812,5.0812,0,0,0-3.75-1.4648,4.8248,4.8248,0,0,0-2.8417.7324,4.6434,4.6434,0,0,0-1.5528,1.9043,7.9826,7.9826,0,0,0-.6445,2.666q-.1171,1.4942-.1172,3.0176Z"/><path class="cls-1" d="M229.4257,322.1361q2.3438,0,4.7461.2344a13.6261,13.6261,0,0,1,4.3359,1.1133,7.766,7.766,0,0,1,3.1641,2.6074,9.6562,9.6562,0,0,1,0,9.4336,7.7511,7.7511,0,0,1-3.1641,2.6074,13.5762,13.5762,0,0,1-4.3359,1.1133q-2.4024.2358-4.7461.2344H215.48v15.2344h7.3828q2.2851,0,4.6875.1757a13.6,13.6,0,0,1,4.3359.9961,7.4576,7.4576,0,0,1,3.1934,2.5782,8.3375,8.3375,0,0,1,1.26,4.9218,8.4888,8.4888,0,0,1-1.23,4.9219,7.2522,7.2522,0,0,1-3.1641,2.5781,13.5469,13.5469,0,0,1-4.3359.9961q-2.4024.1758-4.7461.1758H215.48v18.6328q0,2.58-.1465,4.98a12.3275,12.3275,0,0,1-.9961,4.3066,6.8158,6.8158,0,0,1-2.666,3.0469,9.5706,9.5706,0,0,1-5.0977,1.1426,9.7032,9.7032,0,0,1-5.1562-1.1426,6.6359,6.6359,0,0,1-2.6367-3.0469,12.7717,12.7717,0,0,1-.9668-4.3066q-.1466-2.4009-.1465-4.98V335.6127q0-2.5181.1465-4.9219a12.7934,12.7934,0,0,1,.9668-4.3066,6.819,6.819,0,0,1,2.6367-3.0762,9.5152,9.5152,0,0,1,5.1562-1.1719Z"/><path class="cls-2" d="M242.82,358.933a40.658,40.658,0,0,1,.293-4.9219,12.5965,12.5965,0,0,1,1.26-4.2773,7.733,7.733,0,0,1,2.754-3.0176,8.8966,8.8966,0,0,1,4.8339-1.1426,8.619,8.619,0,0,1,4.7461,1.1426,7.5869,7.5869,0,0,1,2.6953,3.0176,12.5674,12.5674,0,0,1,1.2012,4.2773,45.1144,45.1144,0,0,1,.2637,4.9219v22.8516q0,1.7007.1465,3.2519a8.8847,8.8847,0,0,0,.6738,2.7539,4.5824,4.5824,0,0,0,1.5527,1.9336,4.6971,4.6971,0,0,0,2.7832.7324,5.0442,5.0442,0,0,0,3.8379-1.582,10.8812,10.8812,0,0,0,2.3438-4.3359,30.125,30.125,0,0,0,1.1426-6.4746q.2929-3.7192.2929-7.9981V358.933a40.658,40.658,0,0,1,.293-4.9219,12.5943,12.5943,0,0,1,1.26-4.2773,7.7328,7.7328,0,0,1,2.7539-3.0176,8.8968,8.8968,0,0,1,4.834-1.1426,8.6188,8.6188,0,0,1,4.746,1.1426,7.5872,7.5872,0,0,1,2.6954,3.0176,12.5674,12.5674,0,0,1,1.2011,4.2773,45.1144,45.1144,0,0,1,.2637,4.9219v31.9922q0,2.5211-.1758,4.8926a11.7546,11.7546,0,0,1-1.0547,4.2187,7.1405,7.1405,0,0,1-2.666,2.9883,9.2805,9.2805,0,0,1-5.01,1.1426,9.8425,9.8425,0,0,1-5.0391-1.084,7.6074,7.6074,0,0,1-2.7246-2.6074,8.5,8.5,0,0,1-1.1426-3.2227,21.8789,21.8789,0,0,1-.2344-2.93,15.258,15.258,0,0,1-1.4648,3.4571,12.7038,12.7038,0,0,1-2.5488,3.164,12.64,12.64,0,0,1-8.76,3.2227,20.6176,20.6176,0,0,1-6.4453-1.0547,15.1589,15.1589,0,0,1-5.8008-3.5156,18.1626,18.1626,0,0,1-4.19-6.4453,26.3457,26.3457,0,0,1-1.6113-9.8438Z"/><path class="cls-2" d="M313.0507,360.9252a3.4844,3.4844,0,0,0,.7617,2.168,8.9811,8.9811,0,0,0,2.08,1.9043,26.5483,26.5483,0,0,0,3.0469,1.7871q1.727.8789,3.6035,1.7578,2.87,1.4063,5.8593,3.0176a29.1957,29.1957,0,0,1,5.4493,3.7793,18.4194,18.4194,0,0,1,4.0136,5.01,13.7982,13.7982,0,0,1,1.5528,6.709,17.4163,17.4163,0,0,1-1.0254,6.2109,15.4294,15.4294,0,0,1-2.7246,4.6582,15.1014,15.1014,0,0,1-3.9551,3.252,23.1739,23.1739,0,0,1-4.7461,2.0508,29.8813,29.8813,0,0,1-5.0684,1.084,39.3216,39.3216,0,0,1-4.8632.3222,35.6425,35.6425,0,0,1-7.8516-.7617,23.64,23.64,0,0,1-5.7422-2.0215,15.2233,15.2233,0,0,1-3.9551-2.8711,13.6745,13.6745,0,0,1-2.4316-3.3691,14.0579,14.0579,0,0,1-1.2305-3.4863,16.0852,16.0852,0,0,1-.3515-3.1934q0-3.5156,1.9628-5.1562t6.0059-1.6407a7.1977,7.1977,0,0,1,4.8047,1.5821q1.8735,1.5819,1.9922,5.0976a2.9755,2.9755,0,0,0,.6738,1.875,4.586,4.586,0,0,0,1.582,1.1426,7.2968,7.2968,0,0,0,2.1387.5859,18.1978,18.1978,0,0,0,2.2852.1465,5.5993,5.5993,0,0,0,3.7207-1.2012,3.894,3.894,0,0,0,1.4355-3.1347,5.41,5.41,0,0,0-.9668-3.0762,11.676,11.676,0,0,0-2.5488-2.666,29.5564,29.5564,0,0,0-3.6035-2.3731q-2.0215-1.1426-4.1309-2.3144-2.6367-1.4062-5.3027-2.9883a30.9214,30.9214,0,0,1-4.834-3.5156,16.5739,16.5739,0,0,1-3.5156-4.3652,11.2146,11.2146,0,0,1-1.3477-5.5372,17.4359,17.4359,0,0,1,1.4942-7.6464,12.3552,12.3552,0,0,1,4.3652-4.9805,19.3985,19.3985,0,0,1,7.0019-2.7246,55.0571,55.0571,0,0,1,9.4043-.9375h.9375a34.0478,34.0478,0,0,1,8.0567.82,20.1728,20.1728,0,0,1,5.5078,2.1387,12.2175,12.2175,0,0,1,3.457,2.9589,12.677,12.677,0,0,1,1.875,3.3106,12.8546,12.8546,0,0,1,.7617,3.1934q.1451,1.5249.1465,2.5781a5.29,5.29,0,0,1-.7324,2.9,5.4015,5.4015,0,0,1-1.9336,1.8164,8.4721,8.4721,0,0,1-2.7246.9375,23.3063,23.3063,0,0,1-3.1641.3222,6.6384,6.6384,0,0,1-2.5488-.4687,7.1287,7.1287,0,0,1-1.9629-1.1719,5.0522,5.0522,0,0,1-1.26-1.582,3.7894,3.7894,0,0,1-.44-1.6992,4.1882,4.1882,0,0,0-1.7871-3.3985,6.92,6.92,0,0,0-4.0723-1.1718,8.6718,8.6718,0,0,0-1.9043.205,4.768,4.768,0,0,0-1.6406.7032,3.6534,3.6534,0,0,0-1.1719,1.3183A4.4554,4.4554,0,0,0,313.0507,360.9252Z"/><path class="cls-2" d="M344.2567,358.6986a42.965,42.965,0,0,1,.2637-4.8047,12.1678,12.1678,0,0,1,1.2012-4.1894,7.6238,7.6238,0,0,1,2.6953-2.9883,10.4284,10.4284,0,0,1,9.4922,0,7.639,7.639,0,0,1,2.6953,2.9883,12.2118,12.2118,0,0,1,1.2012,4.1894,42.9891,42.9891,0,0,1,.2636,4.8047v32.3438a43.7671,43.7671,0,0,1-.2636,4.834,12.2449,12.2449,0,0,1-1.2012,4.2187,7.4221,7.4221,0,0,1-2.6953,2.959,10.6732,10.6732,0,0,1-9.4922,0,7.4077,7.4077,0,0,1-2.6953-2.959,12.2012,12.2012,0,0,1-1.2012-4.2187,43.7425,43.7425,0,0,1-.2637-4.834Zm17.93-27.6562q0,4.5132-2.3437,6.709a10.8989,10.8989,0,0,1-13.125,0q-2.3452-2.1974-2.3438-6.709,0-4.686,2.3438-6.7969a9.4642,9.4642,0,0,1,6.5625-2.1094q4.51,0,6.709,2.1094Q362.1864,326.3549,362.1864,331.0424Z"/><path class="cls-1" d="M367.9628,367.6049a25.199,25.199,0,0,1,1.4648-9.1406,19.8207,19.8207,0,0,1,3.7793-6.27,17.5857,17.5857,0,0,1,5.1563-3.9258,28.5719,28.5719,0,0,1,5.5957-2.1093,29.6914,29.6914,0,0,1,5.1269-.8789q2.3731-.1758,3.7207-.1758t3.6914.1758a27.8946,27.8946,0,0,1,5.01.8789,26.5053,26.5053,0,0,1,5.3906,2.1093,16.6841,16.6841,0,0,1,4.9219,3.9258,20.2694,20.2694,0,0,1,3.6035,6.27,26.149,26.149,0,0,1,1.4063,9.1406v14.5312a26.1348,26.1348,0,0,1-1.4063,9.1407,20.2247,20.2247,0,0,1-3.6035,6.2695,16.6519,16.6519,0,0,1-4.9219,3.9258,26.5053,26.5053,0,0,1-5.3906,2.1093,27.8946,27.8946,0,0,1-5.01.8789q-2.3437.1758-3.6914.1758t-3.7207-.1758a29.6914,29.6914,0,0,1-5.1269-.8789,28.5719,28.5719,0,0,1-5.5957-2.1093,17.5514,17.5514,0,0,1-5.1563-3.9258,19.7776,19.7776,0,0,1-3.7793-6.2695,25.1853,25.1853,0,0,1-1.4648-9.1407ZM386.01,386.2377a6.1888,6.1888,0,0,0,.82,2.9883,5.9877,5.9877,0,0,0,2.0215,2.08,7.1736,7.1736,0,0,0,3.955.9082,6.6207,6.6207,0,0,0,3.7793-.9082,6.1483,6.1483,0,0,0,1.9629-2.08,7.1921,7.1921,0,0,0,.82-2.9883V365.0268a8.7177,8.7177,0,0,0-.82-3.2227,7.3077,7.3077,0,0,0-1.9629-2.1973,6.0525,6.0525,0,0,0-3.7793-1.0254,6.5435,6.5435,0,0,0-3.955,1.0254,7.0561,7.0561,0,0,0-2.0215,2.1973,7.4314,7.4314,0,0,0-.82,3.2227Z"/><path class="cls-2" d="M469.4823,390.808a40.6094,40.6094,0,0,1-.2929,4.9219,12.5725,12.5725,0,0,1-1.26,4.2773,7.7191,7.7191,0,0,1-2.7539,3.0176,8.897,8.897,0,0,1-4.834,1.1426,8.6192,8.6192,0,0,1-4.7461-1.1426,7.5737,7.5737,0,0,1-2.6953-3.0176,12.5421,12.5421,0,0,1-1.2012-4.2773,45.06,45.06,0,0,1-.2637-4.9219V367.9564q0-1.639-.1464-3.2226a8.96,8.96,0,0,0-.6739-2.7832,4.6055,4.6055,0,0,0-1.5527-1.9336,4.7113,4.7113,0,0,0-2.7832-.7324,5.0211,5.0211,0,0,0-3.8672,1.582,11.1167,11.1167,0,0,0-2.3144,4.3359,30.1642,30.1642,0,0,0-1.1426,6.4746q-.2929,3.7222-.293,7.9981V390.808a40.5889,40.5889,0,0,1-.293,4.9219,12.57,12.57,0,0,1-1.26,4.2773,7.72,7.72,0,0,1-2.7539,3.0176,8.897,8.897,0,0,1-4.834,1.1426,8.6192,8.6192,0,0,1-4.7461-1.1426,7.5737,7.5737,0,0,1-2.6953-3.0176,12.5421,12.5421,0,0,1-1.2012-4.2773,45.06,45.06,0,0,1-.2637-4.9219V358.8158q0-2.5181.1758-4.8926a11.7572,11.7572,0,0,1,1.0547-4.2187,7.1405,7.1405,0,0,1,2.666-2.9883,9.2806,9.2806,0,0,1,5.01-1.1426,9.8617,9.8617,0,0,1,5.039,1.084,7.64,7.64,0,0,1,2.7247,2.6074,8.5233,8.5233,0,0,1,1.1425,3.2227,21.887,21.887,0,0,1,.2344,2.93,15.29,15.29,0,0,1,1.4649-3.4571,12.6993,12.6993,0,0,1,2.5488-3.164,12.64,12.64,0,0,1,8.76-3.2227,20.6182,20.6182,0,0,1,6.4454,1.0547,15.1593,15.1593,0,0,1,5.8007,3.5156,18.1788,18.1788,0,0,1,4.1895,6.4454,26.3589,26.3589,0,0,1,1.6113,9.8437Z"/><path class="cls-1" d="M191.1884,397.1361q2.3422,0,4.7461.2344a13.633,13.633,0,0,1,4.3359,1.1133,7.766,7.766,0,0,1,3.1641,2.6074,9.6562,9.6562,0,0,1,0,9.4336,7.7511,7.7511,0,0,1-3.1641,2.6074,13.5831,13.5831,0,0,1-4.3359,1.1133q-2.4039.2358-4.7461.2344H177.2431v15.2344h7.3828q2.2851,0,4.6875.1757a13.6059,13.6059,0,0,1,4.3359.9961,7.4629,7.4629,0,0,1,3.1934,2.5782,8.3448,8.3448,0,0,1,1.26,4.9218,8.4888,8.4888,0,0,1-1.23,4.9219,7.2522,7.2522,0,0,1-3.1641,2.5781,13.5531,13.5531,0,0,1-4.3359.9961q-2.4039.1758-4.7461.1758h-7.3828v18.6328q0,2.58-.1465,4.98a12.3721,12.3721,0,0,1-.9961,4.3066,6.8278,6.8278,0,0,1-2.666,3.0469,9.5751,9.5751,0,0,1-5.0977,1.1426,9.7008,9.7008,0,0,1-5.1562-1.1426,6.6258,6.6258,0,0,1-2.6368-3.0469,12.7263,12.7263,0,0,1-.9667-4.3066q-.1481-2.4009-.1465-4.98V410.6127q0-2.5181.1465-4.9219a12.7478,12.7478,0,0,1,.9667-4.3066,6.8084,6.8084,0,0,1,2.6368-3.0762,9.5128,9.5128,0,0,1,5.1562-1.1719Z"/><path class="cls-1" d="M202.2382,442.6049a25.199,25.199,0,0,1,1.4648-9.1406,19.8207,19.8207,0,0,1,3.7793-6.27,17.5844,17.5844,0,0,1,5.1563-3.9258,28.5719,28.5719,0,0,1,5.5957-2.1093,29.6914,29.6914,0,0,1,5.1269-.8789q2.3732-.1758,3.7207-.1758t3.6914.1758a27.8946,27.8946,0,0,1,5.01.8789,26.5075,26.5075,0,0,1,5.3906,2.1093,16.6841,16.6841,0,0,1,4.9219,3.9258,20.2714,20.2714,0,0,1,3.6035,6.27,26.149,26.149,0,0,1,1.4063,9.1406v14.5312a26.1348,26.1348,0,0,1-1.4063,9.1407,20.2266,20.2266,0,0,1-3.6035,6.2695,16.6519,16.6519,0,0,1-4.9219,3.9258,26.5075,26.5075,0,0,1-5.3906,2.1093,27.8946,27.8946,0,0,1-5.01.8789q-2.3437.1758-3.6914.1758t-3.7207-.1758a29.6914,29.6914,0,0,1-5.1269-.8789,28.5719,28.5719,0,0,1-5.5957-2.1093,17.55,17.55,0,0,1-5.1563-3.9258,19.7776,19.7776,0,0,1-3.7793-6.2695,25.1853,25.1853,0,0,1-1.4648-9.1407Zm18.0469,18.6328a6.1888,6.1888,0,0,0,.82,2.9883,5.9877,5.9877,0,0,0,2.0215,2.08,7.1736,7.1736,0,0,0,3.955.9082,6.6207,6.6207,0,0,0,3.7793-.9082,6.1483,6.1483,0,0,0,1.9629-2.08,7.1921,7.1921,0,0,0,.82-2.9883V440.0268a8.7177,8.7177,0,0,0-.82-3.2227,7.3077,7.3077,0,0,0-1.9629-2.1973,6.0525,6.0525,0,0,0-3.7793-1.0254,6.5435,6.5435,0,0,0-3.955,1.0254,7.0561,7.0561,0,0,0-2.0215,2.1973,7.4314,7.4314,0,0,0-.82,3.2227Z"/><path class="cls-1" d="M251.7265,442.6049a25.1968,25.1968,0,0,1,1.4648-9.1406,19.8188,19.8188,0,0,1,3.7793-6.27,17.5844,17.5844,0,0,1,5.1563-3.9258,28.5719,28.5719,0,0,1,5.5957-2.1093,29.6914,29.6914,0,0,1,5.1269-.8789q2.373-.1758,3.7207-.1758t3.6914.1758a27.8962,27.8962,0,0,1,5.01.8789,26.5075,26.5075,0,0,1,5.3906,2.1093,16.6853,16.6853,0,0,1,4.9219,3.9258,20.2714,20.2714,0,0,1,3.6035,6.27,26.149,26.149,0,0,1,1.4063,9.1406v14.5312a26.1348,26.1348,0,0,1-1.4063,9.1407,20.2266,20.2266,0,0,1-3.6035,6.2695,16.6532,16.6532,0,0,1-4.9219,3.9258,26.5075,26.5075,0,0,1-5.3906,2.1093,27.8962,27.8962,0,0,1-5.01.8789q-2.3437.1758-3.6914.1758T272.85,479.46a29.6914,29.6914,0,0,1-5.1269-.8789,28.5719,28.5719,0,0,1-5.5957-2.1093,17.55,17.55,0,0,1-5.1563-3.9258,19.7758,19.7758,0,0,1-3.7793-6.2695,25.1832,25.1832,0,0,1-1.4648-9.1407Zm18.0468,18.6328a6.1889,6.1889,0,0,0,.82,2.9883,5.9874,5.9874,0,0,0,2.0214,2.08,7.1742,7.1742,0,0,0,3.9551.9082,6.6209,6.6209,0,0,0,3.7793-.9082,6.1483,6.1483,0,0,0,1.9629-2.08,7.1921,7.1921,0,0,0,.82-2.9883V440.0268a8.7177,8.7177,0,0,0-.82-3.2227,7.3077,7.3077,0,0,0-1.9629-2.1973,6.0527,6.0527,0,0,0-3.7793-1.0254,6.544,6.544,0,0,0-3.9551,1.0254,7.0557,7.0557,0,0,0-2.0214,2.1973,7.4315,7.4315,0,0,0-.82,3.2227Z"/><path class="cls-1" d="M349.9647,465.9252q0,2.4609-.1757,4.834a12.0186,12.0186,0,0,1-1.0547,4.248,7.1576,7.1576,0,0,1-2.6367,3.0176,8.9961,8.9961,0,0,1-4.9219,1.1426,9.838,9.838,0,0,1-5.0391-1.084,7.2632,7.2632,0,0,1-2.6953-2.6367,8.6278,8.6278,0,0,1-1.084-3.252,24.3679,24.3679,0,0,1-.2051-2.8711,18.6564,18.6564,0,0,1-1.4941,3.4571,12.3381,12.3381,0,0,1-6.1523,5.4785,12.735,12.735,0,0,1-5.01.9082,20.6083,20.6083,0,0,1-6.4453-1.0547,15.1455,15.1455,0,0,1-5.8008-3.5156,18.1906,18.1906,0,0,1-4.19-6.416,25.92,25.92,0,0,1-1.6113-9.7559V441.433a26.1049,26.1049,0,0,1,1.6113-9.8144,17.8923,17.8923,0,0,1,4.19-6.3868,15.3293,15.3293,0,0,1,5.8008-3.4863,20.6083,20.6083,0,0,1,6.4453-1.0547,13.1281,13.1281,0,0,1,5.01.8789,12.1638,12.1638,0,0,1,3.6621,2.2852,12.4829,12.4829,0,0,1,2.49,3.164,18.08,18.08,0,0,1,1.4941,3.5157V410.4955a45.9237,45.9237,0,0,1,.2637-4.9512,12.7212,12.7212,0,0,1,1.1719-4.2773,7.3326,7.3326,0,0,1,2.6953-2.9883,9.0188,9.0188,0,0,1,4.8926-1.1426,8.4989,8.4989,0,0,1,4.6875,1.1426,7.42,7.42,0,0,1,2.666,2.9883,12.7679,12.7679,0,0,1,1.1719,4.2773,45.9238,45.9238,0,0,1,.2636,4.9512Zm-30.4687-9.0234q0,1.5819.1172,3.1054a8.5974,8.5974,0,0,0,.6445,2.7539,4.551,4.551,0,0,0,1.5527,1.9629,4.8068,4.8068,0,0,0,2.8418.7324,6.2514,6.2514,0,0,0,3.7207-1.0253,6.6966,6.6966,0,0,0,2.2559-3.1641,21.1388,21.1388,0,0,0,1.1426-5.3906q.3208-3.252.3808-7.7637a31.7571,31.7571,0,0,0-.3222-4.19,19.6981,19.6981,0,0,0-1.1426-4.4824,10.25,10.25,0,0,0-2.2852-3.5742,5.0827,5.0827,0,0,0-3.75-1.4648,4.8213,4.8213,0,0,0-2.8418.7324,4.6361,4.6361,0,0,0-1.5527,1.9043,7.9585,7.9585,0,0,0-.6445,2.666q-.1187,1.4942-.1172,3.0176Z"/><path class="cls-1" d="M152.9511,472.1361q2.3422,0,4.7461.2344a13.633,13.633,0,0,1,4.3359,1.1133,7.766,7.766,0,0,1,3.1641,2.6074,9.6562,9.6562,0,0,1,0,9.4336,7.7511,7.7511,0,0,1-3.1641,2.6074,13.5831,13.5831,0,0,1-4.3359,1.1133q-2.4039.2358-4.7461.2344H139.0058v15.2344h7.3828q2.2851,0,4.6875.1757a13.6065,13.6065,0,0,1,4.3359.9961,7.4629,7.4629,0,0,1,3.1934,2.5782,8.3448,8.3448,0,0,1,1.26,4.9218,8.4888,8.4888,0,0,1-1.23,4.9219,7.2522,7.2522,0,0,1-3.1641,2.5781,13.5531,13.5531,0,0,1-4.3359.9961q-2.4039.1758-4.7461.1758h-7.3828v18.6328q0,2.58-.1465,4.9805a12.3721,12.3721,0,0,1-.9961,4.3066,6.8278,6.8278,0,0,1-2.666,3.0469,9.5751,9.5751,0,0,1-5.0977,1.1426,9.7006,9.7006,0,0,1-5.1562-1.1426,6.6252,6.6252,0,0,1-2.6368-3.0469,12.7287,12.7287,0,0,1-.9668-4.3066q-.1479-2.4009-.1464-4.9805V485.6127q0-2.5181.1464-4.9219a12.75,12.75,0,0,1,.9668-4.3066,6.8078,6.8078,0,0,1,2.6368-3.0762,9.5126,9.5126,0,0,1,5.1562-1.1719Z"/><path class="cls-1" d="M164.0009,517.6049a25.1775,25.1775,0,0,1,1.4648-9.1406,19.7842,19.7842,0,0,1,3.7793-6.27,17.56,17.56,0,0,1,5.1563-3.9258,28.5268,28.5268,0,0,1,5.5957-2.1093,29.6754,29.6754,0,0,1,5.1269-.8789q2.3732-.1758,3.7207-.1758t3.6914.1758a27.9235,27.9235,0,0,1,5.01.8789,26.5278,26.5278,0,0,1,5.3906,2.1093,16.6841,16.6841,0,0,1,4.9219,3.9258,20.2714,20.2714,0,0,1,3.6035,6.27,26.149,26.149,0,0,1,1.4063,9.1406v14.5312a26.1348,26.1348,0,0,1-1.4063,9.1407,20.2266,20.2266,0,0,1-3.6035,6.2695,16.6519,16.6519,0,0,1-4.9219,3.9258,26.5278,26.5278,0,0,1-5.3906,2.1093,27.9235,27.9235,0,0,1-5.01.8789q-2.3451.1758-3.6914.1758-1.3491,0-3.7207-.1758a29.6754,29.6754,0,0,1-5.1269-.8789,28.5268,28.5268,0,0,1-5.5957-2.1093,17.5256,17.5256,0,0,1-5.1563-3.9258,19.7412,19.7412,0,0,1-3.7793-6.2695,25.1639,25.1639,0,0,1-1.4648-9.1407Zm18.0469,18.6328a6.1669,6.1669,0,0,0,.82,2.9883,5.97,5.97,0,0,0,2.0215,2.08,7.169,7.169,0,0,0,3.955.9082,6.6207,6.6207,0,0,0,3.7793-.9082,6.1571,6.1571,0,0,0,1.9629-2.08,7.2072,7.2072,0,0,0,.82-2.9883V515.0268a8.7371,8.7371,0,0,0-.82-3.2227,7.32,7.32,0,0,0-1.9629-2.1973,6.0525,6.0525,0,0,0-3.7793-1.0254,6.5394,6.5394,0,0,0-3.955,1.0254,7.032,7.032,0,0,0-2.0215,2.1973,7.4036,7.4036,0,0,0-.82,3.2227Z"/><path class="cls-2" d="M215.8319,508.933a40.658,40.658,0,0,1,.293-4.9219,12.5943,12.5943,0,0,1,1.26-4.2773,7.7328,7.7328,0,0,1,2.7539-3.0176,8.8968,8.8968,0,0,1,4.834-1.1426,8.6194,8.6194,0,0,1,4.7461,1.1426,7.5877,7.5877,0,0,1,2.6953,3.0176,12.5651,12.5651,0,0,1,1.2011,4.2773,45.1144,45.1144,0,0,1,.2637,4.9219v22.8516q0,1.7007.1465,3.2519a8.8875,8.8875,0,0,0,.6738,2.7539,4.5826,4.5826,0,0,0,1.5528,1.9336,4.6967,4.6967,0,0,0,2.7832.7324,5.0439,5.0439,0,0,0,3.8378-1.582,10.8812,10.8812,0,0,0,2.3438-4.3359,30.1188,30.1188,0,0,0,1.1426-6.4746q.2929-3.7192.2929-7.9981V508.933a40.658,40.658,0,0,1,.293-4.9219,12.5943,12.5943,0,0,1,1.26-4.2773,7.7328,7.7328,0,0,1,2.7539-3.0176,8.8968,8.8968,0,0,1,4.834-1.1426,8.6192,8.6192,0,0,1,4.7461,1.1426,7.5877,7.5877,0,0,1,2.6953,3.0176,12.5651,12.5651,0,0,1,1.2011,4.2773,45.1144,45.1144,0,0,1,.2637,4.9219v31.9922q0,2.521-.1758,4.8926a11.7546,11.7546,0,0,1-1.0546,4.2187,7.1414,7.1414,0,0,1-2.6661,2.9883,9.2805,9.2805,0,0,1-5.01,1.1426,9.8425,9.8425,0,0,1-5.0391-1.084,7.6082,7.6082,0,0,1-2.7246-2.6074,8.5,8.5,0,0,1-1.1426-3.2227,21.8789,21.8789,0,0,1-.2344-2.93,15.2535,15.2535,0,0,1-1.4648,3.4571,12.7038,12.7038,0,0,1-2.5488,3.164,12.64,12.64,0,0,1-8.76,3.2227,20.6176,20.6176,0,0,1-6.4453-1.0547,15.16,15.16,0,0,1-5.8008-3.5156,18.1625,18.1625,0,0,1-4.1894-6.4453,26.3435,26.3435,0,0,1-1.6114-9.8438Z"/><path class="cls-2" d="M320.0468,540.808a40.6092,40.6092,0,0,1-.293,4.9219,12.5681,12.5681,0,0,1-1.26,4.2773,7.7191,7.7191,0,0,1-2.7539,3.0176,8.8966,8.8966,0,0,1-4.8339,1.1426,8.619,8.619,0,0,1-4.7461-1.1426,7.5739,7.5739,0,0,1-2.6954-3.0176,12.5421,12.5421,0,0,1-1.2011-4.2773A45.06,45.06,0,0,1,302,540.808V517.9564q0-1.639-.1465-3.2226a8.9576,8.9576,0,0,0-.6738-2.7832,4.607,4.607,0,0,0-1.5527-1.9336,4.7116,4.7116,0,0,0-2.7832-.7324,5.0209,5.0209,0,0,0-3.8672,1.582,11.1168,11.1168,0,0,0-2.3145,4.3359,30.1642,30.1642,0,0,0-1.1426,6.4746q-.293,3.7222-.2929,7.9981V540.808a40.6092,40.6092,0,0,1-.293,4.9219,12.5681,12.5681,0,0,1-1.26,4.2773,7.7191,7.7191,0,0,1-2.7539,3.0176,8.8968,8.8968,0,0,1-4.834,1.1426,8.6194,8.6194,0,0,1-4.7461-1.1426,7.5744,7.5744,0,0,1-2.6953-3.0176,12.54,12.54,0,0,1-1.2011-4.2773,45.06,45.06,0,0,1-.2637-4.9219V508.8158q0-2.5181.1758-4.8926a11.7552,11.7552,0,0,1,1.0547-4.2187,7.1405,7.1405,0,0,1,2.666-2.9883,9.2805,9.2805,0,0,1,5.01-1.1426,9.8619,9.8619,0,0,1,5.0391,1.084,7.6409,7.6409,0,0,1,2.7246,2.6074,8.5235,8.5235,0,0,1,1.1426,3.2227,21.9037,21.9037,0,0,1,.2344,2.93,15.29,15.29,0,0,1,1.4648-3.4571,12.7038,12.7038,0,0,1,2.5488-3.164,12.64,12.64,0,0,1,8.76-3.2227,20.6176,20.6176,0,0,1,6.4453,1.0547,15.16,15.16,0,0,1,5.8008,3.5156,18.18,18.18,0,0,1,4.1894,6.4454,26.3567,26.3567,0,0,1,1.6114,9.8437Z"/><path class="cls-2" d="M371.6444,540.9252q0,2.4609-.1757,4.834a12.0186,12.0186,0,0,1-1.0547,4.248,7.1572,7.1572,0,0,1-2.6368,3.0176,8.9957,8.9957,0,0,1-4.9218,1.1426,9.838,9.838,0,0,1-5.0391-1.084,7.2632,7.2632,0,0,1-2.6953-2.6367,8.6278,8.6278,0,0,1-1.084-3.252,24.3679,24.3679,0,0,1-.2051-2.8711,18.6564,18.6564,0,0,1-1.4941,3.4571,12.3378,12.3378,0,0,1-6.1524,5.4785,12.7341,12.7341,0,0,1-5.01.9082,20.6083,20.6083,0,0,1-6.4453-1.0547,15.1455,15.1455,0,0,1-5.8008-3.5156,18.1906,18.1906,0,0,1-4.19-6.416,25.9179,25.9179,0,0,1-1.6113-9.7559V516.433a26.1029,26.1029,0,0,1,1.6113-9.8144,17.8923,17.8923,0,0,1,4.19-6.3868,15.3293,15.3293,0,0,1,5.8008-3.4863,20.6083,20.6083,0,0,1,6.4453-1.0547,13.1272,13.1272,0,0,1,5.01.8789,12.1631,12.1631,0,0,1,3.6622,2.2852,12.4829,12.4829,0,0,1,2.49,3.164,18.08,18.08,0,0,1,1.4941,3.5157V485.4955a45.9237,45.9237,0,0,1,.2637-4.9512,12.7212,12.7212,0,0,1,1.1719-4.2773,7.3326,7.3326,0,0,1,2.6953-2.9883,9.0188,9.0188,0,0,1,4.8926-1.1426,8.4989,8.4989,0,0,1,4.6875,1.1426,7.4214,7.4214,0,0,1,2.666,2.9883,12.7679,12.7679,0,0,1,1.1719,4.2773,45.95,45.95,0,0,1,.2636,4.9512Zm-30.4687-9.0234q0,1.5819.1172,3.1054a8.5947,8.5947,0,0,0,.6445,2.7539,4.551,4.551,0,0,0,1.5527,1.9629,4.8068,4.8068,0,0,0,2.8418.7324,6.2514,6.2514,0,0,0,3.7207-1.0253,6.6973,6.6973,0,0,0,2.2559-3.1641,21.1388,21.1388,0,0,0,1.1426-5.3906q.3207-3.252.3808-7.7637a31.7571,31.7571,0,0,0-.3222-4.19,19.7034,19.7034,0,0,0-1.1426-4.4824,10.2515,10.2515,0,0,0-2.2852-3.5742,5.0827,5.0827,0,0,0-3.75-1.4648,4.8213,4.8213,0,0,0-2.8418.7324,4.6361,4.6361,0,0,0-1.5527,1.9043,7.9561,7.9561,0,0,0-.6445,2.666q-.1186,1.4941-.1172,3.0176Z"/><path class="cls-2" d="M414.6864,504.3627q0,4.57-2.2558,6.68a9.0461,9.0461,0,0,1-6.416,2.1094q-.5875,0-1.67.0878a10.8677,10.8677,0,0,0-2.3144.4688,12.1515,12.1515,0,0,0-2.49,1.1133,8.818,8.818,0,0,0-2.3144,1.9922,9.6886,9.6886,0,0,0-1.6992,3.1933,14.6847,14.6847,0,0,0-.6446,4.6289v16.7578a40.8771,40.8771,0,0,1-.2636,4.6875,11.55,11.55,0,0,1-1.2012,4.0723,7.5231,7.5231,0,0,1-2.6953,2.9,8.7891,8.7891,0,0,1-4.7461,1.1133,8.3529,8.3529,0,0,1-4.6289-1.1133,7.4228,7.4228,0,0,1-2.6074-2.9,11.909,11.909,0,0,1-1.1719-4.0723,40.8542,40.8542,0,0,1-.2637-4.6875V508.5814a42.1811,42.1811,0,0,1,.2637-4.7753,12.2635,12.2635,0,0,1,1.1719-4.1309,7.1885,7.1885,0,0,1,2.6074-2.9,8.5484,8.5484,0,0,1,4.6289-1.084,7.0933,7.0933,0,0,1,4.6,1.3184,7.7446,7.7446,0,0,1,2.373,3.3984,15.5407,15.5407,0,0,1,.879,4.6289q.1157,2.5488.1171,4.9512h.9375a28.3642,28.3642,0,0,1,2.168-5.9473,20.9966,20.9966,0,0,1,2.9883-4.5117,12.7166,12.7166,0,0,1,3.5156-2.8418,7.9362,7.9362,0,0,1,3.75-.9961,11.6028,11.6028,0,0,1,3.7207.4981,4.7567,4.7567,0,0,1,2.2559,1.5527,6.0757,6.0757,0,0,1,1.1133,2.6953A22.7937,22.7937,0,0,1,414.6864,504.3627Z"/><path class="cls-2" d="M421.8251,579.0893q-6.68,0-9.4922-1.9043a6.3259,6.3259,0,0,1-2.8125-5.5957,8.1317,8.1317,0,0,1,.4981-3.0469,5.1134,5.1134,0,0,1,1.3769-1.9922,5.2039,5.2039,0,0,1,2.0215-1.084,8.9165,8.9165,0,0,1,2.4316-.3223c.586,0,1.1319.02,1.6407.0586.5068.0391.9375.0586,1.289.0586a2.8138,2.8138,0,0,0,2.1387-1.3183,18.7868,18.7868,0,0,0,1.9922-3.3106q.9667-1.9922,1.9629-4.2773.9946-2.2853,1.9922-4.2188l-.9375-2.3437q-1.7007-4.2759-3.5743-8.9942-1.8764-4.7152-3.7207-9.5507t-3.6328-9.6387q-1.7886-4.8033-3.2519-9.3164-.6461-1.8735-1.084-3.6914a15.1566,15.1566,0,0,1-.44-3.5742,7.2217,7.2217,0,0,1,.7032-3.1641,7.6405,7.6405,0,0,1,1.9336-2.5195,9.6326,9.6326,0,0,1,6.2695-2.2852,6.5445,6.5445,0,0,1,3.0176.7031,8.32,8.32,0,0,1,2.4609,1.9336,14.0121,14.0121,0,0,1,1.9043,2.8125,23.3559,23.3559,0,0,1,1.4062,3.34l7.8516,24.7265,7.5-24.7265a23.22,23.22,0,0,1,1.3477-3.2813,13.3767,13.3767,0,0,1,1.9336-2.9,9.6943,9.6943,0,0,1,2.5195-2.0508,6.2229,6.2229,0,0,1,3.1055-.791,8.4249,8.4249,0,0,1,3.2519.6446,8.2522,8.2522,0,0,1,2.6953,1.7871,8.646,8.646,0,0,1,2.49,6.123,14.0888,14.0888,0,0,1-.44,3.4863,31.7345,31.7345,0,0,1-1.084,3.4278L445.0282,549.558q-1.23,3.1641-2.666,6.5918t-3.1348,6.709a68.3868,68.3868,0,0,1-3.6328,6.2109,35.0542,35.0542,0,0,1-4.1015,5.1563,19.288,19.288,0,0,1-4.6,3.5449A10.4974,10.4974,0,0,1,421.8251,579.0893Z"/><circle class="cls-1" cx="342.0973" cy="297.9646" r="33"/><path class="cls-1" d="M357.53,290.8256a17,17,0,0,1-27.0891,19.5136"/><path class="cls-1" d="M325.0973,297.9646a17.0148,17.0148,0,0,1,20.1758-16.7038"/><circle class="cls-1" cx="391.2167" cy="374.6521" r="33"/><path class="cls-1" d="M406.65,367.5131A17,17,0,0,1,379.56,387.0267"/><path class="cls-1" d="M374.2167,374.6521a17,17,0,0,1,17-17,17.0942,17.0942,0,0,1,3.1758.2961"/><circle class="cls-1" cx="222.2167" cy="450.6521" r="33"/><path class="cls-1" d="M237.65,443.5131A17,17,0,0,1,210.56,463.0267"/><path class="cls-1" d="M205.2167,450.6521a17,17,0,0,1,17-17,17.0942,17.0942,0,0,1,3.1758.2961"/><circle class="cls-1" cx="276.2167" cy="450.6521" r="33"/><path class="cls-1" d="M291.65,443.5131A17,17,0,0,1,264.56,463.0267"/><path class="cls-1" d="M259.2167,450.6521a17,17,0,0,1,17-17,17.0942,17.0942,0,0,1,3.1758.2961"/><circle class="cls-1" cx="187.2167" cy="524.6521" r="33"/><path class="cls-1" d="M202.65,517.5131A17,17,0,0,1,175.56,537.0267"/><path class="cls-1" d="M170.2167,524.6521a17,17,0,0,1,17-17,17.0942,17.0942,0,0,1,3.1758.2961"/><path class="cls-1" d="M362.8,331.3045q0,4.5117-2.3437,6.709a10.8985,10.8985,0,0,1-13.125,0q-2.3453-2.1972-2.3438-6.709,0-4.6875,2.3438-6.7969a9.4642,9.4642,0,0,1,6.5625-2.1093q4.51,0,6.7089,2.1093T362.8,331.3045Z"/><path class="cls-1" d="M218.1347,775.1361q2.3422,0,4.7168.1758a13.5427,13.5427,0,0,1,4.3066.9961,7.3039,7.3039,0,0,1,3.1348,2.49,7.8714,7.8714,0,0,1,1.2011,4.6582,7.7553,7.7553,0,0,1-1.2011,4.6,7.2892,7.2892,0,0,1-3.1348,2.49,14.0135,14.0135,0,0,1-4.3066,1.0254q-2.3732.2065-4.7168.2051h-5.9766V843.808q0,2.5211-.1465,4.9219a12.54,12.54,0,0,1-.9668,4.2773,6.6757,6.6757,0,0,1-2.6367,3.0176,12.2057,12.2057,0,0,1-10.3125,0,6.6535,6.6535,0,0,1-2.6367-3.0176,12.4494,12.4494,0,0,1-.9668-4.2773q-.1479-2.4009-.1465-4.9219V791.7768H188.369q-2.3451,0-4.7168-.2051a14.0135,14.0135,0,0,1-4.3066-1.0254,7.2775,7.2775,0,0,1-3.1348-2.49,7.7417,7.7417,0,0,1-1.2011-4.6,7.8577,7.8577,0,0,1,1.2011-4.6582,7.2922,7.2922,0,0,1,3.1348-2.49,13.5427,13.5427,0,0,1,4.3066-.9961q2.3732-.1758,4.7168-.1758Z"/><path class="cls-1" d="M231.2519,820.6049a25.1968,25.1968,0,0,1,1.4648-9.1406,19.8188,19.8188,0,0,1,3.7793-6.27,17.5853,17.5853,0,0,1,5.1562-3.9258,28.5767,28.5767,0,0,1,5.5957-2.1093,29.6941,29.6941,0,0,1,5.127-.8789q2.373-.1758,3.7207-.1758t3.6914.1758a27.8962,27.8962,0,0,1,5.01.8789,26.5075,26.5075,0,0,1,5.3906,2.1093,16.6853,16.6853,0,0,1,4.9219,3.9258,20.2714,20.2714,0,0,1,3.6035,6.27,26.1492,26.1492,0,0,1,1.4062,9.1406v14.5312a26.135,26.135,0,0,1-1.4062,9.1407,20.2266,20.2266,0,0,1-3.6035,6.2695,16.6532,16.6532,0,0,1-4.9219,3.9258,26.5075,26.5075,0,0,1-5.3906,2.1093,27.8962,27.8962,0,0,1-5.01.8789q-2.3437.1758-3.6914.1758t-3.7207-.1758a29.6941,29.6941,0,0,1-5.127-.8789,28.5767,28.5767,0,0,1-5.5957-2.1093,17.551,17.551,0,0,1-5.1562-3.9258,19.7758,19.7758,0,0,1-3.7793-6.2695,25.1832,25.1832,0,0,1-1.4648-9.1407Zm18.0468,18.6328a6.19,6.19,0,0,0,.82,2.9883,5.9886,5.9886,0,0,0,2.0215,2.08,7.1742,7.1742,0,0,0,3.9551.9082,6.6209,6.6209,0,0,0,3.7793-.9082,6.1483,6.1483,0,0,0,1.9629-2.08,7.1936,7.1936,0,0,0,.82-2.9883V818.0268a8.72,8.72,0,0,0-.82-3.2227,7.3077,7.3077,0,0,0-1.9629-2.1973,6.0527,6.0527,0,0,0-3.7793-1.0254,6.544,6.544,0,0,0-3.9551,1.0254,7.0573,7.0573,0,0,0-2.0215,2.1973,7.4328,7.4328,0,0,0-.82,3.2227Z"/><path class="cls-1" d="M294.5272,798.5736V788.2611a42.965,42.965,0,0,1,.2637-4.8047,12.19,12.19,0,0,1,1.2012-4.1894,7.6314,7.6314,0,0,1,2.6953-2.9883,8.6192,8.6192,0,0,1,4.7461-1.1426,8.4966,8.4966,0,0,1,4.6875,1.1426,7.4134,7.4134,0,0,1,2.666,2.9883,12.6207,12.6207,0,0,1,1.1719,4.1894,42.965,42.965,0,0,1,.2637,4.8047v10.3125h4.8046q1.5236,0,3.0469.1465a6.5812,6.5812,0,0,1,2.7246.85,5.0859,5.0859,0,0,1,1.9336,2.1094,8.6252,8.6252,0,0,1,.7324,3.9258,8.3049,8.3049,0,0,1-.7324,3.8086,5.085,5.085,0,0,1-1.9336,2.1093,7.23,7.23,0,0,1-2.7246.9083,22.6667,22.6667,0,0,1-3.0469.205h-4.8046v20.5078q0,1.1735.0878,2.49a6.6556,6.6556,0,0,0,.6153,2.4316,4.6248,4.6248,0,0,0,1.582,1.8457,5.1886,5.1886,0,0,0,2.9883.7324,17.4147,17.4147,0,0,1,3.6035.3223,5.5546,5.5546,0,0,1,2.4609,1.1426,4.8549,4.8549,0,0,1,1.4356,2.2851,12.5487,12.5487,0,0,1,.4687,3.75,7.3526,7.3526,0,0,1-1.0839,4.043,8.8663,8.8663,0,0,1-2.9,2.8125,13.558,13.558,0,0,1-4.2188,1.6406,23.4426,23.4426,0,0,1-5.039.5274,25.2227,25.2227,0,0,1-7.1192-.8789,13.8785,13.8785,0,0,1-4.9219-2.49,11.9,11.9,0,0,1-3.1054-3.8671,19.5636,19.5636,0,0,1-1.6992-5.0684,40.7073,40.7073,0,0,1-.7032-6.0645q-.1464-3.2518-.1465-6.8261v-19.336H291.246a22.0258,22.0258,0,0,1-3.0176-.205,6.945,6.945,0,0,1-2.666-.9083,5.1559,5.1559,0,0,1-1.9043-2.1093,8.3049,8.3049,0,0,1-.7324-3.8086,8.6252,8.6252,0,0,1,.7324-3.9258,5.1568,5.1568,0,0,1,1.9043-2.1094,6.32,6.32,0,0,1,2.666-.85q1.4941-.1451,3.0176-.1465Z"/><path class="cls-1" d="M378.5438,843.9252q0,2.4609-.1757,4.834a12.0186,12.0186,0,0,1-1.0547,4.248,7.1576,7.1576,0,0,1-2.6367,3.0176,8.9961,8.9961,0,0,1-4.9219,1.1426,9.838,9.838,0,0,1-5.0391-1.084,7.2632,7.2632,0,0,1-2.6953-2.6367,8.6278,8.6278,0,0,1-1.084-3.252,24.3679,24.3679,0,0,1-.2051-2.8711,18.6564,18.6564,0,0,1-1.4941,3.4571,12.3381,12.3381,0,0,1-6.1523,5.4785,12.735,12.735,0,0,1-5.01.9082,20.6083,20.6083,0,0,1-6.4453-1.0547,15.1455,15.1455,0,0,1-5.8008-3.5156,18.189,18.189,0,0,1-4.1894-6.416,25.9178,25.9178,0,0,1-1.6114-9.7559V819.433a26.1028,26.1028,0,0,1,1.6114-9.8144,17.8908,17.8908,0,0,1,4.1894-6.3868,15.3293,15.3293,0,0,1,5.8008-3.4863,20.6083,20.6083,0,0,1,6.4453-1.0547,13.1281,13.1281,0,0,1,5.01.8789,12.1638,12.1638,0,0,1,3.6621,2.2852,12.4829,12.4829,0,0,1,2.49,3.164,18.08,18.08,0,0,1,1.4941,3.5157,12.4955,12.4955,0,0,1,.82-4.8633,8.4,8.4,0,0,1,2.1093-3.0762,7.157,7.157,0,0,1,2.9-1.582,12.09,12.09,0,0,1,3.1934-.4395,8.4989,8.4989,0,0,1,4.6875,1.1426,7.42,7.42,0,0,1,2.666,2.9883,12.7679,12.7679,0,0,1,1.1719,4.2773,45.9238,45.9238,0,0,1,.2636,4.9512Zm-30.4687-9.0234q0,1.5819.1172,3.1054a8.5974,8.5974,0,0,0,.6445,2.7539,4.55,4.55,0,0,0,1.5528,1.9629,4.8062,4.8062,0,0,0,2.8417.7324,6.2519,6.2519,0,0,0,3.7208-1.0253,6.6972,6.6972,0,0,0,2.2558-3.1641,21.1388,21.1388,0,0,0,1.1426-5.3906q.3208-3.252.3808-7.7637a31.7571,31.7571,0,0,0-.3222-4.19,19.6981,19.6981,0,0,0-1.1426-4.4824,10.25,10.25,0,0,0-2.2852-3.5742,5.0827,5.0827,0,0,0-3.75-1.4648,4.8208,4.8208,0,0,0-2.8417.7324,4.6356,4.6356,0,0,0-1.5528,1.9043,7.9585,7.9585,0,0,0-.6445,2.666q-.1186,1.4941-.1172,3.0176Z"/><path class="cls-1" d="M387.7948,788.1439a42.9619,42.9619,0,0,1,.2637-4.8046,11.9078,11.9078,0,0,1,1.2012-4.16,7.4865,7.4865,0,0,1,2.6953-2.93,8.8071,8.8071,0,0,1,4.7461-1.1133,8.9348,8.9348,0,0,1,4.8047,1.1133,7.2724,7.2724,0,0,1,2.666,2.93,12.3275,12.3275,0,0,1,1.1719,4.16,42.986,42.986,0,0,1,.2636,4.8046v55.8985a43.7671,43.7671,0,0,1-.2636,4.834,12.6562,12.6562,0,0,1-1.1719,4.2187,7.2071,7.2071,0,0,1-2.666,2.959,8.9167,8.9167,0,0,1-4.8047,1.1133,8.7891,8.7891,0,0,1-4.7461-1.1133,7.4149,7.4149,0,0,1-2.6953-2.959,12.223,12.223,0,0,1-1.2012-4.2187,43.7425,43.7425,0,0,1-.2637-4.834Z"/><path class="cls-1" d="M195.7577,926.7768a12.2256,12.2256,0,0,1-.1465,1.7578,4.54,4.54,0,0,1-.7617,1.9043,5.0055,5.0055,0,0,1-1.7871,1.5527,6.5848,6.5848,0,0,1-3.1641.6445,8.2863,8.2863,0,0,1-3.5156-.6152,5.12,5.12,0,0,1-1.9629-1.5234,4.7984,4.7984,0,0,1-.8789-1.9043,9.06,9.06,0,0,1-.2051-1.8164v-3.5157a22.4216,22.4216,0,0,1-7.1777,6.7676,20.6237,20.6237,0,0,1-10.7519,2.6074q-1.1133,0-3.4571-.1758a30.0774,30.0774,0,0,1-5.2734-.9375,31.9379,31.9379,0,0,1-6.0352-2.2851,19.4528,19.4528,0,0,1-5.6543-4.2481,21.6686,21.6686,0,0,1-4.1894-6.7968,26.6136,26.6136,0,0,1-1.6406-9.9317V875.4486a28.0982,28.0982,0,0,1,1.1718-8.4961,23.5757,23.5757,0,0,1,3.0762-6.416,19.9007,19.9007,0,0,1,4.3652-4.57,29.7922,29.7922,0,0,1,5.0391-3.0762,36.3642,36.3642,0,0,1,13.6523-3.2226,37.1923,37.1923,0,0,1,11.1329,1.4648,27.2691,27.2691,0,0,1,7.8515,3.8086,20.3956,20.3956,0,0,1,5.1563,5.3028,27.6254,27.6254,0,0,1,4.3652,11.8652,43.5768,43.5768,0,0,1,.3223,4.8633,18.9833,18.9833,0,0,1-.1465,2.1386,4.8219,4.8219,0,0,1-1.0254,2.4024,6.625,6.625,0,0,1-2.7832,1.9336,14.6356,14.6356,0,0,1-5.42.791q-1.23,0-3.0176-.1465a13.3186,13.3186,0,0,1-3.4277-.7324,7.6466,7.6466,0,0,1-2.8125-1.7285,4.1744,4.1744,0,0,1-1.1719-3.1348,37.6983,37.6983,0,0,0-.3809-5.6543,12.3628,12.3628,0,0,0-1.3769-4.248,6.5915,6.5915,0,0,0-2.7539-2.6661,9.8222,9.8222,0,0,0-4.5118-.9082,7.2354,7.2354,0,0,0-4.4238,1.1719,7.4777,7.4777,0,0,0-2.2558,2.5781,9.4784,9.4784,0,0,0-.9375,3.75v37.5a9.1561,9.1561,0,0,0,.6738,3.5157,8.671,8.671,0,0,0,1.9043,2.8711,8.9864,8.9864,0,0,0,2.9,1.9336,9.3436,9.3436,0,0,0,3.6621.7031,8.8036,8.8036,0,0,0,4.248-1.0254,12.3482,12.3482,0,0,0,3.4278-2.7539,21.4894,21.4894,0,0,0,2.7246-3.9258,39.4938,39.4938,0,0,0,2.1386-4.6h-5.625a7.87,7.87,0,0,1-2.9882-.8789,6.0525,6.0525,0,0,1-2.08-1.7578,5.1351,5.1351,0,0,1-.9082-3.2227,5.5986,5.5986,0,0,1,.9082-3.4277,5.9809,5.9809,0,0,1,2.08-1.7871,7.863,7.863,0,0,1,2.9882-.7617h15.2344a9.5251,9.5251,0,0,1,1.3184.1464,4.4425,4.4425,0,0,1,1.875.85,5.9926,5.9926,0,0,1,1.6992,2.08,8.2778,8.2778,0,0,1,.7324,3.8379Z"/><path class="cls-1" d="M202.3144,886.933a40.4561,40.4561,0,0,1,.2929-4.9219,12.5764,12.5764,0,0,1,1.26-4.2773,7.7252,7.7252,0,0,1,2.7539-3.0176,8.8923,8.8923,0,0,1,4.834-1.1426,8.6192,8.6192,0,0,1,4.7461,1.1426,7.5951,7.5951,0,0,1,2.6953,3.0176,12.59,12.59,0,0,1,1.2012,4.2773,45.14,45.14,0,0,1,.2636,4.9219v22.8516q0,1.7007.1465,3.2519a8.8623,8.8623,0,0,0,.6738,2.7539,4.5751,4.5751,0,0,0,1.5528,1.9336,4.6948,4.6948,0,0,0,2.7832.7324,5.0457,5.0457,0,0,0,3.8379-1.582,10.8934,10.8934,0,0,0,2.3437-4.3359,30.2364,30.2364,0,0,0,1.1426-6.4746q.2914-3.7192.293-7.9981V886.933a40.4561,40.4561,0,0,1,.2929-4.9219,12.5764,12.5764,0,0,1,1.26-4.2773,7.7252,7.7252,0,0,1,2.7539-3.0176,8.8923,8.8923,0,0,1,4.834-1.1426,8.6192,8.6192,0,0,1,4.7461,1.1426,7.5944,7.5944,0,0,1,2.6953,3.0176,12.59,12.59,0,0,1,1.2012,4.2773,45.1147,45.1147,0,0,1,.2636,4.9219v31.9922q0,2.521-.1757,4.8926a11.7567,11.7567,0,0,1-1.0547,4.2187,7.1479,7.1479,0,0,1-2.666,2.9883,9.2854,9.2854,0,0,1-5.01,1.1426,9.838,9.838,0,0,1-5.0391-1.084,7.5919,7.5919,0,0,1-2.7246-2.6074,8.4681,8.4681,0,0,1-1.1426-3.2227,21.7119,21.7119,0,0,1-.2343-2.93,15.345,15.345,0,0,1-1.4649,3.4571,12.7443,12.7443,0,0,1-2.5488,3.164,12.64,12.64,0,0,1-8.76,3.2227,20.6087,20.6087,0,0,1-6.4453-1.0547,15.1455,15.1455,0,0,1-5.8008-3.5156,18.1355,18.1355,0,0,1-4.1894-6.4453,26.3255,26.3255,0,0,1-1.6113-9.8438Z"/><path class="cls-1" d="M262.1894,886.6986a42.9653,42.9653,0,0,1,.2636-4.8047,12.19,12.19,0,0,1,1.2012-4.1894,7.6314,7.6314,0,0,1,2.6953-2.9883,10.4284,10.4284,0,0,1,9.4922,0,7.6314,7.6314,0,0,1,2.6953,2.9883,12.19,12.19,0,0,1,1.2012,4.1894,42.965,42.965,0,0,1,.2637,4.8047v32.3438a43.7425,43.7425,0,0,1-.2637,4.834,12.223,12.223,0,0,1-1.2012,4.2187,7.4149,7.4149,0,0,1-2.6953,2.959,10.6732,10.6732,0,0,1-9.4922,0,7.4149,7.4149,0,0,1-2.6953-2.959,12.223,12.223,0,0,1-1.2012-4.2187,43.7427,43.7427,0,0,1-.2636-4.834Zm17.93-27.6562q0,4.5132-2.3437,6.709a10.8989,10.8989,0,0,1-13.125,0q-2.3437-2.1973-2.3438-6.709,0-4.686,2.3438-6.7969a9.466,9.466,0,0,1,6.5625-2.1094q4.5117,0,6.709,2.1094T280.119,859.0424Z"/><path class="cls-1" d="M337.8866,918.9252q0,2.4609-.1758,4.834a12.0164,12.0164,0,0,1-1.0546,4.248,7.1572,7.1572,0,0,1-2.6368,3.0176,8.9957,8.9957,0,0,1-4.9218,1.1426,9.8425,9.8425,0,0,1-5.0391-1.084,7.2707,7.2707,0,0,1-2.6953-2.6367,8.6419,8.6419,0,0,1-1.084-3.252,24.5857,24.5857,0,0,1-.2051-2.8711,18.6564,18.6564,0,0,1-1.4941,3.4571,12.3389,12.3389,0,0,1-6.1524,5.4785,12.7276,12.7276,0,0,1-5.01.9082,20.6172,20.6172,0,0,1-6.4453-1.0547,15.1589,15.1589,0,0,1-5.8008-3.5156,18.2151,18.2151,0,0,1-4.19-6.416,25.9378,25.9378,0,0,1-1.6113-9.7559V894.433a26.1229,26.1229,0,0,1,1.6113-9.8144,17.9162,17.9162,0,0,1,4.19-6.3868,15.343,15.343,0,0,1,5.8008-3.4863,20.6172,20.6172,0,0,1,6.4453-1.0547,13.12,13.12,0,0,1,5.01.8789,12.139,12.139,0,0,1,3.6621,2.2852,12.4611,12.4611,0,0,1,2.49,3.164,18.08,18.08,0,0,1,1.4941,3.5157V863.4955a45.9237,45.9237,0,0,1,.2637-4.9512,12.7445,12.7445,0,0,1,1.1719-4.2773,7.3459,7.3459,0,0,1,2.6953-2.9883,9.0232,9.0232,0,0,1,4.8926-1.1426,8.4966,8.4966,0,0,1,4.6875,1.1426,7.4141,7.4141,0,0,1,2.666,2.9883,12.7445,12.7445,0,0,1,1.1718,4.2773,45.9237,45.9237,0,0,1,.2637,4.9512Zm-30.4687-9.0234q0,1.5819.1172,3.1054a8.6212,8.6212,0,0,0,.6445,2.7539,4.5576,4.5576,0,0,0,1.5527,1.9629,4.8108,4.8108,0,0,0,2.8418.7324,6.2493,6.2493,0,0,0,3.7207-1.0253,6.6839,6.6839,0,0,0,2.2559-3.1641,21.0576,21.0576,0,0,0,1.1426-5.3906q.3222-3.252.3808-7.7637a31.5868,31.5868,0,0,0-.3222-4.19,19.6,19.6,0,0,0-1.1426-4.4824,10.2231,10.2231,0,0,0-2.2852-3.5742,5.0812,5.0812,0,0,0-3.75-1.4648,4.8253,4.8253,0,0,0-2.8418.7324,4.6432,4.6432,0,0,0-1.5527,1.9043,7.98,7.98,0,0,0-.6445,2.666q-.1173,1.4941-.1172,3.0176Z"/><path class="cls-1" d="M393.8954,898.7689q0,.939-.1172,2.1973a4.997,4.997,0,0,1-.9082,2.4024,6.227,6.227,0,0,1-2.49,1.9628,11.3032,11.3032,0,0,1-4.8047.82h-23.32v5.625a13.02,13.02,0,0,0,.3515,2.93,8.5323,8.5323,0,0,0,1.2012,2.8125,6.6607,6.6607,0,0,0,2.2559,2.1094,6.7466,6.7466,0,0,0,3.457.82,9.2,9.2,0,0,0,3.6035-.5566,5.7113,5.7113,0,0,0,1.9922-1.377,12.9373,12.9373,0,0,0,1.3184-1.7578,7.6306,7.6306,0,0,1,1.5527-1.7578,7.91,7.91,0,0,1,2.6953-1.3769,16.2184,16.2184,0,0,1,4.7754-.5567A17.0267,17.0267,0,0,1,388.3,913.3a6.8478,6.8478,0,0,1,2.4316.8789,4.842,4.842,0,0,1,1.6993,1.7871,5.9982,5.9982,0,0,1,.6445,2.959,8.9118,8.9118,0,0,1-2.4023,6.3574,17.4128,17.4128,0,0,1-6.0352,4.0723,33.0974,33.0974,0,0,1-7.8809,2.1679,52.9816,52.9816,0,0,1-7.9394.6446,37.4609,37.4609,0,0,1-9.2578-1.2305,21.8742,21.8742,0,0,1-7.7637-3.75,18.1888,18.1888,0,0,1-5.3613-6.7383,23.4665,23.4665,0,0,1-1.9922-10.1953V896.5424a29.4583,29.4583,0,0,1,1.3183-9.4336,20.5583,20.5583,0,0,1,3.4278-6.4453,16.0946,16.0946,0,0,1,4.7461-4.0137,23.6286,23.6286,0,0,1,5.332-2.1387,28.4736,28.4736,0,0,1,5.127-.8789q2.43-.1758,4.1894-.1758a41.94,41.94,0,0,1,10.1074,1.0547,25.7073,25.7073,0,0,1,7.002,2.7539,15.2108,15.2108,0,0,1,4.4531,3.9258,17.3293,17.3293,0,0,1,2.4609,4.6,20.87,20.87,0,0,1,1.0547,4.8047q.233,2.4332.2344,4.541Zm-31.6406-1.4062h14.6484q0-2.7525-.1465-4.8926a9.5285,9.5285,0,0,0-.8789-3.6035,4.8808,4.8808,0,0,0-2.2851-2.2266,10.3124,10.3124,0,0,0-4.4239-.7617,7.86,7.86,0,0,0-3.7792.7617,5.4861,5.4861,0,0,0-2.08,1.9043,6.1985,6.1985,0,0,0-.8789,2.4317,17.1525,17.1525,0,0,0-.1758,2.2851Z"/><path class="cls-1" d="M450.1327,873.5736V863.2611a42.965,42.965,0,0,1,.2637-4.8047,12.19,12.19,0,0,1,1.2012-4.1894,7.6314,7.6314,0,0,1,2.6953-2.9883,8.619,8.619,0,0,1,4.7461-1.1426,8.4966,8.4966,0,0,1,4.6875,1.1426,7.4141,7.4141,0,0,1,2.666,2.9883,12.623,12.623,0,0,1,1.1719,4.1894,42.9891,42.9891,0,0,1,.2636,4.8047v10.3125h4.8047q1.5234,0,3.0469.1465a6.5812,6.5812,0,0,1,2.7246.85,5.0859,5.0859,0,0,1,1.9336,2.1094,8.6252,8.6252,0,0,1,.7324,3.9258,8.3049,8.3049,0,0,1-.7324,3.8086,5.085,5.085,0,0,1-1.9336,2.1093,7.23,7.23,0,0,1-2.7246.9083,22.6678,22.6678,0,0,1-3.0469.205H467.828v20.5078q0,1.1735.0879,2.49a6.6556,6.6556,0,0,0,.6153,2.4316,4.6248,4.6248,0,0,0,1.582,1.8457,5.1886,5.1886,0,0,0,2.9883.7324,17.4147,17.4147,0,0,1,3.6035.3223,5.5546,5.5546,0,0,1,2.4609,1.1426,4.8557,4.8557,0,0,1,1.4356,2.2851,12.5487,12.5487,0,0,1,.4687,3.75,7.3518,7.3518,0,0,1-1.084,4.043,8.8643,8.8643,0,0,1-2.9,2.8125,13.5564,13.5564,0,0,1-4.2187,1.6406,23.4442,23.4442,0,0,1-5.0391.5274,25.2219,25.2219,0,0,1-7.1191-.8789,13.8777,13.8777,0,0,1-4.9219-2.49,11.9016,11.9016,0,0,1-3.1055-3.8671,19.5674,19.5674,0,0,1-1.6992-5.0684,40.7077,40.7077,0,0,1-.7031-6.0645q-.1465-3.2518-.1465-6.8261v-19.336h-3.2812a22.0247,22.0247,0,0,1-3.0176-.205,6.9444,6.9444,0,0,1-2.666-.9083,5.1552,5.1552,0,0,1-1.9043-2.1093,8.3049,8.3049,0,0,1-.7324-3.8086,8.6252,8.6252,0,0,1,.7324-3.9258,5.1562,5.1562,0,0,1,1.9043-2.1094,6.32,6.32,0,0,1,2.666-.85q1.4941-.1451,3.0176-.1465Z"/><path class="cls-1" d="M485.2821,895.6049a25.1753,25.1753,0,0,1,1.4649-9.1406,19.7823,19.7823,0,0,1,3.7793-6.27,17.5594,17.5594,0,0,1,5.1562-3.9258,28.5292,28.5292,0,0,1,5.5957-2.1093,29.6764,29.6764,0,0,1,5.127-.8789q2.373-.1758,3.7207-.1758,1.3461,0,3.6914.1758a27.9266,27.9266,0,0,1,5.01.8789,26.53,26.53,0,0,1,5.3906,2.1093,16.6853,16.6853,0,0,1,4.9219,3.9258,20.2714,20.2714,0,0,1,3.6035,6.27,26.1492,26.1492,0,0,1,1.4062,9.1406v14.5312a26.135,26.135,0,0,1-1.4062,9.1407,20.2266,20.2266,0,0,1-3.6035,6.2695,16.6532,16.6532,0,0,1-4.9219,3.9258,26.53,26.53,0,0,1-5.3906,2.1093,27.9266,27.9266,0,0,1-5.01.8789q-2.3453.1758-3.6914.1758-1.3491,0-3.7207-.1758a29.6764,29.6764,0,0,1-5.127-.8789,28.5292,28.5292,0,0,1-5.5957-2.1093,17.5252,17.5252,0,0,1-5.1562-3.9258,19.7394,19.7394,0,0,1-3.7793-6.2695,25.1616,25.1616,0,0,1-1.4649-9.1407Zm18.0469,18.6328a6.168,6.168,0,0,0,.82,2.9883,5.9708,5.9708,0,0,0,2.0215,2.08,7.17,7.17,0,0,0,3.9551.9082,6.6209,6.6209,0,0,0,3.7793-.9082,6.1581,6.1581,0,0,0,1.9629-2.08,7.2087,7.2087,0,0,0,.82-2.9883V893.0268a8.7391,8.7391,0,0,0-.82-3.2227,7.3213,7.3213,0,0,0-1.9629-2.1973,6.0527,6.0527,0,0,0-3.7793-1.0254,6.54,6.54,0,0,0-3.9551,1.0254,7.0332,7.0332,0,0,0-2.0215,2.1973,7.405,7.405,0,0,0-.82,3.2227Z"/><path class="cls-1" d="M154.28,1001.7768a12.3712,12.3712,0,0,1-.1465,1.7578,4.555,4.555,0,0,1-.7617,1.9043,5.0158,5.0158,0,0,1-1.7871,1.5527,6.5908,6.5908,0,0,1-3.1641.6445,8.28,8.28,0,0,1-3.5156-.6152,5.105,5.105,0,0,1-1.9629-1.5234,4.7709,4.7709,0,0,1-.8789-1.9043,8.9877,8.9877,0,0,1-.2051-1.8164v-3.5157a22.4329,22.4329,0,0,1-7.1777,6.7676,20.629,20.629,0,0,1-10.752,2.6074q-1.1148,0-3.457-.1758a30.048,30.048,0,0,1-5.2735-.9375,31.886,31.886,0,0,1-6.0351-2.2851,19.44,19.44,0,0,1-5.6543-4.2481,21.6523,21.6523,0,0,1-4.19-6.7968,26.5954,26.5954,0,0,1-1.6406-9.9317V950.4486a28.0667,28.0667,0,0,1,1.1719-8.4961,23.5175,23.5175,0,0,1,3.0762-6.416,19.88,19.88,0,0,1,4.3652-4.57,29.7489,29.7489,0,0,1,5.0391-3.0762,36.3587,36.3587,0,0,1,13.6523-3.2226,37.1962,37.1962,0,0,1,11.1328,1.4648,27.294,27.294,0,0,1,7.8516,3.8086,20.4112,20.4112,0,0,1,5.1562,5.3028,27.6239,27.6239,0,0,1,4.3653,11.8652,43.8158,43.8158,0,0,1,.3222,4.8633,19.1983,19.1983,0,0,1-.1465,2.1386,4.83,4.83,0,0,1-1.0253,2.4024,6.6319,6.6319,0,0,1-2.7833,1.9336,14.6388,14.6388,0,0,1-5.42.791q-1.23,0-3.0176-.1465a13.3024,13.3024,0,0,1-3.4277-.7324,7.6319,7.6319,0,0,1-2.8125-1.7285,4.171,4.171,0,0,1-1.1719-3.1348,37.832,37.832,0,0,0-.3808-5.6543,12.4035,12.4035,0,0,0-1.377-4.248,6.5961,6.5961,0,0,0-2.7539-2.6661,9.8246,9.8246,0,0,0-4.5117-.9082,7.2314,7.2314,0,0,0-4.4238,1.1719,7.4676,7.4676,0,0,0-2.2559,2.5781,9.448,9.448,0,0,0-.9375,3.75v37.5a9.1374,9.1374,0,0,0,.6738,3.5157,8.6572,8.6572,0,0,0,1.9043,2.8711,8.9875,8.9875,0,0,0,2.9,1.9336,9.34,9.34,0,0,0,3.6621.7031,8.8093,8.8093,0,0,0,4.2481-1.0254,12.3767,12.3767,0,0,0,3.4277-2.7539,21.5785,21.5785,0,0,0,2.7246-3.9258,39.8091,39.8091,0,0,0,2.1387-4.6h-5.625a7.86,7.86,0,0,1-2.9883-.8789,6.0361,6.0361,0,0,1-2.08-1.7578,5.1294,5.1294,0,0,1-.9082-3.2227,5.5926,5.5926,0,0,1,.9082-3.4277,5.965,5.965,0,0,1,2.08-1.7871,7.8543,7.8543,0,0,1,2.9883-.7617h15.2344a9.5553,9.5553,0,0,1,1.3183.1464,4.4468,4.4468,0,0,1,1.875.85,6.0028,6.0028,0,0,1,1.6993,2.08,8.2906,8.2906,0,0,1,.7324,3.8379Z"/><path class="cls-1" d="M208.7655,973.7689q0,.939-.1172,2.1973a4.9869,4.9869,0,0,1-.9082,2.4024,6.22,6.22,0,0,1-2.49,1.9628,11.2971,11.2971,0,0,1-4.8047.82h-23.32v5.625a13.015,13.015,0,0,0,.3516,2.93,8.551,8.551,0,0,0,1.2011,2.8125,6.67,6.67,0,0,0,2.2559,2.1094,6.7491,6.7491,0,0,0,3.457.82,9.1935,9.1935,0,0,0,3.6035-.5566,5.6935,5.6935,0,0,0,1.9922-1.377,12.7739,12.7739,0,0,0,1.3184-1.7578,7.6542,7.6542,0,0,1,1.5527-1.7578,7.92,7.92,0,0,1,2.6953-1.3769,16.2276,16.2276,0,0,1,4.7754-.5567,17.0091,17.0091,0,0,1,2.8418.2344,6.842,6.842,0,0,1,2.4317.8789,4.8346,4.8346,0,0,1,1.6992,1.7871,5.9872,5.9872,0,0,1,.6445,2.959,8.9075,8.9075,0,0,1-2.4023,6.3574,17.3941,17.3941,0,0,1-6.0352,4.0723,33.0718,33.0718,0,0,1-7.8808,2.1679,52.9735,52.9735,0,0,1-7.94.6446,37.4673,37.4673,0,0,1-9.2578-1.2305,21.8824,21.8824,0,0,1-7.7637-3.75,18.2089,18.2089,0,0,1-5.3613-6.7383,23.481,23.481,0,0,1-1.9922-10.1953V971.5424a29.4581,29.4581,0,0,1,1.3184-9.4336,20.5561,20.5561,0,0,1,3.4277-6.4453,16.0946,16.0946,0,0,1,4.7461-4.0137,23.6454,23.6454,0,0,1,5.332-2.1387,28.5033,28.5033,0,0,1,5.127-.8789q2.4317-.1758,4.1894-.1758a41.9283,41.9283,0,0,1,10.1074,1.0547,25.6943,25.6943,0,0,1,7.002,2.7539,15.198,15.198,0,0,1,4.4531,3.9258,17.2752,17.2752,0,0,1,2.461,4.6,20.7767,20.7767,0,0,1,1.0547,4.8047q.2343,2.4332.2343,4.541Zm-31.6406-1.4062h14.6484q0-2.7525-.1464-4.8926a9.493,9.493,0,0,0-.879-3.6035,4.8722,4.8722,0,0,0-2.2851-2.2266,10.3061,10.3061,0,0,0-4.4238-.7617,7.8656,7.8656,0,0,0-3.7793.7617,5.4935,5.4935,0,0,0-2.08,1.9043,6.1985,6.1985,0,0,0-.8789,2.4317,17.1525,17.1525,0,0,0-.1758,2.2851Z"/><path class="cls-1" d="M212.9784,970.6049a25.1753,25.1753,0,0,1,1.4649-9.1406,19.7805,19.7805,0,0,1,3.7793-6.27,17.5594,17.5594,0,0,1,5.1562-3.9258,28.5292,28.5292,0,0,1,5.5957-2.1093,29.6764,29.6764,0,0,1,5.127-.8789q2.373-.1758,3.7207-.1758,1.3461,0,3.6914.1758a27.9241,27.9241,0,0,1,5.01.8789,26.5286,26.5286,0,0,1,5.3907,2.1093,16.6837,16.6837,0,0,1,4.9218,3.9258,20.27,20.27,0,0,1,3.6036,6.27,26.1492,26.1492,0,0,1,1.4062,9.1406v14.5312a26.135,26.135,0,0,1-1.4062,9.1407,20.2248,20.2248,0,0,1-3.6036,6.2695,16.6516,16.6516,0,0,1-4.9218,3.9258,26.5286,26.5286,0,0,1-5.3907,2.1093,27.9241,27.9241,0,0,1-5.01.8789q-2.3453.1758-3.6914.1758-1.3491,0-3.7207-.1758a29.6764,29.6764,0,0,1-5.127-.8789,28.5292,28.5292,0,0,1-5.5957-2.1093,17.5252,17.5252,0,0,1-5.1562-3.9258,19.7376,19.7376,0,0,1-3.7793-6.2695,25.1616,25.1616,0,0,1-1.4649-9.1407Zm18.0469,18.6328a6.168,6.168,0,0,0,.82,2.9883,5.97,5.97,0,0,0,2.0215,2.08,7.1693,7.1693,0,0,0,3.9551.9082,6.6209,6.6209,0,0,0,3.7793-.9082,6.1581,6.1581,0,0,0,1.9629-2.08,7.2087,7.2087,0,0,0,.82-2.9883V968.0268a8.7391,8.7391,0,0,0-.82-3.2227,7.3213,7.3213,0,0,0-1.9629-2.1973,6.0527,6.0527,0,0,0-3.7793-1.0254,6.54,6.54,0,0,0-3.9551,1.0254,7.032,7.032,0,0,0-2.0215,2.1973,7.405,7.405,0,0,0-.82,3.2227Z"/><path class="cls-1" d="M315.1581,1008.9252a24.3134,24.3134,0,0,1-1.4355,8.9062,19.0817,19.0817,0,0,1-3.6622,6.0352,17.0319,17.0319,0,0,1-4.9511,3.75,27.675,27.675,0,0,1-5.3321,2.0215,26.3421,26.3421,0,0,1-4.7753.82q-2.1681.1465-3.2813.1465a59.5754,59.5754,0,0,1-8.32-.586,26.9915,26.9915,0,0,1-7.5879-2.1679,16.0632,16.0632,0,0,1-5.6836-4.2774,11.73,11.73,0,0,1-2.5488-6.914,6.2038,6.2038,0,0,1,.2344-1.5821,3.652,3.652,0,0,1,1.0546-1.67,6.5657,6.5657,0,0,1,2.461-1.3476,14.308,14.308,0,0,1,4.4531-.5567,18.7587,18.7587,0,0,1,5.2148.5567,7.1949,7.1949,0,0,1,2.6954,1.3476,3.6994,3.6994,0,0,1,1.1425,1.6992q.2637.9082.5567,1.67a2.9091,2.9091,0,0,0,1.8457,1.7285,11.4757,11.4757,0,0,0,3.7793.498,5.3817,5.3817,0,0,0,3.4277-.9961,6.5329,6.5329,0,0,0,1.9043-2.373,9.2586,9.2586,0,0,0,.82-2.8125,20.2229,20.2229,0,0,0,.1758-2.3731v-13.125a18.0858,18.0858,0,0,1-1.4941,3.5157,12.4611,12.4611,0,0,1-2.49,3.164,12.139,12.139,0,0,1-3.6621,2.2852,13.1208,13.1208,0,0,1-5.01.8789,20.6182,20.6182,0,0,1-6.4454-1.0547,15.5785,15.5785,0,0,1-5.83-3.4863,17.9481,17.9481,0,0,1-4.2481-6.4161,26.1032,26.1032,0,0,1-1.6406-9.9023V969.3158a25.5219,25.5219,0,0,1,1.6406-9.7558,18.3188,18.3188,0,0,1,4.2481-6.4161,15.4134,15.4134,0,0,1,5.83-3.5156,20.6182,20.6182,0,0,1,6.4454-1.0547,12.7621,12.7621,0,0,1,5.01.9082,12.621,12.621,0,0,1,3.6621,2.3145,12.4611,12.4611,0,0,1,2.49,3.164,18.7181,18.7181,0,0,1,1.4941,3.4571,24.6438,24.6438,0,0,1,.2051-2.8711,8.6652,8.6652,0,0,1,1.084-3.252,7.2993,7.2993,0,0,1,2.6953-2.6367,9.8617,9.8617,0,0,1,5.039-1.084,8.9961,8.9961,0,0,1,4.9219,1.1426,7.1681,7.1681,0,0,1,2.6367,3.0176,12.0274,12.0274,0,0,1,1.0547,4.248q.1758,2.3731.1758,4.834Zm-30.4687-23.9063q0,1.5249.1171,3.0469a8.3162,8.3162,0,0,0,.6446,2.7246,4.5817,4.5817,0,0,0,1.5527,1.9336,4.8108,4.8108,0,0,0,2.8418.7324,5.0741,5.0741,0,0,0,3.75-1.4648,10.1468,10.1468,0,0,0,2.2852-3.6035,20.0972,20.0972,0,0,0,1.1425-4.5117,31.8879,31.8879,0,0,0,.3223-4.2481q-.0586-4.4517-.3809-7.7344a21.1514,21.1514,0,0,0-1.1425-5.42,6.7027,6.7027,0,0,0-2.2559-3.164,6.2622,6.2622,0,0,0-3.7207-1.0254,4.8253,4.8253,0,0,0-2.8418.7324,4.568,4.568,0,0,0-1.5527,1.9629,8.6361,8.6361,0,0,0-.6446,2.7539q-.1172,1.5249-.1171,3.1055Z"/><path class="cls-1" d="M362.0272,957.3627q0,4.57-2.2558,6.68a9.0428,9.0428,0,0,1-6.416,2.1094q-.586,0-1.67.0878a10.88,10.88,0,0,0-2.3144.4688,12.1723,12.1723,0,0,0-2.49,1.1133,8.8327,8.8327,0,0,0-2.3145,1.9922,9.7071,9.7071,0,0,0-1.6992,3.1933,14.7138,14.7138,0,0,0-.6445,4.6289v16.7578a40.8542,40.8542,0,0,1-.2637,4.6875,11.529,11.529,0,0,1-1.2012,4.0723,7.5155,7.5155,0,0,1-2.6953,2.9,8.7891,8.7891,0,0,1-4.7461,1.1133,8.3575,8.3575,0,0,1-4.6289-1.1133,7.4374,7.4374,0,0,1-2.6074-2.9,11.9313,11.9313,0,0,1-1.1719-4.0723,40.8542,40.8542,0,0,1-.2637-4.6875V961.5814a42.1811,42.1811,0,0,1,.2637-4.7753,12.2866,12.2866,0,0,1,1.1719-4.1309,7.2021,7.2021,0,0,1,2.6074-2.9,8.5531,8.5531,0,0,1,4.6289-1.084,7.0914,7.0914,0,0,1,4.6,1.3184,7.7294,7.7294,0,0,1,2.3731,3.3984,15.4811,15.4811,0,0,1,.8789,4.6289q.1171,2.5488.1172,4.9512h.9375a28.4711,28.4711,0,0,1,2.1679-5.9473,21.071,21.071,0,0,1,2.9883-4.5117,12.7456,12.7456,0,0,1,3.5156-2.8418,7.9422,7.9422,0,0,1,3.75-.9961,11.5986,11.5986,0,0,1,3.7207.4981,4.747,4.747,0,0,1,2.2559,1.5527,6.0528,6.0528,0,0,1,1.1133,2.6953A22.6938,22.6938,0,0,1,362.0272,957.3627Z"/><path class="cls-1" d="M411.4735,993.9252q0,2.4609-.1757,4.834a12.0186,12.0186,0,0,1-1.0547,4.248,7.1572,7.1572,0,0,1-2.6368,3.0176,8.9957,8.9957,0,0,1-4.9218,1.1426,9.838,9.838,0,0,1-5.0391-1.084,7.2632,7.2632,0,0,1-2.6953-2.6367,8.6278,8.6278,0,0,1-1.084-3.252,24.3679,24.3679,0,0,1-.2051-2.8711,18.6564,18.6564,0,0,1-1.4941,3.4571,12.3381,12.3381,0,0,1-6.1523,5.4785,12.735,12.735,0,0,1-5.01.9082,20.6083,20.6083,0,0,1-6.4453-1.0547,15.1455,15.1455,0,0,1-5.8008-3.5156,18.1906,18.1906,0,0,1-4.1895-6.416,25.9179,25.9179,0,0,1-1.6113-9.7559V969.433a26.1029,26.1029,0,0,1,1.6113-9.8144,17.8923,17.8923,0,0,1,4.1895-6.3868,15.3293,15.3293,0,0,1,5.8008-3.4863,20.6083,20.6083,0,0,1,6.4453-1.0547,13.1281,13.1281,0,0,1,5.01.8789,12.1638,12.1638,0,0,1,3.6621,2.2852,12.4829,12.4829,0,0,1,2.49,3.164,18.08,18.08,0,0,1,1.4941,3.5157,12.4975,12.4975,0,0,1,.82-4.8633,8.4,8.4,0,0,1,2.1094-3.0762,7.157,7.157,0,0,1,2.9-1.582,12.09,12.09,0,0,1,3.1934-.4395,8.4989,8.4989,0,0,1,4.6875,1.1426,7.4214,7.4214,0,0,1,2.666,2.9883,12.7679,12.7679,0,0,1,1.1719,4.2773,45.95,45.95,0,0,1,.2636,4.9512Zm-30.4687-9.0234q0,1.5819.1172,3.1054a8.5947,8.5947,0,0,0,.6445,2.7539,4.551,4.551,0,0,0,1.5527,1.9629,4.8068,4.8068,0,0,0,2.8418.7324,6.2514,6.2514,0,0,0,3.7207-1.0253,6.6973,6.6973,0,0,0,2.2559-3.1641,21.1388,21.1388,0,0,0,1.1426-5.3906q.3207-3.252.3808-7.7637a31.7571,31.7571,0,0,0-.3222-4.19,19.7034,19.7034,0,0,0-1.1426-4.4824,10.2515,10.2515,0,0,0-2.2852-3.5742,5.0827,5.0827,0,0,0-3.75-1.4648,4.8213,4.8213,0,0,0-2.8418.7324,4.6361,4.6361,0,0,0-1.5527,1.9043,7.9561,7.9561,0,0,0-.6445,2.666q-.1187,1.4941-.1172,3.0176Z"/><path class="cls-1" d="M420.2558,961.8158q0-2.4609.1757-4.834a12.03,12.03,0,0,1,1.0547-4.248,7.17,7.17,0,0,1,2.6367-3.0176,8.9961,8.9961,0,0,1,4.9219-1.1426,9.8621,9.8621,0,0,1,5.0391,1.084,7.3,7.3,0,0,1,2.6953,2.6367,8.6669,8.6669,0,0,1,1.084,3.252,24.6438,24.6438,0,0,1,.2051,2.8711,18.7113,18.7113,0,0,1,1.4941-3.4571,12.4607,12.4607,0,0,1,2.49-3.164,12.6237,12.6237,0,0,1,3.6621-2.3145,12.7622,12.7622,0,0,1,5.01-.9082,20.6176,20.6176,0,0,1,6.4453,1.0547,15.1589,15.1589,0,0,1,5.8008,3.5156,18.216,18.216,0,0,1,4.19,6.4161,25.9369,25.9369,0,0,1,1.6113,9.7558V986.308a26.117,26.117,0,0,1-1.6113,9.8145,17.9,17.9,0,0,1-4.19,6.3867,15.3188,15.3188,0,0,1-5.8008,3.4863,20.6176,20.6176,0,0,1-6.4453,1.0547,13.121,13.121,0,0,1-5.01-.8789,12.1415,12.1415,0,0,1-3.6621-2.2852,12.4607,12.4607,0,0,1-2.49-3.164,18.08,18.08,0,0,1-1.4941-3.5157v20.0391a45.6431,45.6431,0,0,1-.2637,4.9805,12.6947,12.6947,0,0,1-1.1719,4.248,7.2845,7.2845,0,0,1-2.7246,2.9883,9.052,9.052,0,0,1-4.8633,1.1426,8.4966,8.4966,0,0,1-4.6875-1.1426,7.4134,7.4134,0,0,1-2.666-2.9883,12.6947,12.6947,0,0,1-1.1719-4.248,45.6686,45.6686,0,0,1-.2636-4.9805Zm30.4687,9.0235q0-1.5821-.1172-3.1055a8.6334,8.6334,0,0,0-.6445-2.7539,4.5688,4.5688,0,0,0-1.5527-1.9629,4.8253,4.8253,0,0,0-2.8418-.7324,6.262,6.262,0,0,0-3.7207,1.0254,6.7021,6.7021,0,0,0-2.2559,3.164,21.1511,21.1511,0,0,0-1.1426,5.42q-.3222,3.2827-.3808,7.7344a31.9032,31.9032,0,0,0,.3222,4.2481,19.6,19.6,0,0,0,1.1426,4.4824,9.9064,9.9064,0,0,0,2.2852,3.5449,5.13,5.13,0,0,0,3.75,1.4356,4.8107,4.8107,0,0,0,2.8418-.7325,4.6183,4.6183,0,0,0,1.5527-1.9043,7.9682,7.9682,0,0,0,.6445-2.666q.1172-1.4942.1172-3.0176Z"/><path class="cls-1" d="M525.4843,993.9252a43.7425,43.7425,0,0,1-.2637,4.834,12.9528,12.9528,0,0,1-1.1719,4.248,7.3607,7.3607,0,0,1-2.666,3.0176,8.7433,8.7433,0,0,1-4.8047,1.1426,8.897,8.897,0,0,1-4.834-1.1426,7.72,7.72,0,0,1-2.7539-3.0176,12.5426,12.5426,0,0,1-1.26-4.248,39.4232,39.4232,0,0,1-.293-4.834V970.8393q0-1.522-.1172-3.0176a7.9826,7.9826,0,0,0-.6445-2.666,4.6434,4.6434,0,0,0-1.5528-1.9043,4.8248,4.8248,0,0,0-2.8417-.7325,5.0009,5.0009,0,0,0-3.8086,1.5528,10.8459,10.8459,0,0,0-2.3145,4.2773,30.7475,30.7475,0,0,0-1.1719,6.4453q-.3222,3.7223-.3222,7.9981v11.1328a43.7425,43.7425,0,0,1-.2637,4.834,12.5084,12.5084,0,0,1-1.2012,4.248,7.4371,7.4371,0,0,1-2.7539,3.0176,9.1793,9.1793,0,0,1-4.9219,1.1426,8.7429,8.7429,0,0,1-4.8046-1.1426,7.3616,7.3616,0,0,1-2.6661-3.0176,12.9527,12.9527,0,0,1-1.1718-4.248,43.7425,43.7425,0,0,1-.2637-4.834V938.3783a43.7425,43.7425,0,0,1,.2637-4.834,12.9666,12.9666,0,0,1,1.1718-4.248,7.3742,7.3742,0,0,1,2.6661-3.0176,8.7429,8.7429,0,0,1,4.8046-1.1426,9.1793,9.1793,0,0,1,4.9219,1.1426,7.45,7.45,0,0,1,2.7539,3.0176,12.5215,12.5215,0,0,1,1.2012,4.248,43.7425,43.7425,0,0,1,.2637,4.834v20.0391a17.6571,17.6571,0,0,1,1.5234-3.4571,12.4,12.4,0,0,1,2.5781-3.164,13.4973,13.4973,0,0,1,3.7207-2.3145,12.5982,12.5982,0,0,1,4.9512-.9082,20.4017,20.4017,0,0,1,6.4746,1.084,15.1929,15.1929,0,0,1,5.8008,3.5449,18.3544,18.3544,0,0,1,4.16,6.4746,26.5913,26.5913,0,0,1,1.6114,9.8731Z"/><path class="cls-1" d="M538.72,1030.6049q-6.68,0-9.4922-1.9043a6.3257,6.3257,0,0,1-2.8125-5.5957,8.1337,8.1337,0,0,1,.4981-3.0469,5.1134,5.1134,0,0,1,1.3769-1.9922,5.2046,5.2046,0,0,1,2.0215-1.084,8.9168,8.9168,0,0,1,2.4317-.3222c.5859,0,1.1318.0195,1.6406.0586.5068.039.9375.0586,1.2891.0586a2.8136,2.8136,0,0,0,2.1386-1.3184,18.7831,18.7831,0,0,0,1.9922-3.3106q.9668-1.9921,1.9629-4.2773t1.9922-4.2187l-.9375-2.3438q-1.7007-4.2759-3.5742-8.9941-1.8765-4.7154-3.7207-9.5508-1.8457-4.8341-3.6328-9.6387-1.7886-4.8032-3.252-9.3164-.6461-1.8735-1.084-3.6914a15.161,15.161,0,0,1-.4394-3.5742,7.2219,7.2219,0,0,1,.7031-3.1641,7.6419,7.6419,0,0,1,1.9336-2.5195,9.634,9.634,0,0,1,6.2695-2.2852,6.5433,6.5433,0,0,1,3.0176.7032,8.3176,8.3176,0,0,1,2.4609,1.9335,14.0136,14.0136,0,0,1,1.9043,2.8125,23.3562,23.3562,0,0,1,1.4063,3.34l7.8515,24.7266,7.5-24.7266a23.2243,23.2243,0,0,1,1.3477-3.2813,13.3785,13.3785,0,0,1,1.9336-2.9,9.69,9.69,0,0,1,2.5195-2.0508,6.2218,6.2218,0,0,1,3.1055-.791,8.4248,8.4248,0,0,1,3.2519.6445,8.2553,8.2553,0,0,1,2.6954,1.7871,8.6453,8.6453,0,0,1,2.49,6.123,14.09,14.09,0,0,1-.4395,3.4864,31.71,31.71,0,0,1-1.0839,3.4277l-14.0625,37.2656q-1.2306,3.1641-2.6661,6.5918-1.437,3.4278-3.1347,6.709a68.4335,68.4335,0,0,1-3.6328,6.2109,35.0559,35.0559,0,0,1-4.1016,5.1563,19.2854,19.2854,0,0,1-4.6,3.5449A10.4974,10.4974,0,0,1,538.72,1030.6049Z"/><path class="cls-1" d="M112.8026,1076.7768a12.3844,12.3844,0,0,1-.1464,1.7578,4.5552,4.5552,0,0,1-.7618,1.9043,5.014,5.014,0,0,1-1.7871,1.5527,6.59,6.59,0,0,1-3.164.6445,8.28,8.28,0,0,1-3.5157-.6152,5.1065,5.1065,0,0,1-1.9629-1.5234,4.7737,4.7737,0,0,1-.8789-1.9043,8.9871,8.9871,0,0,1-.205-1.8164v-3.5157a22.4322,22.4322,0,0,1-7.1778,6.7676,20.6284,20.6284,0,0,1-10.7519,2.6074q-1.1148,0-3.4571-.1758a30.0486,30.0486,0,0,1-5.2734-.9375,31.8893,31.8893,0,0,1-6.0352-2.2851,19.44,19.44,0,0,1-5.6542-4.2481,21.65,21.65,0,0,1-4.1895-6.7968,26.5954,26.5954,0,0,1-1.6406-9.9317v-32.8125a28.0669,28.0669,0,0,1,1.1718-8.4961,23.5175,23.5175,0,0,1,3.0762-6.416,19.88,19.88,0,0,1,4.3653-4.57,29.7521,29.7521,0,0,1,5.039-3.0762,36.36,36.36,0,0,1,13.6524-3.2226,37.1962,37.1962,0,0,1,11.1328,1.4648,27.2947,27.2947,0,0,1,7.8515,3.8086,20.4117,20.4117,0,0,1,5.1563,5.3028,27.622,27.622,0,0,1,4.3652,11.8652,43.7942,43.7942,0,0,1,.3223,4.8633,19.1983,19.1983,0,0,1-.1465,2.1386,4.83,4.83,0,0,1-1.0254,2.4024,6.6309,6.6309,0,0,1-2.7832,1.9336,14.6392,14.6392,0,0,1-5.42.791q-1.23,0-3.0176-.1465a13.3007,13.3007,0,0,1-3.4277-.7324,7.63,7.63,0,0,1-2.8125-1.7285,4.1706,4.1706,0,0,1-1.1719-3.1348,37.8177,37.8177,0,0,0-.3809-5.6543,12.4014,12.4014,0,0,0-1.3769-4.248,6.5967,6.5967,0,0,0-2.7539-2.6661,9.8249,9.8249,0,0,0-4.5117-.9082,7.2315,7.2315,0,0,0-4.4239,1.1719,7.4672,7.4672,0,0,0-2.2558,2.5781,9.4447,9.4447,0,0,0-.9375,3.75v37.5a9.1374,9.1374,0,0,0,.6738,3.5157,8.6557,8.6557,0,0,0,1.9043,2.8711,8.9864,8.9864,0,0,0,2.9,1.9336,9.34,9.34,0,0,0,3.6621.7031,8.8092,8.8092,0,0,0,4.248-1.0254,12.3757,12.3757,0,0,0,3.4278-2.7539,21.5885,21.5885,0,0,0,2.7246-3.9258,39.8091,39.8091,0,0,0,2.1387-4.6h-5.625a7.86,7.86,0,0,1-2.9883-.8789,6.0361,6.0361,0,0,1-2.08-1.7578,5.1294,5.1294,0,0,1-.9082-3.2227,5.5926,5.5926,0,0,1,.9082-3.4277,5.965,5.965,0,0,1,2.08-1.7871,7.8543,7.8543,0,0,1,2.9883-.7617h15.2343a9.5547,9.5547,0,0,1,1.3184.1464,4.4468,4.4468,0,0,1,1.875.85,6.0026,6.0026,0,0,1,1.6992,2.08,8.2906,8.2906,0,0,1,.7324,3.8379Z"/><path class="cls-1" d="M165.8817,1068.9252q0,2.4609-.1757,4.834a12.0186,12.0186,0,0,1-1.0547,4.248,7.1576,7.1576,0,0,1-2.6367,3.0176,8.9961,8.9961,0,0,1-4.9219,1.1426,9.838,9.838,0,0,1-5.0391-1.084,7.2632,7.2632,0,0,1-2.6953-2.6367,8.6278,8.6278,0,0,1-1.084-3.252,24.3679,24.3679,0,0,1-.2051-2.8711,18.6564,18.6564,0,0,1-1.4941,3.4571,12.3381,12.3381,0,0,1-6.1523,5.4785,12.735,12.735,0,0,1-5.01.9082,20.6083,20.6083,0,0,1-6.4453-1.0547,15.1455,15.1455,0,0,1-5.8008-3.5156,18.1906,18.1906,0,0,1-4.1895-6.416,25.9179,25.9179,0,0,1-1.6113-9.7559V1044.433a26.1029,26.1029,0,0,1,1.6113-9.8144,17.8923,17.8923,0,0,1,4.1895-6.3868,15.3293,15.3293,0,0,1,5.8008-3.4863,20.6083,20.6083,0,0,1,6.4453-1.0547,13.1281,13.1281,0,0,1,5.01.8789,12.1638,12.1638,0,0,1,3.6621,2.2852,12.4829,12.4829,0,0,1,2.49,3.164,18.08,18.08,0,0,1,1.4941,3.5157,12.4955,12.4955,0,0,1,.82-4.8633,8.3991,8.3991,0,0,1,2.1093-3.0762,7.157,7.157,0,0,1,2.9-1.582,12.09,12.09,0,0,1,3.1934-.4395,8.4989,8.4989,0,0,1,4.6875,1.1426,7.4207,7.4207,0,0,1,2.666,2.9883,12.7679,12.7679,0,0,1,1.1719,4.2773,45.95,45.95,0,0,1,.2636,4.9512Zm-30.4687-9.0234q0,1.5819.1172,3.1054a8.5947,8.5947,0,0,0,.6445,2.7539,4.551,4.551,0,0,0,1.5527,1.9629,4.8068,4.8068,0,0,0,2.8418.7324,6.2514,6.2514,0,0,0,3.7207-1.0253,6.6973,6.6973,0,0,0,2.2559-3.1641,21.1388,21.1388,0,0,0,1.1426-5.3906q.3207-3.252.3808-7.7637a31.7571,31.7571,0,0,0-.3222-4.1895,19.6981,19.6981,0,0,0-1.1426-4.4824,10.2515,10.2515,0,0,0-2.2852-3.5742,5.0827,5.0827,0,0,0-3.75-1.4648,4.8213,4.8213,0,0,0-2.8418.7324,4.6361,4.6361,0,0,0-1.5527,1.9043,7.9561,7.9561,0,0,0-.6445,2.666q-.1187,1.4941-.1172,3.0176Z"/><path class="cls-1" d="M214.2733,1082.1674a8.6194,8.6194,0,0,1-4.7461-1.1426,7.5744,7.5744,0,0,1-2.6953-3.0176,12.5061,12.5061,0,0,1-1.2011-4.248,43.7425,43.7425,0,0,1-.2637-4.834v-23.2031q0-1.582-.1465-3.1055a8.5433,8.5433,0,0,0-.6738-2.6953,4.6434,4.6434,0,0,0-1.5528-1.9043,4.7113,4.7113,0,0,0-2.7832-.7324,4.9515,4.9515,0,0,0-3.8086,1.582,11.1162,11.1162,0,0,0-2.3144,4.3066,30.6739,30.6739,0,0,0-1.1719,6.4161q-.3222,3.6913-.3222,7.9687v11.3672a43.7425,43.7425,0,0,1-.2637,4.834,12.9528,12.9528,0,0,1-1.1719,4.248,7.3614,7.3614,0,0,1-2.666,3.0176,10.6733,10.6733,0,0,1-9.6094,0,7.3614,7.3614,0,0,1-2.666-3.0176,12.9528,12.9528,0,0,1-1.1719-4.248,43.7427,43.7427,0,0,1-.2636-4.834v-32.1094q0-2.4609.205-4.834a12.4714,12.4714,0,0,1,1.084-4.248,7.1068,7.1068,0,0,1,2.666-3.0176,9.1513,9.1513,0,0,1,4.9512-1.1426,9.6957,9.6957,0,0,1,5.01,1.084,7.358,7.358,0,0,1,2.666,2.6367,8.2843,8.2843,0,0,1,1.0547,3.252,28.6809,28.6809,0,0,1,.1758,2.8711,14.0014,14.0014,0,0,1,1.67-3.4571,13.4118,13.4118,0,0,1,2.9-3.164,15.7386,15.7386,0,0,1,4.0429-2.3145,13.7145,13.7145,0,0,1,5.0977-.9082,16.1737,16.1737,0,0,1,7.5,1.875,15.9653,15.9653,0,0,1,6.2109,6.0938,9.9623,9.9623,0,0,1,2.5782-3.4863,15.84,15.84,0,0,1,3.8671-2.49,21.1474,21.1474,0,0,1,4.6289-1.4941,24.5417,24.5417,0,0,1,4.8633-.4981,20.6172,20.6172,0,0,1,6.4453,1.0547,15.1589,15.1589,0,0,1,5.8008,3.5156,18.2147,18.2147,0,0,1,4.19,6.4161A25.9369,25.9369,0,0,1,254,1044.3158v24.6094a39.4232,39.4232,0,0,1-.293,4.834,12.9809,12.9809,0,0,1-1.23,4.248,7.5033,7.5033,0,0,1-2.7246,3.0176,8.772,8.772,0,0,1-4.7754,1.1426,8.8968,8.8968,0,0,1-4.834-1.1426,7.5033,7.5033,0,0,1-2.7246-3.0176,12.5084,12.5084,0,0,1-1.2012-4.248,43.7425,43.7425,0,0,1-.2637-4.834v-23.2031a27.084,27.084,0,0,0-.1758-3.1055,9.0925,9.0925,0,0,0-.7031-2.6953,4.5613,4.5613,0,0,0-1.582-1.9043,4.8517,4.8517,0,0,0-2.8125-.7324,4.6434,4.6434,0,0,0-3.1934,1.1718,8.9558,8.9558,0,0,0-2.1972,3.2227,21.28,21.28,0,0,0-1.3477,4.8926,56.2965,56.2965,0,0,0-.6445,6.1816v16.1719a43.7425,43.7425,0,0,1-.2637,4.834,12.5084,12.5084,0,0,1-1.2012,4.248,7.5033,7.5033,0,0,1-2.7246,3.0176A8.8968,8.8968,0,0,1,214.2733,1082.1674Z"/><path class="cls-1" d="M310.4784,1048.7689q0,.939-.1172,2.1973a4.997,4.997,0,0,1-.9082,2.4024,6.227,6.227,0,0,1-2.49,1.9628,11.3032,11.3032,0,0,1-4.8047.82h-23.32v5.625a13.015,13.015,0,0,0,.3516,2.93,8.53,8.53,0,0,0,1.2011,2.8125,6.6616,6.6616,0,0,0,2.2559,2.1094,6.7468,6.7468,0,0,0,3.457.82,9.2,9.2,0,0,0,3.6035-.5566,5.7113,5.7113,0,0,0,1.9922-1.377,12.9373,12.9373,0,0,0,1.3184-1.7578,7.6306,7.6306,0,0,1,1.5527-1.7578,7.91,7.91,0,0,1,2.6953-1.3769,16.2184,16.2184,0,0,1,4.7754-.5567,17.0267,17.0267,0,0,1,2.8418.2344,6.849,6.849,0,0,1,2.4317.8789,4.8426,4.8426,0,0,1,1.6992,1.7871,5.9982,5.9982,0,0,1,.6445,2.959,8.9118,8.9118,0,0,1-2.4023,6.3574,17.4128,17.4128,0,0,1-6.0352,4.0723,33.0961,33.0961,0,0,1-7.8809,2.1679,52.9816,52.9816,0,0,1-7.9394.6446,37.4609,37.4609,0,0,1-9.2578-1.2305,21.8742,21.8742,0,0,1-7.7637-3.75,18.1888,18.1888,0,0,1-5.3613-6.7383,23.4665,23.4665,0,0,1-1.9922-10.1953v-13.7109a29.4553,29.4553,0,0,1,1.3184-9.4336,20.5561,20.5561,0,0,1,3.4277-6.4453,16.0946,16.0946,0,0,1,4.7461-4.0137,23.6286,23.6286,0,0,1,5.332-2.1387,28.4736,28.4736,0,0,1,5.127-.8789q2.43-.1758,4.1894-.1758a41.9393,41.9393,0,0,1,10.1074,1.0547,25.7073,25.7073,0,0,1,7.002,2.7539,15.2108,15.2108,0,0,1,4.4531,3.9258,17.3326,17.3326,0,0,1,2.461,4.6,20.87,20.87,0,0,1,1.0546,4.8047q.2329,2.4332.2344,4.541Zm-31.6406-1.4062h14.6484q0-2.7525-.1465-4.8926a9.5285,9.5285,0,0,0-.8789-3.6035,4.8808,4.8808,0,0,0-2.2851-2.2266,10.3119,10.3119,0,0,0-4.4238-.7617,7.86,7.86,0,0,0-3.7793.7617,5.4861,5.4861,0,0,0-2.08,1.9043,6.1985,6.1985,0,0,0-.8789,2.4317,17.1525,17.1525,0,0,0-.1758,2.2851Z"/><path class="cls-1" d="M262.6739,792.0781H240.6325a14.1984,14.1984,0,0,0-12.2963,7.0993l-11.0207,19.0884a14.1983,14.1983,0,0,0,0,14.1986l11.0207,19.0884a14.1984,14.1984,0,0,0,12.2963,7.0993h22.0414a14.1986,14.1986,0,0,0,12.2964-7.0993l11.0207-19.0884a14.1988,14.1988,0,0,0,0-14.1986L274.97,799.1774A14.1986,14.1986,0,0,0,262.6739,792.0781Z"/><path class="cls-1" d="M280.2888,858.9966q0,4.5117-2.3438,6.709a10.8989,10.8989,0,0,1-13.125,0q-2.3451-2.1974-2.3437-6.709,0-4.6875,2.3437-6.7969a9.4639,9.4639,0,0,1,6.5625-2.1094q4.51,0,6.709,2.1094T280.2888,858.9966Z"/><path class="cls-1" d="M523.6064,866.5143H501.5651a14.1985,14.1985,0,0,0-12.2964,7.0993L478.248,892.702a14.1988,14.1988,0,0,0,0,14.1986l11.0207,19.0884a14.1985,14.1985,0,0,0,12.2964,7.0993h22.0413a14.1985,14.1985,0,0,0,12.2964-7.0993l11.0207-19.0884a14.1988,14.1988,0,0,0,0-14.1986l-11.0207-19.0884A14.1985,14.1985,0,0,0,523.6064,866.5143Z"/><path class="cls-1" d="M248.7582,940.8106H226.7168A14.1989,14.1989,0,0,0,214.42,947.91L203.4,966.9983a14.199,14.199,0,0,0,0,14.1987l11.0207,19.0884a14.1989,14.1989,0,0,0,12.2964,7.0993h22.0414a14.1986,14.1986,0,0,0,12.2963-7.0993l11.0207-19.0884a14.1985,14.1985,0,0,0,0-14.1987L261.0545,947.91A14.1986,14.1986,0,0,0,248.7582,940.8106Z"/><circle class="cls-1" cx="153.4847" cy="162.5079" r="33"/><path class="cls-1" d="M168.9176,155.3688a17,17,0,0,1-27.0892,19.5137"/><path class="cls-1" d="M136.4847,162.5079a17,17,0,0,1,17-17,17.0926,17.0926,0,0,1,3.1758.2961"/><circle class="cls-1" cx="366.4847" cy="33.5079" r="33"/><path class="cls-1" d="M383.194,30.355A17,17,0,0,1,352.1587,42.66"/><path class="cls-1" d="M350,29.3551a17.0152,17.0152,0,0,1,23.6449-11.2693"/><circle class="cls-1" cx="548.7918" cy="524.6003" r="33"/><path class="cls-1" d="M554.3689,540.6638a17,17,0,0,1-16.7378-28.887"/><path class="cls-1" d="M550.4738,507.6837a17,17,0,0,1,15.2345,18.5986,17.09,17.09,0,0,1-.6088,3.1309"/><circle class="cls-1" cx="449.5505" cy="84.5276" r="33"/><path class="cls-1" d="M454.2562,68.1876a17,17,0,0,1-2.9814,33.2524"/><path class="cls-1" d="M438.422,97.379a17.015,17.015,0,0,1,.58-26.1867"/><path class="cls-1" d="M24.7329,758.6462,6.6138,771.1969A14.1986,14.1986,0,0,0,.5481,784.0346l1.81,21.967a14.1986,14.1986,0,0,0,8.0849,11.672L30.3715,827.09a14.1985,14.1985,0,0,0,14.1507-1.1658l18.1191-12.5507a14.1986,14.1986,0,0,0,6.0657-12.8378l-1.81-21.9669a14.1986,14.1986,0,0,0-8.0849-11.672L38.8836,757.48A14.1985,14.1985,0,0,0,24.7329,758.6462Z"/><path class="cls-1" d="M515.9812,1148.3931l-20.4828-8.1411a14.1984,14.1984,0,0,0-14.049,2.0556l-17.2918,13.668a14.1985,14.1985,0,0,0-5.2444,13.1946l3.191,21.8092a14.1986,14.1986,0,0,0,8.8047,11.139l20.4827,8.1412a14.1988,14.1988,0,0,0,14.0491-2.0556l17.2918-13.668a14.1988,14.1988,0,0,0,5.2444-13.1946l-3.191-21.8092A14.1989,14.1989,0,0,0,515.9812,1148.3931Z"/><path class="cls-1" d="M419.4657,1199.9688H397.4244a14.1985,14.1985,0,0,0-12.2964,7.0993l-11.0207,19.0884a14.1988,14.1988,0,0,0,0,14.1986l11.0207,19.0884a14.1985,14.1985,0,0,0,12.2964,7.0993h22.0413a14.1985,14.1985,0,0,0,12.2964-7.0993l11.0207-19.0884a14.1988,14.1988,0,0,0,0-14.1986l-11.0207-19.0884A14.1985,14.1985,0,0,0,419.4657,1199.9688Z"/></g></g></svg>